G04 EAGLE Gerber RS-274X export*
G75*
%MOMM*%
%FSLAX34Y34*%
%LPD*%
%INSilkscreen Top*%
%IPPOS*%
%AMOC8*
5,1,8,0,0,1.08239X$1,22.5*%
G01*
%ADD10C,0.508000*%
%ADD11C,0.152400*%
%ADD12C,0.076200*%
%ADD13C,0.127000*%
%ADD14C,0.101600*%
%ADD15C,0.050800*%
%ADD16C,0.100000*%
%ADD17C,0.200000*%
%ADD18C,0.200000*%
%ADD19C,0.203200*%
%ADD20C,0.177800*%


D10*
X289010Y269300D03*
D11*
X307400Y273800D02*
X307400Y276800D01*
X310400Y276800D01*
X375400Y276800D02*
X378400Y276800D01*
X378400Y273800D01*
X378400Y205800D02*
X375400Y205800D01*
X378400Y205800D02*
X378400Y208800D01*
X307400Y208800D02*
X307400Y205800D01*
X310400Y205800D01*
D12*
X288202Y298098D02*
X288202Y305496D01*
X287380Y298098D02*
X289024Y298098D01*
X289024Y305496D02*
X287380Y305496D01*
X293642Y298098D02*
X295286Y298098D01*
X293642Y298098D02*
X293564Y298100D01*
X293486Y298105D01*
X293408Y298115D01*
X293331Y298128D01*
X293254Y298144D01*
X293179Y298165D01*
X293104Y298188D01*
X293031Y298216D01*
X292959Y298247D01*
X292889Y298281D01*
X292820Y298318D01*
X292753Y298359D01*
X292688Y298403D01*
X292626Y298450D01*
X292565Y298500D01*
X292508Y298552D01*
X292452Y298608D01*
X292400Y298665D01*
X292350Y298726D01*
X292303Y298788D01*
X292259Y298853D01*
X292218Y298920D01*
X292181Y298989D01*
X292147Y299059D01*
X292116Y299131D01*
X292088Y299204D01*
X292065Y299279D01*
X292044Y299354D01*
X292028Y299431D01*
X292015Y299508D01*
X292005Y299586D01*
X292000Y299664D01*
X291998Y299742D01*
X291999Y299742D02*
X291999Y303852D01*
X291998Y303852D02*
X292000Y303933D01*
X292006Y304013D01*
X292016Y304093D01*
X292030Y304173D01*
X292047Y304251D01*
X292069Y304329D01*
X292094Y304406D01*
X292123Y304481D01*
X292156Y304555D01*
X292192Y304627D01*
X292232Y304697D01*
X292275Y304765D01*
X292322Y304831D01*
X292371Y304895D01*
X292424Y304956D01*
X292480Y305014D01*
X292538Y305070D01*
X292599Y305123D01*
X292663Y305172D01*
X292729Y305219D01*
X292797Y305262D01*
X292867Y305302D01*
X292939Y305338D01*
X293013Y305371D01*
X293088Y305400D01*
X293165Y305425D01*
X293243Y305447D01*
X293321Y305464D01*
X293401Y305478D01*
X293481Y305488D01*
X293561Y305494D01*
X293642Y305496D01*
X295286Y305496D01*
X298141Y303852D02*
X300196Y305496D01*
X300196Y298098D01*
X298141Y298098D02*
X302251Y298098D01*
D13*
X453900Y226300D02*
X462400Y226300D01*
X453900Y226300D02*
X453900Y228800D01*
X477400Y226300D02*
X485900Y226300D01*
X485900Y228800D01*
X485900Y256300D02*
X477400Y256300D01*
X485900Y256300D02*
X485900Y253800D01*
X462400Y256300D02*
X453900Y256300D01*
X453900Y253800D01*
D10*
X452120Y259080D03*
D13*
X465017Y262255D02*
X465017Y267081D01*
X464481Y262255D02*
X465554Y262255D01*
X465554Y267081D02*
X464481Y267081D01*
X469110Y262255D02*
X470182Y262255D01*
X469110Y262255D02*
X469045Y262257D01*
X468981Y262263D01*
X468917Y262273D01*
X468853Y262286D01*
X468791Y262304D01*
X468730Y262325D01*
X468670Y262349D01*
X468612Y262378D01*
X468555Y262410D01*
X468501Y262445D01*
X468449Y262483D01*
X468399Y262525D01*
X468352Y262569D01*
X468308Y262616D01*
X468266Y262666D01*
X468228Y262718D01*
X468193Y262772D01*
X468161Y262829D01*
X468132Y262887D01*
X468108Y262947D01*
X468087Y263008D01*
X468069Y263070D01*
X468056Y263134D01*
X468046Y263198D01*
X468040Y263262D01*
X468038Y263327D01*
X468037Y263327D02*
X468037Y266009D01*
X468038Y266009D02*
X468040Y266074D01*
X468046Y266138D01*
X468056Y266202D01*
X468069Y266266D01*
X468087Y266328D01*
X468108Y266389D01*
X468132Y266449D01*
X468161Y266507D01*
X468193Y266564D01*
X468228Y266618D01*
X468266Y266670D01*
X468308Y266720D01*
X468352Y266767D01*
X468399Y266811D01*
X468449Y266853D01*
X468501Y266891D01*
X468555Y266926D01*
X468612Y266958D01*
X468670Y266987D01*
X468730Y267011D01*
X468791Y267032D01*
X468853Y267050D01*
X468917Y267063D01*
X468981Y267073D01*
X469045Y267079D01*
X469110Y267081D01*
X470182Y267081D01*
X474112Y267081D02*
X474180Y267079D01*
X474247Y267073D01*
X474314Y267064D01*
X474381Y267051D01*
X474446Y267034D01*
X474511Y267013D01*
X474574Y266989D01*
X474636Y266961D01*
X474696Y266930D01*
X474754Y266896D01*
X474810Y266858D01*
X474865Y266818D01*
X474916Y266774D01*
X474965Y266727D01*
X475012Y266678D01*
X475056Y266627D01*
X475096Y266572D01*
X475134Y266516D01*
X475168Y266458D01*
X475199Y266398D01*
X475227Y266336D01*
X475251Y266273D01*
X475272Y266208D01*
X475289Y266143D01*
X475302Y266076D01*
X475311Y266009D01*
X475317Y265942D01*
X475319Y265874D01*
X474112Y267081D02*
X474034Y267079D01*
X473956Y267073D01*
X473879Y267063D01*
X473802Y267050D01*
X473726Y267032D01*
X473651Y267011D01*
X473577Y266986D01*
X473505Y266957D01*
X473434Y266925D01*
X473365Y266889D01*
X473297Y266850D01*
X473232Y266807D01*
X473169Y266761D01*
X473108Y266712D01*
X473050Y266660D01*
X472995Y266605D01*
X472942Y266548D01*
X472893Y266488D01*
X472846Y266425D01*
X472803Y266361D01*
X472763Y266294D01*
X472726Y266225D01*
X472693Y266154D01*
X472663Y266082D01*
X472637Y266009D01*
X474917Y264936D02*
X474966Y264985D01*
X475013Y265037D01*
X475056Y265092D01*
X475097Y265149D01*
X475135Y265208D01*
X475169Y265269D01*
X475200Y265332D01*
X475228Y265396D01*
X475252Y265462D01*
X475272Y265528D01*
X475289Y265596D01*
X475302Y265665D01*
X475311Y265734D01*
X475317Y265804D01*
X475319Y265874D01*
X474917Y264936D02*
X472638Y262255D01*
X475319Y262255D01*
D14*
X234301Y267208D02*
X231704Y267208D01*
X231605Y267210D01*
X231505Y267216D01*
X231406Y267225D01*
X231308Y267238D01*
X231210Y267255D01*
X231112Y267276D01*
X231016Y267301D01*
X230921Y267329D01*
X230827Y267361D01*
X230734Y267396D01*
X230642Y267435D01*
X230552Y267478D01*
X230464Y267523D01*
X230377Y267573D01*
X230293Y267625D01*
X230210Y267681D01*
X230130Y267739D01*
X230052Y267801D01*
X229977Y267866D01*
X229904Y267934D01*
X229834Y268004D01*
X229766Y268077D01*
X229701Y268152D01*
X229639Y268230D01*
X229581Y268310D01*
X229525Y268393D01*
X229473Y268477D01*
X229423Y268564D01*
X229378Y268652D01*
X229335Y268742D01*
X229296Y268834D01*
X229261Y268927D01*
X229229Y269021D01*
X229201Y269116D01*
X229176Y269212D01*
X229155Y269310D01*
X229138Y269408D01*
X229125Y269506D01*
X229116Y269605D01*
X229110Y269705D01*
X229108Y269804D01*
X229108Y276296D01*
X229110Y276395D01*
X229116Y276495D01*
X229125Y276594D01*
X229138Y276692D01*
X229155Y276790D01*
X229176Y276888D01*
X229201Y276984D01*
X229229Y277079D01*
X229261Y277173D01*
X229296Y277266D01*
X229335Y277358D01*
X229378Y277448D01*
X229423Y277536D01*
X229473Y277623D01*
X229525Y277707D01*
X229581Y277790D01*
X229639Y277870D01*
X229701Y277948D01*
X229766Y278023D01*
X229834Y278096D01*
X229904Y278166D01*
X229977Y278234D01*
X230052Y278299D01*
X230130Y278361D01*
X230210Y278419D01*
X230293Y278475D01*
X230377Y278527D01*
X230464Y278577D01*
X230552Y278622D01*
X230642Y278665D01*
X230734Y278704D01*
X230826Y278739D01*
X230921Y278771D01*
X231016Y278799D01*
X231112Y278824D01*
X231210Y278845D01*
X231308Y278862D01*
X231406Y278875D01*
X231505Y278884D01*
X231605Y278890D01*
X231704Y278892D01*
X234301Y278892D01*
X238666Y276296D02*
X241912Y278892D01*
X241912Y267208D01*
X245157Y267208D02*
X238666Y267208D01*
X183501Y267208D02*
X180904Y267208D01*
X180805Y267210D01*
X180705Y267216D01*
X180606Y267225D01*
X180508Y267238D01*
X180410Y267255D01*
X180312Y267276D01*
X180216Y267301D01*
X180121Y267329D01*
X180027Y267361D01*
X179934Y267396D01*
X179842Y267435D01*
X179752Y267478D01*
X179664Y267523D01*
X179577Y267573D01*
X179493Y267625D01*
X179410Y267681D01*
X179330Y267739D01*
X179252Y267801D01*
X179177Y267866D01*
X179104Y267934D01*
X179034Y268004D01*
X178966Y268077D01*
X178901Y268152D01*
X178839Y268230D01*
X178781Y268310D01*
X178725Y268393D01*
X178673Y268477D01*
X178623Y268564D01*
X178578Y268652D01*
X178535Y268742D01*
X178496Y268834D01*
X178461Y268927D01*
X178429Y269021D01*
X178401Y269116D01*
X178376Y269212D01*
X178355Y269310D01*
X178338Y269408D01*
X178325Y269506D01*
X178316Y269605D01*
X178310Y269705D01*
X178308Y269804D01*
X178308Y276296D01*
X178310Y276395D01*
X178316Y276495D01*
X178325Y276594D01*
X178338Y276692D01*
X178355Y276790D01*
X178376Y276888D01*
X178401Y276984D01*
X178429Y277079D01*
X178461Y277173D01*
X178496Y277266D01*
X178535Y277358D01*
X178578Y277448D01*
X178623Y277536D01*
X178673Y277623D01*
X178725Y277707D01*
X178781Y277790D01*
X178839Y277870D01*
X178901Y277948D01*
X178966Y278023D01*
X179034Y278096D01*
X179104Y278166D01*
X179177Y278234D01*
X179252Y278299D01*
X179330Y278361D01*
X179410Y278419D01*
X179493Y278475D01*
X179577Y278527D01*
X179664Y278577D01*
X179752Y278622D01*
X179842Y278665D01*
X179934Y278704D01*
X180026Y278739D01*
X180121Y278771D01*
X180216Y278799D01*
X180312Y278824D01*
X180410Y278845D01*
X180508Y278862D01*
X180606Y278875D01*
X180705Y278884D01*
X180805Y278890D01*
X180904Y278892D01*
X183501Y278892D01*
X191436Y278892D02*
X191543Y278890D01*
X191649Y278884D01*
X191755Y278874D01*
X191861Y278861D01*
X191967Y278843D01*
X192071Y278822D01*
X192175Y278797D01*
X192278Y278768D01*
X192379Y278736D01*
X192479Y278699D01*
X192578Y278659D01*
X192676Y278616D01*
X192772Y278569D01*
X192866Y278518D01*
X192958Y278464D01*
X193048Y278407D01*
X193136Y278347D01*
X193221Y278283D01*
X193304Y278216D01*
X193385Y278146D01*
X193463Y278074D01*
X193539Y277998D01*
X193611Y277920D01*
X193681Y277839D01*
X193748Y277756D01*
X193812Y277671D01*
X193872Y277583D01*
X193929Y277493D01*
X193983Y277401D01*
X194034Y277307D01*
X194081Y277211D01*
X194124Y277113D01*
X194164Y277014D01*
X194201Y276914D01*
X194233Y276813D01*
X194262Y276710D01*
X194287Y276606D01*
X194308Y276502D01*
X194326Y276396D01*
X194339Y276290D01*
X194349Y276184D01*
X194355Y276078D01*
X194357Y275971D01*
X191436Y278892D02*
X191315Y278890D01*
X191194Y278884D01*
X191074Y278874D01*
X190953Y278861D01*
X190834Y278843D01*
X190714Y278822D01*
X190596Y278797D01*
X190479Y278768D01*
X190362Y278735D01*
X190247Y278699D01*
X190133Y278658D01*
X190020Y278615D01*
X189908Y278567D01*
X189799Y278516D01*
X189691Y278461D01*
X189584Y278403D01*
X189480Y278342D01*
X189378Y278277D01*
X189278Y278209D01*
X189180Y278138D01*
X189084Y278064D01*
X188991Y277987D01*
X188901Y277906D01*
X188813Y277823D01*
X188728Y277737D01*
X188645Y277648D01*
X188566Y277557D01*
X188489Y277463D01*
X188416Y277367D01*
X188346Y277269D01*
X188279Y277168D01*
X188215Y277065D01*
X188155Y276960D01*
X188098Y276853D01*
X188044Y276745D01*
X187994Y276635D01*
X187948Y276523D01*
X187905Y276410D01*
X187866Y276295D01*
X193384Y273699D02*
X193463Y273776D01*
X193539Y273857D01*
X193612Y273940D01*
X193682Y274025D01*
X193749Y274113D01*
X193813Y274203D01*
X193873Y274295D01*
X193930Y274390D01*
X193984Y274486D01*
X194035Y274584D01*
X194082Y274684D01*
X194126Y274786D01*
X194166Y274889D01*
X194202Y274993D01*
X194234Y275099D01*
X194263Y275205D01*
X194288Y275313D01*
X194310Y275421D01*
X194327Y275531D01*
X194341Y275640D01*
X194350Y275750D01*
X194356Y275861D01*
X194358Y275971D01*
X193384Y273699D02*
X187866Y267208D01*
X194357Y267208D01*
D15*
X484096Y190754D02*
X485338Y190754D01*
X484096Y190754D02*
X484026Y190756D01*
X483957Y190762D01*
X483888Y190772D01*
X483820Y190785D01*
X483752Y190803D01*
X483686Y190824D01*
X483621Y190849D01*
X483557Y190877D01*
X483495Y190909D01*
X483435Y190944D01*
X483377Y190983D01*
X483322Y191025D01*
X483268Y191070D01*
X483218Y191118D01*
X483170Y191168D01*
X483125Y191222D01*
X483083Y191277D01*
X483044Y191335D01*
X483009Y191395D01*
X482977Y191457D01*
X482949Y191521D01*
X482924Y191586D01*
X482903Y191652D01*
X482885Y191720D01*
X482872Y191788D01*
X482862Y191857D01*
X482856Y191926D01*
X482854Y191996D01*
X482854Y195100D01*
X482856Y195170D01*
X482862Y195239D01*
X482872Y195308D01*
X482885Y195376D01*
X482903Y195444D01*
X482924Y195510D01*
X482949Y195575D01*
X482977Y195639D01*
X483009Y195701D01*
X483044Y195761D01*
X483083Y195819D01*
X483125Y195874D01*
X483170Y195928D01*
X483218Y195978D01*
X483268Y196026D01*
X483322Y196071D01*
X483377Y196113D01*
X483435Y196152D01*
X483495Y196187D01*
X483557Y196219D01*
X483621Y196247D01*
X483686Y196272D01*
X483752Y196293D01*
X483820Y196311D01*
X483888Y196324D01*
X483957Y196334D01*
X484026Y196340D01*
X484096Y196342D01*
X485338Y196342D01*
X488684Y196342D02*
X487442Y191996D01*
X490547Y191996D01*
X489615Y193238D02*
X489615Y190754D01*
D14*
X132701Y267208D02*
X130104Y267208D01*
X130005Y267210D01*
X129905Y267216D01*
X129806Y267225D01*
X129708Y267238D01*
X129610Y267255D01*
X129512Y267276D01*
X129416Y267301D01*
X129321Y267329D01*
X129227Y267361D01*
X129134Y267396D01*
X129042Y267435D01*
X128952Y267478D01*
X128864Y267523D01*
X128777Y267573D01*
X128693Y267625D01*
X128610Y267681D01*
X128530Y267739D01*
X128452Y267801D01*
X128377Y267866D01*
X128304Y267934D01*
X128234Y268004D01*
X128166Y268077D01*
X128101Y268152D01*
X128039Y268230D01*
X127981Y268310D01*
X127925Y268393D01*
X127873Y268477D01*
X127823Y268564D01*
X127778Y268652D01*
X127735Y268742D01*
X127696Y268834D01*
X127661Y268927D01*
X127629Y269021D01*
X127601Y269116D01*
X127576Y269212D01*
X127555Y269310D01*
X127538Y269408D01*
X127525Y269506D01*
X127516Y269605D01*
X127510Y269705D01*
X127508Y269804D01*
X127508Y276296D01*
X127510Y276395D01*
X127516Y276495D01*
X127525Y276594D01*
X127538Y276692D01*
X127555Y276790D01*
X127576Y276888D01*
X127601Y276984D01*
X127629Y277079D01*
X127661Y277173D01*
X127696Y277266D01*
X127735Y277358D01*
X127778Y277448D01*
X127823Y277536D01*
X127873Y277623D01*
X127925Y277707D01*
X127981Y277790D01*
X128039Y277870D01*
X128101Y277948D01*
X128166Y278023D01*
X128234Y278096D01*
X128304Y278166D01*
X128377Y278234D01*
X128452Y278299D01*
X128530Y278361D01*
X128610Y278419D01*
X128693Y278475D01*
X128777Y278527D01*
X128864Y278577D01*
X128952Y278622D01*
X129042Y278665D01*
X129134Y278704D01*
X129226Y278739D01*
X129321Y278771D01*
X129416Y278799D01*
X129512Y278824D01*
X129610Y278845D01*
X129708Y278862D01*
X129806Y278875D01*
X129905Y278884D01*
X130005Y278890D01*
X130104Y278892D01*
X132701Y278892D01*
X137066Y273699D02*
X140961Y273699D01*
X141060Y273697D01*
X141160Y273691D01*
X141259Y273682D01*
X141357Y273669D01*
X141455Y273652D01*
X141553Y273631D01*
X141649Y273606D01*
X141744Y273578D01*
X141838Y273546D01*
X141931Y273511D01*
X142023Y273472D01*
X142113Y273429D01*
X142201Y273384D01*
X142288Y273334D01*
X142372Y273282D01*
X142455Y273226D01*
X142535Y273168D01*
X142613Y273106D01*
X142688Y273041D01*
X142761Y272973D01*
X142831Y272903D01*
X142899Y272830D01*
X142964Y272755D01*
X143026Y272677D01*
X143084Y272597D01*
X143140Y272514D01*
X143192Y272430D01*
X143242Y272343D01*
X143287Y272255D01*
X143330Y272165D01*
X143369Y272073D01*
X143404Y271980D01*
X143436Y271886D01*
X143464Y271791D01*
X143489Y271695D01*
X143510Y271597D01*
X143527Y271499D01*
X143540Y271401D01*
X143549Y271302D01*
X143555Y271202D01*
X143557Y271103D01*
X143557Y270454D01*
X143558Y270454D02*
X143556Y270341D01*
X143550Y270228D01*
X143540Y270115D01*
X143526Y270002D01*
X143509Y269890D01*
X143487Y269779D01*
X143462Y269669D01*
X143432Y269559D01*
X143399Y269451D01*
X143362Y269344D01*
X143322Y269238D01*
X143277Y269134D01*
X143229Y269031D01*
X143178Y268930D01*
X143123Y268831D01*
X143065Y268734D01*
X143003Y268639D01*
X142938Y268546D01*
X142870Y268456D01*
X142799Y268368D01*
X142724Y268282D01*
X142647Y268199D01*
X142567Y268119D01*
X142484Y268042D01*
X142398Y267967D01*
X142310Y267896D01*
X142220Y267828D01*
X142127Y267763D01*
X142032Y267701D01*
X141935Y267643D01*
X141836Y267588D01*
X141735Y267537D01*
X141632Y267489D01*
X141528Y267444D01*
X141422Y267404D01*
X141315Y267367D01*
X141207Y267334D01*
X141097Y267304D01*
X140987Y267279D01*
X140876Y267257D01*
X140764Y267240D01*
X140651Y267226D01*
X140538Y267216D01*
X140425Y267210D01*
X140312Y267208D01*
X140199Y267210D01*
X140086Y267216D01*
X139973Y267226D01*
X139860Y267240D01*
X139748Y267257D01*
X139637Y267279D01*
X139527Y267304D01*
X139417Y267334D01*
X139309Y267367D01*
X139202Y267404D01*
X139096Y267444D01*
X138992Y267489D01*
X138889Y267537D01*
X138788Y267588D01*
X138689Y267643D01*
X138592Y267701D01*
X138497Y267763D01*
X138404Y267828D01*
X138314Y267896D01*
X138226Y267967D01*
X138140Y268042D01*
X138057Y268119D01*
X137977Y268199D01*
X137900Y268282D01*
X137825Y268368D01*
X137754Y268456D01*
X137686Y268546D01*
X137621Y268639D01*
X137559Y268734D01*
X137501Y268831D01*
X137446Y268930D01*
X137395Y269031D01*
X137347Y269134D01*
X137302Y269238D01*
X137262Y269344D01*
X137225Y269451D01*
X137192Y269559D01*
X137162Y269669D01*
X137137Y269779D01*
X137115Y269890D01*
X137098Y270002D01*
X137084Y270115D01*
X137074Y270228D01*
X137068Y270341D01*
X137066Y270454D01*
X137066Y273699D01*
X137068Y273842D01*
X137074Y273985D01*
X137084Y274128D01*
X137098Y274270D01*
X137115Y274412D01*
X137137Y274554D01*
X137162Y274695D01*
X137192Y274835D01*
X137225Y274974D01*
X137262Y275112D01*
X137303Y275249D01*
X137347Y275385D01*
X137396Y275520D01*
X137448Y275653D01*
X137503Y275785D01*
X137563Y275915D01*
X137626Y276044D01*
X137692Y276171D01*
X137762Y276295D01*
X137835Y276418D01*
X137912Y276539D01*
X137992Y276658D01*
X138075Y276774D01*
X138161Y276889D01*
X138250Y277000D01*
X138343Y277110D01*
X138438Y277216D01*
X138537Y277320D01*
X138638Y277421D01*
X138742Y277520D01*
X138848Y277615D01*
X138958Y277708D01*
X139069Y277797D01*
X139184Y277883D01*
X139300Y277966D01*
X139419Y278046D01*
X139540Y278123D01*
X139662Y278196D01*
X139787Y278266D01*
X139914Y278332D01*
X140043Y278395D01*
X140173Y278455D01*
X140305Y278510D01*
X140438Y278562D01*
X140573Y278611D01*
X140709Y278655D01*
X140846Y278696D01*
X140984Y278733D01*
X141123Y278766D01*
X141263Y278796D01*
X141404Y278821D01*
X141546Y278843D01*
X141688Y278860D01*
X141830Y278874D01*
X141973Y278884D01*
X142116Y278890D01*
X142259Y278892D01*
D16*
X452600Y385600D02*
X512600Y385600D01*
X512600Y325600D02*
X452600Y325600D01*
X452600Y345600D02*
X452600Y365600D01*
X512600Y365600D02*
X512600Y345600D01*
D17*
X528600Y335600D03*
D18*
X528602Y335538D01*
X528608Y335477D01*
X528617Y335416D01*
X528630Y335356D01*
X528647Y335297D01*
X528668Y335239D01*
X528692Y335182D01*
X528719Y335127D01*
X528750Y335074D01*
X528784Y335022D01*
X528821Y334973D01*
X528861Y334926D01*
X528904Y334882D01*
X528949Y334841D01*
X528997Y334802D01*
X529048Y334766D01*
X529100Y334734D01*
X529154Y334705D01*
X529210Y334679D01*
X529268Y334657D01*
X529326Y334638D01*
X529386Y334623D01*
X529447Y334612D01*
X529508Y334604D01*
X529569Y334600D01*
X529631Y334600D01*
X529692Y334604D01*
X529753Y334612D01*
X529814Y334623D01*
X529874Y334638D01*
X529932Y334657D01*
X529990Y334679D01*
X530046Y334705D01*
X530100Y334734D01*
X530152Y334766D01*
X530203Y334802D01*
X530251Y334841D01*
X530296Y334882D01*
X530339Y334926D01*
X530379Y334973D01*
X530416Y335022D01*
X530450Y335074D01*
X530481Y335127D01*
X530508Y335182D01*
X530532Y335239D01*
X530553Y335297D01*
X530570Y335356D01*
X530583Y335416D01*
X530592Y335477D01*
X530598Y335538D01*
X530600Y335600D01*
D17*
X530600Y335600D03*
D18*
X530598Y335662D01*
X530592Y335723D01*
X530583Y335784D01*
X530570Y335844D01*
X530553Y335903D01*
X530532Y335961D01*
X530508Y336018D01*
X530481Y336073D01*
X530450Y336126D01*
X530416Y336178D01*
X530379Y336227D01*
X530339Y336274D01*
X530296Y336318D01*
X530251Y336359D01*
X530203Y336398D01*
X530152Y336434D01*
X530100Y336466D01*
X530046Y336495D01*
X529990Y336521D01*
X529932Y336543D01*
X529874Y336562D01*
X529814Y336577D01*
X529753Y336588D01*
X529692Y336596D01*
X529631Y336600D01*
X529569Y336600D01*
X529508Y336596D01*
X529447Y336588D01*
X529386Y336577D01*
X529326Y336562D01*
X529268Y336543D01*
X529210Y336521D01*
X529154Y336495D01*
X529100Y336466D01*
X529048Y336434D01*
X528997Y336398D01*
X528949Y336359D01*
X528904Y336318D01*
X528861Y336274D01*
X528821Y336227D01*
X528784Y336178D01*
X528750Y336126D01*
X528719Y336073D01*
X528692Y336018D01*
X528668Y335961D01*
X528647Y335903D01*
X528630Y335844D01*
X528617Y335784D01*
X528608Y335723D01*
X528602Y335662D01*
X528600Y335600D01*
D14*
X437445Y400558D02*
X437445Y412242D01*
X440690Y412242D01*
X440803Y412240D01*
X440916Y412234D01*
X441029Y412224D01*
X441142Y412210D01*
X441254Y412193D01*
X441365Y412171D01*
X441475Y412146D01*
X441585Y412116D01*
X441693Y412083D01*
X441800Y412046D01*
X441906Y412006D01*
X442010Y411961D01*
X442113Y411913D01*
X442214Y411862D01*
X442313Y411807D01*
X442410Y411749D01*
X442505Y411687D01*
X442598Y411622D01*
X442688Y411554D01*
X442776Y411483D01*
X442862Y411408D01*
X442945Y411331D01*
X443025Y411251D01*
X443102Y411168D01*
X443177Y411082D01*
X443248Y410994D01*
X443316Y410904D01*
X443381Y410811D01*
X443443Y410716D01*
X443501Y410619D01*
X443556Y410520D01*
X443607Y410419D01*
X443655Y410316D01*
X443700Y410212D01*
X443740Y410106D01*
X443777Y409999D01*
X443810Y409891D01*
X443840Y409781D01*
X443865Y409671D01*
X443887Y409560D01*
X443904Y409448D01*
X443918Y409335D01*
X443928Y409222D01*
X443934Y409109D01*
X443936Y408996D01*
X443936Y403804D01*
X443934Y403691D01*
X443928Y403578D01*
X443918Y403465D01*
X443904Y403352D01*
X443887Y403240D01*
X443865Y403129D01*
X443840Y403019D01*
X443810Y402909D01*
X443777Y402801D01*
X443740Y402694D01*
X443700Y402588D01*
X443655Y402484D01*
X443607Y402381D01*
X443556Y402280D01*
X443501Y402181D01*
X443443Y402084D01*
X443381Y401989D01*
X443316Y401896D01*
X443248Y401806D01*
X443177Y401718D01*
X443102Y401632D01*
X443025Y401549D01*
X442945Y401469D01*
X442862Y401392D01*
X442776Y401317D01*
X442688Y401246D01*
X442598Y401178D01*
X442505Y401113D01*
X442410Y401051D01*
X442313Y400993D01*
X442214Y400938D01*
X442113Y400887D01*
X442010Y400839D01*
X441906Y400794D01*
X441800Y400754D01*
X441693Y400717D01*
X441585Y400684D01*
X441475Y400654D01*
X441365Y400629D01*
X441254Y400607D01*
X441142Y400590D01*
X441029Y400576D01*
X440916Y400566D01*
X440803Y400560D01*
X440690Y400558D01*
X437445Y400558D01*
X449255Y403804D02*
X449255Y408996D01*
X449257Y409109D01*
X449263Y409222D01*
X449273Y409335D01*
X449287Y409448D01*
X449304Y409560D01*
X449326Y409671D01*
X449351Y409781D01*
X449381Y409891D01*
X449414Y409999D01*
X449451Y410106D01*
X449491Y410212D01*
X449536Y410316D01*
X449584Y410419D01*
X449635Y410520D01*
X449690Y410619D01*
X449748Y410716D01*
X449810Y410811D01*
X449875Y410904D01*
X449943Y410994D01*
X450014Y411082D01*
X450089Y411168D01*
X450166Y411251D01*
X450246Y411331D01*
X450329Y411408D01*
X450415Y411483D01*
X450503Y411554D01*
X450593Y411622D01*
X450686Y411687D01*
X450781Y411749D01*
X450878Y411807D01*
X450977Y411862D01*
X451078Y411913D01*
X451181Y411961D01*
X451285Y412006D01*
X451391Y412046D01*
X451498Y412083D01*
X451606Y412116D01*
X451716Y412146D01*
X451826Y412171D01*
X451937Y412193D01*
X452049Y412210D01*
X452162Y412224D01*
X452275Y412234D01*
X452388Y412240D01*
X452501Y412242D01*
X452614Y412240D01*
X452727Y412234D01*
X452840Y412224D01*
X452953Y412210D01*
X453065Y412193D01*
X453176Y412171D01*
X453286Y412146D01*
X453396Y412116D01*
X453504Y412083D01*
X453611Y412046D01*
X453717Y412006D01*
X453821Y411961D01*
X453924Y411913D01*
X454025Y411862D01*
X454124Y411807D01*
X454221Y411749D01*
X454316Y411687D01*
X454409Y411622D01*
X454499Y411554D01*
X454587Y411483D01*
X454673Y411408D01*
X454756Y411331D01*
X454836Y411251D01*
X454913Y411168D01*
X454988Y411082D01*
X455059Y410994D01*
X455127Y410904D01*
X455192Y410811D01*
X455254Y410716D01*
X455312Y410619D01*
X455367Y410520D01*
X455418Y410419D01*
X455466Y410316D01*
X455511Y410212D01*
X455551Y410106D01*
X455588Y409999D01*
X455621Y409891D01*
X455651Y409781D01*
X455676Y409671D01*
X455698Y409560D01*
X455715Y409448D01*
X455729Y409335D01*
X455739Y409222D01*
X455745Y409109D01*
X455747Y408996D01*
X455747Y403804D01*
X455745Y403691D01*
X455739Y403578D01*
X455729Y403465D01*
X455715Y403352D01*
X455698Y403240D01*
X455676Y403129D01*
X455651Y403019D01*
X455621Y402909D01*
X455588Y402801D01*
X455551Y402694D01*
X455511Y402588D01*
X455466Y402484D01*
X455418Y402381D01*
X455367Y402280D01*
X455312Y402181D01*
X455254Y402084D01*
X455192Y401989D01*
X455127Y401896D01*
X455059Y401806D01*
X454988Y401718D01*
X454913Y401632D01*
X454836Y401549D01*
X454756Y401469D01*
X454673Y401392D01*
X454587Y401317D01*
X454499Y401246D01*
X454409Y401178D01*
X454316Y401113D01*
X454221Y401051D01*
X454124Y400993D01*
X454025Y400938D01*
X453924Y400887D01*
X453821Y400839D01*
X453717Y400794D01*
X453611Y400754D01*
X453504Y400717D01*
X453396Y400684D01*
X453286Y400654D01*
X453176Y400629D01*
X453065Y400607D01*
X452953Y400590D01*
X452840Y400576D01*
X452727Y400566D01*
X452614Y400560D01*
X452501Y400558D01*
X452388Y400560D01*
X452275Y400566D01*
X452162Y400576D01*
X452049Y400590D01*
X451937Y400607D01*
X451826Y400629D01*
X451716Y400654D01*
X451606Y400684D01*
X451498Y400717D01*
X451391Y400754D01*
X451285Y400794D01*
X451181Y400839D01*
X451078Y400887D01*
X450977Y400938D01*
X450878Y400993D01*
X450781Y401051D01*
X450686Y401113D01*
X450593Y401178D01*
X450503Y401246D01*
X450415Y401317D01*
X450329Y401392D01*
X450246Y401469D01*
X450166Y401549D01*
X450089Y401632D01*
X450014Y401718D01*
X449943Y401806D01*
X449875Y401896D01*
X449810Y401989D01*
X449748Y402084D01*
X449690Y402181D01*
X449635Y402280D01*
X449584Y402381D01*
X449536Y402484D01*
X449491Y402588D01*
X449451Y402694D01*
X449414Y402801D01*
X449381Y402909D01*
X449351Y403019D01*
X449326Y403129D01*
X449304Y403240D01*
X449287Y403352D01*
X449273Y403465D01*
X449263Y403578D01*
X449257Y403691D01*
X449255Y403804D01*
X460262Y412242D02*
X462859Y400558D01*
X465455Y408347D01*
X468051Y400558D01*
X470648Y412242D01*
X475544Y412242D02*
X475544Y400558D01*
X482036Y400558D02*
X475544Y412242D01*
X482036Y412242D02*
X482036Y400558D01*
D19*
X527800Y98700D02*
X527800Y53700D01*
X485300Y53700D01*
X462800Y53700D01*
X462800Y76200D01*
X462800Y98700D01*
X527800Y98700D01*
X485300Y76200D02*
X462800Y76200D01*
X485300Y76200D02*
X485300Y53700D01*
D20*
X454411Y58020D02*
X446029Y58020D01*
X454411Y57089D02*
X454411Y58952D01*
X446029Y58952D02*
X446029Y57089D01*
X454411Y65496D02*
X454409Y65580D01*
X454404Y65663D01*
X454394Y65746D01*
X454381Y65829D01*
X454364Y65911D01*
X454344Y65992D01*
X454320Y66072D01*
X454292Y66151D01*
X454261Y66228D01*
X454227Y66304D01*
X454189Y66379D01*
X454147Y66452D01*
X454103Y66522D01*
X454055Y66591D01*
X454005Y66658D01*
X453951Y66722D01*
X453895Y66783D01*
X453835Y66843D01*
X453774Y66899D01*
X453710Y66953D01*
X453643Y67003D01*
X453574Y67051D01*
X453504Y67095D01*
X453431Y67137D01*
X453356Y67175D01*
X453280Y67209D01*
X453203Y67240D01*
X453124Y67268D01*
X453044Y67292D01*
X452963Y67312D01*
X452881Y67329D01*
X452798Y67342D01*
X452715Y67352D01*
X452632Y67357D01*
X452548Y67359D01*
X454411Y65496D02*
X454409Y65372D01*
X454403Y65248D01*
X454393Y65124D01*
X454380Y65000D01*
X454362Y64877D01*
X454341Y64755D01*
X454315Y64633D01*
X454286Y64512D01*
X454253Y64392D01*
X454216Y64274D01*
X454176Y64156D01*
X454132Y64040D01*
X454084Y63925D01*
X454033Y63812D01*
X453978Y63701D01*
X453919Y63591D01*
X453857Y63483D01*
X453792Y63378D01*
X453724Y63274D01*
X453652Y63172D01*
X453577Y63073D01*
X453499Y62977D01*
X453418Y62882D01*
X453334Y62791D01*
X453247Y62702D01*
X447892Y62935D02*
X447808Y62937D01*
X447725Y62942D01*
X447642Y62952D01*
X447559Y62965D01*
X447477Y62982D01*
X447396Y63002D01*
X447316Y63026D01*
X447237Y63054D01*
X447160Y63085D01*
X447084Y63119D01*
X447009Y63157D01*
X446936Y63199D01*
X446866Y63243D01*
X446797Y63291D01*
X446730Y63341D01*
X446666Y63395D01*
X446605Y63451D01*
X446545Y63511D01*
X446489Y63572D01*
X446435Y63636D01*
X446385Y63703D01*
X446337Y63772D01*
X446293Y63842D01*
X446251Y63915D01*
X446213Y63990D01*
X446179Y64066D01*
X446148Y64143D01*
X446120Y64222D01*
X446096Y64302D01*
X446076Y64383D01*
X446059Y64465D01*
X446046Y64548D01*
X446036Y64631D01*
X446031Y64714D01*
X446029Y64798D01*
X446031Y64910D01*
X446036Y65023D01*
X446045Y65135D01*
X446058Y65246D01*
X446074Y65358D01*
X446094Y65468D01*
X446117Y65578D01*
X446144Y65687D01*
X446174Y65795D01*
X446208Y65903D01*
X446245Y66009D01*
X446286Y66113D01*
X446330Y66217D01*
X446377Y66319D01*
X446428Y66419D01*
X446482Y66518D01*
X446539Y66615D01*
X446599Y66710D01*
X446662Y66803D01*
X446728Y66894D01*
X449522Y63866D02*
X449477Y63794D01*
X449429Y63723D01*
X449377Y63655D01*
X449323Y63589D01*
X449266Y63526D01*
X449206Y63465D01*
X449143Y63407D01*
X449077Y63352D01*
X449010Y63300D01*
X448940Y63252D01*
X448868Y63206D01*
X448793Y63164D01*
X448717Y63125D01*
X448640Y63089D01*
X448561Y63057D01*
X448480Y63029D01*
X448398Y63004D01*
X448315Y62983D01*
X448232Y62966D01*
X448147Y62952D01*
X448063Y62943D01*
X447977Y62937D01*
X447892Y62935D01*
X450918Y66428D02*
X450963Y66500D01*
X451011Y66571D01*
X451063Y66639D01*
X451117Y66705D01*
X451174Y66768D01*
X451234Y66829D01*
X451297Y66887D01*
X451363Y66942D01*
X451430Y66994D01*
X451500Y67042D01*
X451572Y67088D01*
X451647Y67130D01*
X451723Y67169D01*
X451800Y67205D01*
X451879Y67237D01*
X451960Y67265D01*
X452042Y67290D01*
X452125Y67311D01*
X452208Y67328D01*
X452293Y67342D01*
X452377Y67351D01*
X452463Y67357D01*
X452548Y67359D01*
X450919Y66428D02*
X449522Y63867D01*
X446029Y72062D02*
X454411Y72062D01*
X446029Y72062D02*
X446029Y74391D01*
X446031Y74486D01*
X446037Y74581D01*
X446046Y74675D01*
X446060Y74769D01*
X446077Y74863D01*
X446098Y74955D01*
X446123Y75047D01*
X446152Y75137D01*
X446184Y75227D01*
X446220Y75315D01*
X446260Y75401D01*
X446302Y75486D01*
X446349Y75569D01*
X446399Y75650D01*
X446452Y75728D01*
X446508Y75805D01*
X446567Y75879D01*
X446629Y75951D01*
X446694Y76020D01*
X446762Y76087D01*
X446832Y76150D01*
X446906Y76211D01*
X446981Y76269D01*
X447059Y76323D01*
X447139Y76375D01*
X447221Y76423D01*
X447304Y76467D01*
X447390Y76509D01*
X447477Y76546D01*
X447566Y76580D01*
X447656Y76611D01*
X447747Y76638D01*
X447839Y76661D01*
X447932Y76680D01*
X448026Y76695D01*
X448120Y76707D01*
X448215Y76715D01*
X448310Y76719D01*
X448404Y76719D01*
X448499Y76715D01*
X448594Y76707D01*
X448688Y76695D01*
X448782Y76680D01*
X448875Y76661D01*
X448967Y76638D01*
X449058Y76611D01*
X449148Y76580D01*
X449237Y76546D01*
X449324Y76509D01*
X449410Y76467D01*
X449493Y76423D01*
X449575Y76375D01*
X449655Y76323D01*
X449733Y76269D01*
X449808Y76211D01*
X449882Y76150D01*
X449952Y76087D01*
X450020Y76020D01*
X450085Y75951D01*
X450147Y75879D01*
X450206Y75805D01*
X450262Y75728D01*
X450315Y75650D01*
X450365Y75569D01*
X450412Y75486D01*
X450454Y75401D01*
X450494Y75315D01*
X450530Y75227D01*
X450562Y75137D01*
X450591Y75047D01*
X450616Y74955D01*
X450637Y74863D01*
X450654Y74769D01*
X450668Y74675D01*
X450677Y74581D01*
X450683Y74486D01*
X450685Y74391D01*
X450686Y74391D02*
X450686Y72062D01*
X455342Y80237D02*
X455342Y83962D01*
X454411Y88305D02*
X446029Y88305D01*
X449754Y88305D02*
X449754Y92962D01*
X446029Y92962D02*
X454411Y92962D01*
X454411Y98088D02*
X454411Y101813D01*
X454411Y98088D02*
X446029Y98088D01*
X446029Y101813D01*
X449754Y100882D02*
X449754Y98088D01*
X454411Y105213D02*
X446029Y108007D01*
X454411Y110801D01*
X452316Y110103D02*
X452316Y105912D01*
X454411Y115128D02*
X446029Y115128D01*
X446029Y117456D01*
X446031Y117550D01*
X446037Y117643D01*
X446046Y117737D01*
X446059Y117829D01*
X446076Y117922D01*
X446097Y118013D01*
X446121Y118104D01*
X446149Y118193D01*
X446180Y118282D01*
X446215Y118369D01*
X446254Y118454D01*
X446296Y118538D01*
X446341Y118620D01*
X446389Y118700D01*
X446441Y118778D01*
X446496Y118855D01*
X446554Y118928D01*
X446614Y119000D01*
X446678Y119069D01*
X446744Y119135D01*
X446813Y119199D01*
X446885Y119259D01*
X446958Y119317D01*
X447035Y119372D01*
X447113Y119424D01*
X447193Y119472D01*
X447275Y119517D01*
X447359Y119559D01*
X447445Y119598D01*
X447532Y119633D01*
X447620Y119664D01*
X447709Y119692D01*
X447800Y119716D01*
X447891Y119737D01*
X447984Y119754D01*
X448076Y119767D01*
X448170Y119776D01*
X448263Y119782D01*
X448357Y119784D01*
X452083Y119784D01*
X452177Y119782D01*
X452270Y119776D01*
X452364Y119767D01*
X452456Y119754D01*
X452549Y119737D01*
X452640Y119716D01*
X452731Y119692D01*
X452820Y119664D01*
X452909Y119633D01*
X452995Y119598D01*
X453081Y119559D01*
X453165Y119517D01*
X453247Y119472D01*
X453327Y119424D01*
X453405Y119372D01*
X453482Y119317D01*
X453555Y119259D01*
X453627Y119199D01*
X453696Y119135D01*
X453762Y119069D01*
X453826Y119000D01*
X453886Y118928D01*
X453944Y118855D01*
X453999Y118778D01*
X454051Y118700D01*
X454099Y118620D01*
X454144Y118538D01*
X454186Y118454D01*
X454225Y118368D01*
X454260Y118282D01*
X454291Y118193D01*
X454319Y118104D01*
X454343Y118013D01*
X454364Y117922D01*
X454381Y117829D01*
X454394Y117737D01*
X454403Y117643D01*
X454409Y117550D01*
X454411Y117456D01*
X454411Y115128D01*
X454411Y124910D02*
X454411Y128635D01*
X454411Y124910D02*
X446029Y124910D01*
X446029Y128635D01*
X449754Y127704D02*
X449754Y124910D01*
X446029Y132900D02*
X454411Y132900D01*
X446029Y132900D02*
X446029Y135228D01*
X446031Y135323D01*
X446037Y135418D01*
X446046Y135512D01*
X446060Y135606D01*
X446077Y135700D01*
X446098Y135792D01*
X446123Y135884D01*
X446152Y135974D01*
X446184Y136064D01*
X446220Y136152D01*
X446260Y136238D01*
X446302Y136323D01*
X446349Y136406D01*
X446399Y136487D01*
X446452Y136565D01*
X446508Y136642D01*
X446567Y136716D01*
X446629Y136788D01*
X446694Y136857D01*
X446762Y136924D01*
X446832Y136987D01*
X446906Y137048D01*
X446981Y137106D01*
X447059Y137160D01*
X447139Y137212D01*
X447221Y137260D01*
X447304Y137304D01*
X447390Y137346D01*
X447477Y137383D01*
X447566Y137417D01*
X447656Y137448D01*
X447747Y137475D01*
X447839Y137498D01*
X447932Y137517D01*
X448026Y137532D01*
X448120Y137544D01*
X448215Y137552D01*
X448310Y137556D01*
X448404Y137556D01*
X448499Y137552D01*
X448594Y137544D01*
X448688Y137532D01*
X448782Y137517D01*
X448875Y137498D01*
X448967Y137475D01*
X449058Y137448D01*
X449148Y137417D01*
X449237Y137383D01*
X449324Y137346D01*
X449410Y137304D01*
X449493Y137260D01*
X449575Y137212D01*
X449655Y137160D01*
X449733Y137106D01*
X449808Y137048D01*
X449882Y136987D01*
X449952Y136924D01*
X450020Y136857D01*
X450085Y136788D01*
X450147Y136716D01*
X450206Y136642D01*
X450262Y136565D01*
X450315Y136487D01*
X450365Y136406D01*
X450412Y136323D01*
X450454Y136238D01*
X450494Y136152D01*
X450530Y136064D01*
X450562Y135974D01*
X450591Y135884D01*
X450616Y135792D01*
X450637Y135700D01*
X450654Y135606D01*
X450668Y135512D01*
X450677Y135418D01*
X450683Y135323D01*
X450685Y135228D01*
X450686Y135228D02*
X450686Y132900D01*
X450686Y135694D02*
X454411Y137557D01*
D16*
X258600Y385600D02*
X198600Y385600D01*
X198600Y325600D02*
X258600Y325600D01*
X198600Y345600D02*
X198600Y365600D01*
X258600Y365600D02*
X258600Y345600D01*
D17*
X274600Y335600D03*
D18*
X274602Y335538D01*
X274608Y335477D01*
X274617Y335416D01*
X274630Y335356D01*
X274647Y335297D01*
X274668Y335239D01*
X274692Y335182D01*
X274719Y335127D01*
X274750Y335074D01*
X274784Y335022D01*
X274821Y334973D01*
X274861Y334926D01*
X274904Y334882D01*
X274949Y334841D01*
X274997Y334802D01*
X275048Y334766D01*
X275100Y334734D01*
X275154Y334705D01*
X275210Y334679D01*
X275268Y334657D01*
X275326Y334638D01*
X275386Y334623D01*
X275447Y334612D01*
X275508Y334604D01*
X275569Y334600D01*
X275631Y334600D01*
X275692Y334604D01*
X275753Y334612D01*
X275814Y334623D01*
X275874Y334638D01*
X275932Y334657D01*
X275990Y334679D01*
X276046Y334705D01*
X276100Y334734D01*
X276152Y334766D01*
X276203Y334802D01*
X276251Y334841D01*
X276296Y334882D01*
X276339Y334926D01*
X276379Y334973D01*
X276416Y335022D01*
X276450Y335074D01*
X276481Y335127D01*
X276508Y335182D01*
X276532Y335239D01*
X276553Y335297D01*
X276570Y335356D01*
X276583Y335416D01*
X276592Y335477D01*
X276598Y335538D01*
X276600Y335600D01*
D17*
X276600Y335600D03*
D18*
X276598Y335662D01*
X276592Y335723D01*
X276583Y335784D01*
X276570Y335844D01*
X276553Y335903D01*
X276532Y335961D01*
X276508Y336018D01*
X276481Y336073D01*
X276450Y336126D01*
X276416Y336178D01*
X276379Y336227D01*
X276339Y336274D01*
X276296Y336318D01*
X276251Y336359D01*
X276203Y336398D01*
X276152Y336434D01*
X276100Y336466D01*
X276046Y336495D01*
X275990Y336521D01*
X275932Y336543D01*
X275874Y336562D01*
X275814Y336577D01*
X275753Y336588D01*
X275692Y336596D01*
X275631Y336600D01*
X275569Y336600D01*
X275508Y336596D01*
X275447Y336588D01*
X275386Y336577D01*
X275326Y336562D01*
X275268Y336543D01*
X275210Y336521D01*
X275154Y336495D01*
X275100Y336466D01*
X275048Y336434D01*
X274997Y336398D01*
X274949Y336359D01*
X274904Y336318D01*
X274861Y336274D01*
X274821Y336227D01*
X274784Y336178D01*
X274750Y336126D01*
X274719Y336073D01*
X274692Y336018D01*
X274668Y335961D01*
X274647Y335903D01*
X274630Y335844D01*
X274617Y335784D01*
X274608Y335723D01*
X274602Y335662D01*
X274600Y335600D01*
D14*
X202424Y400558D02*
X202424Y412242D01*
X206319Y405751D01*
X210213Y412242D01*
X210213Y400558D01*
X216050Y400558D02*
X221243Y400558D01*
X216050Y400558D02*
X216050Y412242D01*
X221243Y412242D01*
X219944Y407049D02*
X216050Y407049D01*
X225933Y412242D02*
X225933Y400558D01*
X232424Y400558D02*
X225933Y412242D01*
X232424Y412242D02*
X232424Y400558D01*
X238125Y403804D02*
X238125Y412242D01*
X238125Y403804D02*
X238127Y403691D01*
X238133Y403578D01*
X238143Y403465D01*
X238157Y403352D01*
X238174Y403240D01*
X238196Y403129D01*
X238221Y403019D01*
X238251Y402909D01*
X238284Y402801D01*
X238321Y402694D01*
X238361Y402588D01*
X238406Y402484D01*
X238454Y402381D01*
X238505Y402280D01*
X238560Y402181D01*
X238618Y402084D01*
X238680Y401989D01*
X238745Y401896D01*
X238813Y401806D01*
X238884Y401718D01*
X238959Y401632D01*
X239036Y401549D01*
X239116Y401469D01*
X239199Y401392D01*
X239285Y401317D01*
X239373Y401246D01*
X239463Y401178D01*
X239556Y401113D01*
X239651Y401051D01*
X239748Y400993D01*
X239847Y400938D01*
X239948Y400887D01*
X240051Y400839D01*
X240155Y400794D01*
X240261Y400754D01*
X240368Y400717D01*
X240476Y400684D01*
X240586Y400654D01*
X240696Y400629D01*
X240807Y400607D01*
X240919Y400590D01*
X241032Y400576D01*
X241145Y400566D01*
X241258Y400560D01*
X241371Y400558D01*
X241484Y400560D01*
X241597Y400566D01*
X241710Y400576D01*
X241823Y400590D01*
X241935Y400607D01*
X242046Y400629D01*
X242156Y400654D01*
X242266Y400684D01*
X242374Y400717D01*
X242481Y400754D01*
X242587Y400794D01*
X242691Y400839D01*
X242794Y400887D01*
X242895Y400938D01*
X242994Y400993D01*
X243091Y401051D01*
X243186Y401113D01*
X243279Y401178D01*
X243369Y401246D01*
X243457Y401317D01*
X243543Y401392D01*
X243626Y401469D01*
X243706Y401549D01*
X243783Y401632D01*
X243858Y401718D01*
X243929Y401806D01*
X243997Y401896D01*
X244062Y401989D01*
X244124Y402084D01*
X244182Y402181D01*
X244237Y402280D01*
X244288Y402381D01*
X244336Y402484D01*
X244381Y402588D01*
X244421Y402694D01*
X244458Y402801D01*
X244491Y402909D01*
X244521Y403019D01*
X244546Y403129D01*
X244568Y403240D01*
X244585Y403352D01*
X244599Y403465D01*
X244609Y403578D01*
X244615Y403691D01*
X244617Y403804D01*
X244616Y403804D02*
X244616Y412242D01*
D15*
X489204Y158242D02*
X489204Y152654D01*
X489204Y158242D02*
X490756Y158242D01*
X490833Y158240D01*
X490911Y158234D01*
X490987Y158225D01*
X491064Y158211D01*
X491139Y158194D01*
X491213Y158173D01*
X491287Y158148D01*
X491359Y158120D01*
X491429Y158088D01*
X491498Y158053D01*
X491565Y158014D01*
X491630Y157972D01*
X491693Y157927D01*
X491754Y157879D01*
X491812Y157828D01*
X491867Y157774D01*
X491920Y157717D01*
X491969Y157658D01*
X492016Y157596D01*
X492060Y157532D01*
X492100Y157466D01*
X492137Y157398D01*
X492171Y157328D01*
X492201Y157257D01*
X492227Y157184D01*
X492250Y157110D01*
X492269Y157035D01*
X492284Y156960D01*
X492296Y156883D01*
X492304Y156806D01*
X492308Y156729D01*
X492308Y156651D01*
X492304Y156574D01*
X492296Y156497D01*
X492284Y156420D01*
X492269Y156345D01*
X492250Y156270D01*
X492227Y156196D01*
X492201Y156123D01*
X492171Y156052D01*
X492137Y155982D01*
X492100Y155914D01*
X492060Y155848D01*
X492016Y155784D01*
X491969Y155722D01*
X491920Y155663D01*
X491867Y155606D01*
X491812Y155552D01*
X491754Y155501D01*
X491693Y155453D01*
X491630Y155408D01*
X491565Y155366D01*
X491498Y155327D01*
X491429Y155292D01*
X491359Y155260D01*
X491287Y155232D01*
X491213Y155207D01*
X491139Y155186D01*
X491064Y155169D01*
X490987Y155155D01*
X490911Y155146D01*
X490833Y155140D01*
X490756Y155138D01*
X489204Y155138D01*
X491067Y155138D02*
X492308Y152654D01*
X494654Y157000D02*
X496207Y158242D01*
X496207Y152654D01*
X497759Y152654D02*
X494654Y152654D01*
D16*
X131600Y385600D02*
X71600Y385600D01*
X71600Y325600D02*
X131600Y325600D01*
X71600Y345600D02*
X71600Y365600D01*
X131600Y365600D02*
X131600Y345600D01*
D17*
X147600Y335600D03*
D18*
X147602Y335538D01*
X147608Y335477D01*
X147617Y335416D01*
X147630Y335356D01*
X147647Y335297D01*
X147668Y335239D01*
X147692Y335182D01*
X147719Y335127D01*
X147750Y335074D01*
X147784Y335022D01*
X147821Y334973D01*
X147861Y334926D01*
X147904Y334882D01*
X147949Y334841D01*
X147997Y334802D01*
X148048Y334766D01*
X148100Y334734D01*
X148154Y334705D01*
X148210Y334679D01*
X148268Y334657D01*
X148326Y334638D01*
X148386Y334623D01*
X148447Y334612D01*
X148508Y334604D01*
X148569Y334600D01*
X148631Y334600D01*
X148692Y334604D01*
X148753Y334612D01*
X148814Y334623D01*
X148874Y334638D01*
X148932Y334657D01*
X148990Y334679D01*
X149046Y334705D01*
X149100Y334734D01*
X149152Y334766D01*
X149203Y334802D01*
X149251Y334841D01*
X149296Y334882D01*
X149339Y334926D01*
X149379Y334973D01*
X149416Y335022D01*
X149450Y335074D01*
X149481Y335127D01*
X149508Y335182D01*
X149532Y335239D01*
X149553Y335297D01*
X149570Y335356D01*
X149583Y335416D01*
X149592Y335477D01*
X149598Y335538D01*
X149600Y335600D01*
D17*
X149600Y335600D03*
D18*
X149598Y335662D01*
X149592Y335723D01*
X149583Y335784D01*
X149570Y335844D01*
X149553Y335903D01*
X149532Y335961D01*
X149508Y336018D01*
X149481Y336073D01*
X149450Y336126D01*
X149416Y336178D01*
X149379Y336227D01*
X149339Y336274D01*
X149296Y336318D01*
X149251Y336359D01*
X149203Y336398D01*
X149152Y336434D01*
X149100Y336466D01*
X149046Y336495D01*
X148990Y336521D01*
X148932Y336543D01*
X148874Y336562D01*
X148814Y336577D01*
X148753Y336588D01*
X148692Y336596D01*
X148631Y336600D01*
X148569Y336600D01*
X148508Y336596D01*
X148447Y336588D01*
X148386Y336577D01*
X148326Y336562D01*
X148268Y336543D01*
X148210Y336521D01*
X148154Y336495D01*
X148100Y336466D01*
X148048Y336434D01*
X147997Y336398D01*
X147949Y336359D01*
X147904Y336318D01*
X147861Y336274D01*
X147821Y336227D01*
X147784Y336178D01*
X147750Y336126D01*
X147719Y336073D01*
X147692Y336018D01*
X147668Y335961D01*
X147647Y335903D01*
X147630Y335844D01*
X147617Y335784D01*
X147608Y335723D01*
X147602Y335662D01*
X147600Y335600D01*
D14*
X44607Y403098D02*
X44607Y414782D01*
X47852Y414782D01*
X47965Y414780D01*
X48078Y414774D01*
X48191Y414764D01*
X48304Y414750D01*
X48416Y414733D01*
X48527Y414711D01*
X48637Y414686D01*
X48747Y414656D01*
X48855Y414623D01*
X48962Y414586D01*
X49068Y414546D01*
X49172Y414501D01*
X49275Y414453D01*
X49376Y414402D01*
X49475Y414347D01*
X49572Y414289D01*
X49667Y414227D01*
X49760Y414162D01*
X49850Y414094D01*
X49938Y414023D01*
X50024Y413948D01*
X50107Y413871D01*
X50187Y413791D01*
X50264Y413708D01*
X50339Y413622D01*
X50410Y413534D01*
X50478Y413444D01*
X50543Y413351D01*
X50605Y413256D01*
X50663Y413159D01*
X50718Y413060D01*
X50769Y412959D01*
X50817Y412856D01*
X50862Y412752D01*
X50902Y412646D01*
X50939Y412539D01*
X50972Y412431D01*
X51002Y412321D01*
X51027Y412211D01*
X51049Y412100D01*
X51066Y411988D01*
X51080Y411875D01*
X51090Y411762D01*
X51096Y411649D01*
X51098Y411536D01*
X51096Y411423D01*
X51090Y411310D01*
X51080Y411197D01*
X51066Y411084D01*
X51049Y410972D01*
X51027Y410861D01*
X51002Y410751D01*
X50972Y410641D01*
X50939Y410533D01*
X50902Y410426D01*
X50862Y410320D01*
X50817Y410216D01*
X50769Y410113D01*
X50718Y410012D01*
X50663Y409913D01*
X50605Y409816D01*
X50543Y409721D01*
X50478Y409628D01*
X50410Y409538D01*
X50339Y409450D01*
X50264Y409364D01*
X50187Y409281D01*
X50107Y409201D01*
X50024Y409124D01*
X49938Y409049D01*
X49850Y408978D01*
X49760Y408910D01*
X49667Y408845D01*
X49572Y408783D01*
X49475Y408725D01*
X49376Y408670D01*
X49275Y408619D01*
X49172Y408571D01*
X49068Y408526D01*
X48962Y408486D01*
X48855Y408449D01*
X48747Y408416D01*
X48637Y408386D01*
X48527Y408361D01*
X48416Y408339D01*
X48304Y408322D01*
X48191Y408308D01*
X48078Y408298D01*
X47965Y408292D01*
X47852Y408290D01*
X47852Y408291D02*
X44607Y408291D01*
X48502Y408291D02*
X51098Y403098D01*
X56367Y403098D02*
X61560Y403098D01*
X56367Y403098D02*
X56367Y414782D01*
X61560Y414782D01*
X60261Y409589D02*
X56367Y409589D01*
X69383Y403098D02*
X69482Y403100D01*
X69582Y403106D01*
X69681Y403115D01*
X69779Y403128D01*
X69877Y403145D01*
X69975Y403166D01*
X70071Y403191D01*
X70166Y403219D01*
X70260Y403251D01*
X70353Y403286D01*
X70445Y403325D01*
X70535Y403368D01*
X70623Y403413D01*
X70710Y403463D01*
X70794Y403515D01*
X70877Y403571D01*
X70957Y403629D01*
X71035Y403691D01*
X71110Y403756D01*
X71183Y403824D01*
X71253Y403894D01*
X71321Y403967D01*
X71386Y404042D01*
X71448Y404120D01*
X71506Y404200D01*
X71562Y404283D01*
X71614Y404367D01*
X71664Y404454D01*
X71709Y404542D01*
X71752Y404632D01*
X71791Y404724D01*
X71826Y404817D01*
X71858Y404911D01*
X71886Y405006D01*
X71911Y405102D01*
X71932Y405200D01*
X71949Y405298D01*
X71962Y405396D01*
X71971Y405495D01*
X71977Y405595D01*
X71979Y405694D01*
X69383Y403098D02*
X69239Y403100D01*
X69094Y403106D01*
X68950Y403115D01*
X68807Y403128D01*
X68663Y403145D01*
X68520Y403166D01*
X68378Y403191D01*
X68237Y403219D01*
X68096Y403251D01*
X67956Y403287D01*
X67817Y403326D01*
X67679Y403369D01*
X67543Y403416D01*
X67407Y403466D01*
X67273Y403520D01*
X67141Y403577D01*
X67010Y403638D01*
X66881Y403702D01*
X66753Y403770D01*
X66627Y403840D01*
X66503Y403915D01*
X66382Y403992D01*
X66262Y404073D01*
X66144Y404156D01*
X66029Y404243D01*
X65916Y404333D01*
X65805Y404426D01*
X65697Y404521D01*
X65591Y404620D01*
X65488Y404721D01*
X65813Y412186D02*
X65815Y412285D01*
X65821Y412385D01*
X65830Y412484D01*
X65843Y412582D01*
X65860Y412680D01*
X65881Y412778D01*
X65906Y412874D01*
X65934Y412969D01*
X65966Y413063D01*
X66001Y413156D01*
X66040Y413248D01*
X66083Y413338D01*
X66128Y413426D01*
X66178Y413513D01*
X66230Y413597D01*
X66286Y413680D01*
X66344Y413760D01*
X66406Y413838D01*
X66471Y413913D01*
X66539Y413986D01*
X66609Y414056D01*
X66682Y414124D01*
X66757Y414189D01*
X66835Y414251D01*
X66915Y414309D01*
X66998Y414365D01*
X67082Y414417D01*
X67169Y414467D01*
X67257Y414512D01*
X67347Y414555D01*
X67439Y414594D01*
X67532Y414629D01*
X67626Y414661D01*
X67721Y414689D01*
X67818Y414714D01*
X67915Y414735D01*
X68013Y414752D01*
X68111Y414765D01*
X68210Y414774D01*
X68310Y414780D01*
X68409Y414782D01*
X68545Y414780D01*
X68681Y414774D01*
X68817Y414765D01*
X68953Y414752D01*
X69088Y414734D01*
X69222Y414714D01*
X69356Y414689D01*
X69490Y414661D01*
X69622Y414628D01*
X69753Y414593D01*
X69884Y414553D01*
X70013Y414510D01*
X70141Y414464D01*
X70267Y414413D01*
X70393Y414360D01*
X70516Y414302D01*
X70638Y414242D01*
X70758Y414178D01*
X70877Y414110D01*
X70993Y414040D01*
X71107Y413966D01*
X71220Y413889D01*
X71330Y413808D01*
X67111Y409914D02*
X67025Y409967D01*
X66941Y410024D01*
X66859Y410083D01*
X66779Y410146D01*
X66702Y410212D01*
X66627Y410280D01*
X66555Y410352D01*
X66486Y410426D01*
X66420Y410503D01*
X66357Y410582D01*
X66297Y410664D01*
X66240Y410748D01*
X66186Y410834D01*
X66136Y410922D01*
X66089Y411012D01*
X66045Y411103D01*
X66006Y411197D01*
X65969Y411291D01*
X65937Y411387D01*
X65908Y411485D01*
X65883Y411583D01*
X65862Y411682D01*
X65844Y411782D01*
X65831Y411882D01*
X65821Y411983D01*
X65815Y412085D01*
X65813Y412186D01*
X70681Y407966D02*
X70767Y407913D01*
X70851Y407856D01*
X70933Y407797D01*
X71013Y407734D01*
X71090Y407668D01*
X71165Y407600D01*
X71237Y407528D01*
X71306Y407454D01*
X71372Y407377D01*
X71435Y407298D01*
X71495Y407216D01*
X71552Y407132D01*
X71606Y407046D01*
X71656Y406958D01*
X71703Y406868D01*
X71747Y406777D01*
X71786Y406683D01*
X71823Y406589D01*
X71855Y406493D01*
X71884Y406395D01*
X71909Y406297D01*
X71930Y406198D01*
X71948Y406098D01*
X71961Y405998D01*
X71971Y405897D01*
X71977Y405795D01*
X71979Y405694D01*
X70681Y407966D02*
X67111Y409914D01*
X76941Y403098D02*
X82134Y403098D01*
X76941Y403098D02*
X76941Y414782D01*
X82134Y414782D01*
X80835Y409589D02*
X76941Y409589D01*
X88927Y414782D02*
X88927Y403098D01*
X85681Y414782D02*
X92172Y414782D01*
X95855Y401800D02*
X101048Y401800D01*
X109007Y403098D02*
X109106Y403100D01*
X109206Y403106D01*
X109305Y403115D01*
X109403Y403128D01*
X109501Y403145D01*
X109599Y403166D01*
X109695Y403191D01*
X109790Y403219D01*
X109884Y403251D01*
X109977Y403286D01*
X110069Y403325D01*
X110159Y403368D01*
X110247Y403413D01*
X110334Y403463D01*
X110418Y403515D01*
X110501Y403571D01*
X110581Y403629D01*
X110659Y403691D01*
X110734Y403756D01*
X110807Y403824D01*
X110877Y403894D01*
X110945Y403967D01*
X111010Y404042D01*
X111072Y404120D01*
X111130Y404200D01*
X111186Y404283D01*
X111238Y404367D01*
X111288Y404454D01*
X111333Y404542D01*
X111376Y404632D01*
X111415Y404724D01*
X111450Y404817D01*
X111482Y404911D01*
X111510Y405006D01*
X111535Y405102D01*
X111556Y405200D01*
X111573Y405298D01*
X111586Y405396D01*
X111595Y405495D01*
X111601Y405595D01*
X111603Y405694D01*
X109007Y403098D02*
X108863Y403100D01*
X108718Y403106D01*
X108574Y403115D01*
X108431Y403128D01*
X108287Y403145D01*
X108144Y403166D01*
X108002Y403191D01*
X107861Y403219D01*
X107720Y403251D01*
X107580Y403287D01*
X107441Y403326D01*
X107303Y403369D01*
X107167Y403416D01*
X107031Y403466D01*
X106897Y403520D01*
X106765Y403577D01*
X106634Y403638D01*
X106505Y403702D01*
X106377Y403770D01*
X106251Y403840D01*
X106127Y403915D01*
X106006Y403992D01*
X105886Y404073D01*
X105768Y404156D01*
X105653Y404243D01*
X105540Y404333D01*
X105429Y404426D01*
X105321Y404521D01*
X105215Y404620D01*
X105112Y404721D01*
X105437Y412186D02*
X105439Y412285D01*
X105445Y412385D01*
X105454Y412484D01*
X105467Y412582D01*
X105484Y412680D01*
X105505Y412778D01*
X105530Y412874D01*
X105558Y412969D01*
X105590Y413063D01*
X105625Y413156D01*
X105664Y413248D01*
X105707Y413338D01*
X105752Y413426D01*
X105802Y413513D01*
X105854Y413597D01*
X105910Y413680D01*
X105968Y413760D01*
X106030Y413838D01*
X106095Y413913D01*
X106163Y413986D01*
X106233Y414056D01*
X106306Y414124D01*
X106381Y414189D01*
X106459Y414251D01*
X106539Y414309D01*
X106622Y414365D01*
X106706Y414417D01*
X106793Y414467D01*
X106881Y414512D01*
X106971Y414555D01*
X107063Y414594D01*
X107156Y414629D01*
X107250Y414661D01*
X107345Y414689D01*
X107442Y414714D01*
X107539Y414735D01*
X107637Y414752D01*
X107735Y414765D01*
X107834Y414774D01*
X107934Y414780D01*
X108033Y414782D01*
X108169Y414780D01*
X108305Y414774D01*
X108441Y414765D01*
X108577Y414752D01*
X108712Y414734D01*
X108846Y414714D01*
X108980Y414689D01*
X109114Y414661D01*
X109246Y414628D01*
X109377Y414593D01*
X109508Y414553D01*
X109637Y414510D01*
X109765Y414464D01*
X109891Y414413D01*
X110017Y414360D01*
X110140Y414302D01*
X110262Y414242D01*
X110382Y414178D01*
X110501Y414110D01*
X110617Y414040D01*
X110731Y413966D01*
X110844Y413889D01*
X110954Y413808D01*
X106735Y409914D02*
X106649Y409967D01*
X106565Y410024D01*
X106483Y410083D01*
X106403Y410146D01*
X106326Y410212D01*
X106251Y410280D01*
X106179Y410352D01*
X106110Y410426D01*
X106044Y410503D01*
X105981Y410582D01*
X105921Y410664D01*
X105864Y410748D01*
X105810Y410834D01*
X105760Y410922D01*
X105713Y411012D01*
X105669Y411103D01*
X105630Y411197D01*
X105593Y411291D01*
X105561Y411387D01*
X105532Y411485D01*
X105507Y411583D01*
X105486Y411682D01*
X105468Y411782D01*
X105455Y411882D01*
X105445Y411983D01*
X105439Y412085D01*
X105437Y412186D01*
X110305Y407966D02*
X110391Y407913D01*
X110475Y407856D01*
X110557Y407797D01*
X110637Y407734D01*
X110714Y407668D01*
X110789Y407600D01*
X110861Y407528D01*
X110930Y407454D01*
X110996Y407377D01*
X111059Y407298D01*
X111119Y407216D01*
X111176Y407132D01*
X111230Y407046D01*
X111280Y406958D01*
X111327Y406868D01*
X111371Y406777D01*
X111410Y406683D01*
X111447Y406589D01*
X111479Y406493D01*
X111508Y406395D01*
X111533Y406297D01*
X111554Y406198D01*
X111572Y406098D01*
X111585Y405998D01*
X111595Y405897D01*
X111601Y405795D01*
X111603Y405694D01*
X110305Y407966D02*
X106735Y409914D01*
X118645Y414782D02*
X118645Y403098D01*
X115399Y414782D02*
X121890Y414782D01*
X126471Y403098D02*
X131664Y403098D01*
X126471Y403098D02*
X126471Y414782D01*
X131664Y414782D01*
X130365Y409589D02*
X126471Y409589D01*
X136523Y414782D02*
X136523Y403098D01*
X136523Y414782D02*
X139769Y414782D01*
X139882Y414780D01*
X139995Y414774D01*
X140108Y414764D01*
X140221Y414750D01*
X140333Y414733D01*
X140444Y414711D01*
X140554Y414686D01*
X140664Y414656D01*
X140772Y414623D01*
X140879Y414586D01*
X140985Y414546D01*
X141089Y414501D01*
X141192Y414453D01*
X141293Y414402D01*
X141392Y414347D01*
X141489Y414289D01*
X141584Y414227D01*
X141677Y414162D01*
X141767Y414094D01*
X141855Y414023D01*
X141941Y413948D01*
X142024Y413871D01*
X142104Y413791D01*
X142181Y413708D01*
X142256Y413622D01*
X142327Y413534D01*
X142395Y413444D01*
X142460Y413351D01*
X142522Y413256D01*
X142580Y413159D01*
X142635Y413060D01*
X142686Y412959D01*
X142734Y412856D01*
X142779Y412752D01*
X142819Y412646D01*
X142856Y412539D01*
X142889Y412431D01*
X142919Y412321D01*
X142944Y412211D01*
X142966Y412100D01*
X142983Y411988D01*
X142997Y411875D01*
X143007Y411762D01*
X143013Y411649D01*
X143015Y411536D01*
X143013Y411423D01*
X143007Y411310D01*
X142997Y411197D01*
X142983Y411084D01*
X142966Y410972D01*
X142944Y410861D01*
X142919Y410751D01*
X142889Y410641D01*
X142856Y410533D01*
X142819Y410426D01*
X142779Y410320D01*
X142734Y410216D01*
X142686Y410113D01*
X142635Y410012D01*
X142580Y409913D01*
X142522Y409816D01*
X142460Y409721D01*
X142395Y409628D01*
X142327Y409538D01*
X142256Y409450D01*
X142181Y409364D01*
X142104Y409281D01*
X142024Y409201D01*
X141941Y409124D01*
X141855Y409049D01*
X141767Y408978D01*
X141677Y408910D01*
X141584Y408845D01*
X141489Y408783D01*
X141392Y408725D01*
X141293Y408670D01*
X141192Y408619D01*
X141089Y408571D01*
X140985Y408526D01*
X140879Y408486D01*
X140772Y408449D01*
X140664Y408416D01*
X140554Y408386D01*
X140444Y408361D01*
X140333Y408339D01*
X140221Y408322D01*
X140108Y408308D01*
X139995Y408298D01*
X139882Y408292D01*
X139769Y408290D01*
X139769Y408291D02*
X136523Y408291D01*
X150917Y403098D02*
X151016Y403100D01*
X151116Y403106D01*
X151215Y403115D01*
X151313Y403128D01*
X151411Y403145D01*
X151509Y403166D01*
X151605Y403191D01*
X151700Y403219D01*
X151794Y403251D01*
X151887Y403286D01*
X151979Y403325D01*
X152069Y403368D01*
X152157Y403413D01*
X152244Y403463D01*
X152328Y403515D01*
X152411Y403571D01*
X152491Y403629D01*
X152569Y403691D01*
X152644Y403756D01*
X152717Y403824D01*
X152787Y403894D01*
X152855Y403967D01*
X152920Y404042D01*
X152982Y404120D01*
X153040Y404200D01*
X153096Y404283D01*
X153148Y404367D01*
X153198Y404454D01*
X153243Y404542D01*
X153286Y404632D01*
X153325Y404724D01*
X153360Y404817D01*
X153392Y404911D01*
X153420Y405006D01*
X153445Y405102D01*
X153466Y405200D01*
X153483Y405298D01*
X153496Y405396D01*
X153505Y405495D01*
X153511Y405595D01*
X153513Y405694D01*
X150917Y403098D02*
X150773Y403100D01*
X150628Y403106D01*
X150484Y403115D01*
X150341Y403128D01*
X150197Y403145D01*
X150054Y403166D01*
X149912Y403191D01*
X149771Y403219D01*
X149630Y403251D01*
X149490Y403287D01*
X149351Y403326D01*
X149213Y403369D01*
X149077Y403416D01*
X148941Y403466D01*
X148807Y403520D01*
X148675Y403577D01*
X148544Y403638D01*
X148415Y403702D01*
X148287Y403770D01*
X148161Y403840D01*
X148037Y403915D01*
X147916Y403992D01*
X147796Y404073D01*
X147678Y404156D01*
X147563Y404243D01*
X147450Y404333D01*
X147339Y404426D01*
X147231Y404521D01*
X147125Y404620D01*
X147022Y404721D01*
X147347Y412186D02*
X147349Y412285D01*
X147355Y412385D01*
X147364Y412484D01*
X147377Y412582D01*
X147394Y412680D01*
X147415Y412778D01*
X147440Y412874D01*
X147468Y412969D01*
X147500Y413063D01*
X147535Y413156D01*
X147574Y413248D01*
X147617Y413338D01*
X147662Y413426D01*
X147712Y413513D01*
X147764Y413597D01*
X147820Y413680D01*
X147878Y413760D01*
X147940Y413838D01*
X148005Y413913D01*
X148073Y413986D01*
X148143Y414056D01*
X148216Y414124D01*
X148291Y414189D01*
X148369Y414251D01*
X148449Y414309D01*
X148532Y414365D01*
X148616Y414417D01*
X148703Y414467D01*
X148791Y414512D01*
X148881Y414555D01*
X148973Y414594D01*
X149066Y414629D01*
X149160Y414661D01*
X149255Y414689D01*
X149352Y414714D01*
X149449Y414735D01*
X149547Y414752D01*
X149645Y414765D01*
X149744Y414774D01*
X149844Y414780D01*
X149943Y414782D01*
X150079Y414780D01*
X150215Y414774D01*
X150351Y414765D01*
X150487Y414752D01*
X150622Y414734D01*
X150756Y414714D01*
X150890Y414689D01*
X151024Y414661D01*
X151156Y414628D01*
X151287Y414593D01*
X151418Y414553D01*
X151547Y414510D01*
X151675Y414464D01*
X151801Y414413D01*
X151927Y414360D01*
X152050Y414302D01*
X152172Y414242D01*
X152292Y414178D01*
X152411Y414110D01*
X152527Y414040D01*
X152641Y413966D01*
X152754Y413889D01*
X152864Y413808D01*
X148645Y409914D02*
X148559Y409967D01*
X148475Y410024D01*
X148393Y410083D01*
X148313Y410146D01*
X148236Y410212D01*
X148161Y410280D01*
X148089Y410352D01*
X148020Y410426D01*
X147954Y410503D01*
X147891Y410582D01*
X147831Y410664D01*
X147774Y410748D01*
X147720Y410834D01*
X147670Y410922D01*
X147623Y411012D01*
X147579Y411103D01*
X147540Y411197D01*
X147503Y411291D01*
X147471Y411387D01*
X147442Y411485D01*
X147417Y411583D01*
X147396Y411682D01*
X147378Y411782D01*
X147365Y411882D01*
X147355Y411983D01*
X147349Y412085D01*
X147347Y412186D01*
X152215Y407966D02*
X152301Y407913D01*
X152385Y407856D01*
X152467Y407797D01*
X152547Y407734D01*
X152624Y407668D01*
X152699Y407600D01*
X152771Y407528D01*
X152840Y407454D01*
X152906Y407377D01*
X152969Y407298D01*
X153029Y407216D01*
X153086Y407132D01*
X153140Y407046D01*
X153190Y406958D01*
X153237Y406868D01*
X153281Y406777D01*
X153320Y406683D01*
X153357Y406589D01*
X153389Y406493D01*
X153418Y406395D01*
X153443Y406297D01*
X153464Y406198D01*
X153482Y406098D01*
X153495Y405998D01*
X153505Y405897D01*
X153511Y405795D01*
X153513Y405694D01*
X152215Y407966D02*
X148645Y409914D01*
D16*
X338300Y106200D02*
X398300Y106200D01*
X398300Y46200D02*
X338300Y46200D01*
X338300Y66200D02*
X338300Y86200D01*
X398300Y86200D02*
X398300Y66200D01*
D17*
X414300Y56200D03*
D18*
X414302Y56138D01*
X414308Y56077D01*
X414317Y56016D01*
X414330Y55956D01*
X414347Y55897D01*
X414368Y55839D01*
X414392Y55782D01*
X414419Y55727D01*
X414450Y55674D01*
X414484Y55622D01*
X414521Y55573D01*
X414561Y55526D01*
X414604Y55482D01*
X414649Y55441D01*
X414697Y55402D01*
X414748Y55366D01*
X414800Y55334D01*
X414854Y55305D01*
X414910Y55279D01*
X414968Y55257D01*
X415026Y55238D01*
X415086Y55223D01*
X415147Y55212D01*
X415208Y55204D01*
X415269Y55200D01*
X415331Y55200D01*
X415392Y55204D01*
X415453Y55212D01*
X415514Y55223D01*
X415574Y55238D01*
X415632Y55257D01*
X415690Y55279D01*
X415746Y55305D01*
X415800Y55334D01*
X415852Y55366D01*
X415903Y55402D01*
X415951Y55441D01*
X415996Y55482D01*
X416039Y55526D01*
X416079Y55573D01*
X416116Y55622D01*
X416150Y55674D01*
X416181Y55727D01*
X416208Y55782D01*
X416232Y55839D01*
X416253Y55897D01*
X416270Y55956D01*
X416283Y56016D01*
X416292Y56077D01*
X416298Y56138D01*
X416300Y56200D01*
D17*
X416300Y56200D03*
D18*
X416298Y56262D01*
X416292Y56323D01*
X416283Y56384D01*
X416270Y56444D01*
X416253Y56503D01*
X416232Y56561D01*
X416208Y56618D01*
X416181Y56673D01*
X416150Y56726D01*
X416116Y56778D01*
X416079Y56827D01*
X416039Y56874D01*
X415996Y56918D01*
X415951Y56959D01*
X415903Y56998D01*
X415852Y57034D01*
X415800Y57066D01*
X415746Y57095D01*
X415690Y57121D01*
X415632Y57143D01*
X415574Y57162D01*
X415514Y57177D01*
X415453Y57188D01*
X415392Y57196D01*
X415331Y57200D01*
X415269Y57200D01*
X415208Y57196D01*
X415147Y57188D01*
X415086Y57177D01*
X415026Y57162D01*
X414968Y57143D01*
X414910Y57121D01*
X414854Y57095D01*
X414800Y57066D01*
X414748Y57034D01*
X414697Y56998D01*
X414649Y56959D01*
X414604Y56918D01*
X414561Y56874D01*
X414521Y56827D01*
X414484Y56778D01*
X414450Y56726D01*
X414419Y56673D01*
X414392Y56618D01*
X414368Y56561D01*
X414347Y56503D01*
X414330Y56444D01*
X414317Y56384D01*
X414308Y56323D01*
X414302Y56262D01*
X414300Y56200D01*
D14*
X301337Y118618D02*
X301337Y130302D01*
X304583Y130302D01*
X304696Y130300D01*
X304809Y130294D01*
X304922Y130284D01*
X305035Y130270D01*
X305147Y130253D01*
X305258Y130231D01*
X305368Y130206D01*
X305478Y130176D01*
X305586Y130143D01*
X305693Y130106D01*
X305799Y130066D01*
X305903Y130021D01*
X306006Y129973D01*
X306107Y129922D01*
X306206Y129867D01*
X306303Y129809D01*
X306398Y129747D01*
X306491Y129682D01*
X306581Y129614D01*
X306669Y129543D01*
X306755Y129468D01*
X306838Y129391D01*
X306918Y129311D01*
X306995Y129228D01*
X307070Y129142D01*
X307141Y129054D01*
X307209Y128964D01*
X307274Y128871D01*
X307336Y128776D01*
X307394Y128679D01*
X307449Y128580D01*
X307500Y128479D01*
X307548Y128376D01*
X307593Y128272D01*
X307633Y128166D01*
X307670Y128059D01*
X307703Y127951D01*
X307733Y127841D01*
X307758Y127731D01*
X307780Y127620D01*
X307797Y127508D01*
X307811Y127395D01*
X307821Y127282D01*
X307827Y127169D01*
X307829Y127056D01*
X307827Y126943D01*
X307821Y126830D01*
X307811Y126717D01*
X307797Y126604D01*
X307780Y126492D01*
X307758Y126381D01*
X307733Y126271D01*
X307703Y126161D01*
X307670Y126053D01*
X307633Y125946D01*
X307593Y125840D01*
X307548Y125736D01*
X307500Y125633D01*
X307449Y125532D01*
X307394Y125433D01*
X307336Y125336D01*
X307274Y125241D01*
X307209Y125148D01*
X307141Y125058D01*
X307070Y124970D01*
X306995Y124884D01*
X306918Y124801D01*
X306838Y124721D01*
X306755Y124644D01*
X306669Y124569D01*
X306581Y124498D01*
X306491Y124430D01*
X306398Y124365D01*
X306303Y124303D01*
X306206Y124245D01*
X306107Y124190D01*
X306006Y124139D01*
X305903Y124091D01*
X305799Y124046D01*
X305693Y124006D01*
X305586Y123969D01*
X305478Y123936D01*
X305368Y123906D01*
X305258Y123881D01*
X305147Y123859D01*
X305035Y123842D01*
X304922Y123828D01*
X304809Y123818D01*
X304696Y123812D01*
X304583Y123810D01*
X304583Y123811D02*
X301337Y123811D01*
X305232Y123811D02*
X307828Y118618D01*
X313097Y118618D02*
X318290Y118618D01*
X313097Y118618D02*
X313097Y130302D01*
X318290Y130302D01*
X316992Y125109D02*
X313097Y125109D01*
X326113Y118618D02*
X326212Y118620D01*
X326312Y118626D01*
X326411Y118635D01*
X326509Y118648D01*
X326607Y118665D01*
X326705Y118686D01*
X326801Y118711D01*
X326896Y118739D01*
X326990Y118771D01*
X327083Y118806D01*
X327175Y118845D01*
X327265Y118888D01*
X327353Y118933D01*
X327440Y118983D01*
X327524Y119035D01*
X327607Y119091D01*
X327687Y119149D01*
X327765Y119211D01*
X327840Y119276D01*
X327913Y119344D01*
X327983Y119414D01*
X328051Y119487D01*
X328116Y119562D01*
X328178Y119640D01*
X328236Y119720D01*
X328292Y119803D01*
X328344Y119887D01*
X328394Y119974D01*
X328439Y120062D01*
X328482Y120152D01*
X328521Y120244D01*
X328556Y120337D01*
X328588Y120431D01*
X328616Y120526D01*
X328641Y120622D01*
X328662Y120720D01*
X328679Y120818D01*
X328692Y120916D01*
X328701Y121015D01*
X328707Y121115D01*
X328709Y121214D01*
X326113Y118618D02*
X325969Y118620D01*
X325824Y118626D01*
X325680Y118635D01*
X325537Y118648D01*
X325393Y118665D01*
X325250Y118686D01*
X325108Y118711D01*
X324967Y118739D01*
X324826Y118771D01*
X324686Y118807D01*
X324547Y118846D01*
X324409Y118889D01*
X324273Y118936D01*
X324137Y118986D01*
X324003Y119040D01*
X323871Y119097D01*
X323740Y119158D01*
X323611Y119222D01*
X323483Y119290D01*
X323357Y119360D01*
X323233Y119435D01*
X323112Y119512D01*
X322992Y119593D01*
X322874Y119676D01*
X322759Y119763D01*
X322646Y119853D01*
X322535Y119946D01*
X322427Y120041D01*
X322321Y120140D01*
X322218Y120241D01*
X322544Y127706D02*
X322546Y127805D01*
X322552Y127905D01*
X322561Y128004D01*
X322574Y128102D01*
X322591Y128200D01*
X322612Y128298D01*
X322637Y128394D01*
X322665Y128489D01*
X322697Y128583D01*
X322732Y128676D01*
X322771Y128768D01*
X322814Y128858D01*
X322859Y128946D01*
X322909Y129033D01*
X322961Y129117D01*
X323017Y129200D01*
X323075Y129280D01*
X323137Y129358D01*
X323202Y129433D01*
X323270Y129506D01*
X323340Y129576D01*
X323413Y129644D01*
X323488Y129709D01*
X323566Y129771D01*
X323646Y129829D01*
X323729Y129885D01*
X323813Y129937D01*
X323900Y129987D01*
X323988Y130032D01*
X324078Y130075D01*
X324170Y130114D01*
X324263Y130149D01*
X324357Y130181D01*
X324452Y130209D01*
X324549Y130234D01*
X324646Y130255D01*
X324744Y130272D01*
X324842Y130285D01*
X324941Y130294D01*
X325041Y130300D01*
X325140Y130302D01*
X325276Y130300D01*
X325412Y130294D01*
X325548Y130285D01*
X325684Y130272D01*
X325819Y130254D01*
X325953Y130234D01*
X326087Y130209D01*
X326221Y130181D01*
X326353Y130148D01*
X326484Y130113D01*
X326615Y130073D01*
X326744Y130030D01*
X326872Y129984D01*
X326998Y129933D01*
X327124Y129880D01*
X327247Y129822D01*
X327369Y129762D01*
X327489Y129698D01*
X327608Y129630D01*
X327724Y129560D01*
X327838Y129486D01*
X327951Y129409D01*
X328061Y129328D01*
X323841Y125434D02*
X323755Y125487D01*
X323671Y125544D01*
X323589Y125603D01*
X323509Y125666D01*
X323432Y125732D01*
X323357Y125800D01*
X323285Y125872D01*
X323216Y125946D01*
X323150Y126023D01*
X323087Y126102D01*
X323027Y126184D01*
X322970Y126268D01*
X322916Y126354D01*
X322866Y126442D01*
X322819Y126532D01*
X322775Y126623D01*
X322736Y126717D01*
X322699Y126811D01*
X322667Y126907D01*
X322638Y127005D01*
X322613Y127103D01*
X322592Y127202D01*
X322574Y127302D01*
X322561Y127402D01*
X322551Y127503D01*
X322545Y127605D01*
X322543Y127706D01*
X327412Y123486D02*
X327498Y123433D01*
X327582Y123376D01*
X327664Y123317D01*
X327744Y123254D01*
X327821Y123188D01*
X327896Y123120D01*
X327968Y123048D01*
X328037Y122974D01*
X328103Y122897D01*
X328166Y122818D01*
X328226Y122736D01*
X328283Y122652D01*
X328337Y122566D01*
X328387Y122478D01*
X328434Y122388D01*
X328478Y122297D01*
X328517Y122203D01*
X328554Y122109D01*
X328586Y122013D01*
X328615Y121915D01*
X328640Y121817D01*
X328661Y121718D01*
X328679Y121618D01*
X328692Y121518D01*
X328702Y121417D01*
X328708Y121315D01*
X328710Y121214D01*
X327412Y123486D02*
X323841Y125434D01*
X333671Y118618D02*
X338864Y118618D01*
X333671Y118618D02*
X333671Y130302D01*
X338864Y130302D01*
X337566Y125109D02*
X333671Y125109D01*
X345657Y130302D02*
X345657Y118618D01*
X342412Y130302D02*
X348903Y130302D01*
D13*
X464820Y568960D02*
X83820Y568960D01*
X464820Y568960D02*
X464820Y447040D01*
X83820Y447040D01*
X83820Y568960D01*
X134620Y565150D02*
X433070Y565150D01*
X433070Y450850D01*
X134620Y450850D01*
X134620Y565150D01*
X153670Y543560D02*
X378460Y543560D01*
X378460Y487680D01*
X153670Y487680D01*
X153670Y543560D01*
D15*
X113425Y470295D02*
X112240Y470295D01*
X113425Y470295D02*
X113425Y466344D01*
X111054Y466344D01*
X110976Y466346D01*
X110899Y466352D01*
X110822Y466361D01*
X110746Y466374D01*
X110670Y466391D01*
X110595Y466412D01*
X110522Y466436D01*
X110449Y466464D01*
X110378Y466496D01*
X110309Y466531D01*
X110242Y466569D01*
X110176Y466610D01*
X110113Y466655D01*
X110052Y466703D01*
X109993Y466753D01*
X109937Y466807D01*
X109883Y466863D01*
X109833Y466922D01*
X109785Y466983D01*
X109740Y467046D01*
X109699Y467112D01*
X109661Y467179D01*
X109626Y467248D01*
X109594Y467319D01*
X109566Y467392D01*
X109542Y467465D01*
X109521Y467540D01*
X109504Y467616D01*
X109491Y467692D01*
X109482Y467769D01*
X109476Y467846D01*
X109474Y467924D01*
X109474Y471876D01*
X109476Y471954D01*
X109482Y472031D01*
X109491Y472108D01*
X109504Y472184D01*
X109521Y472260D01*
X109542Y472335D01*
X109566Y472408D01*
X109594Y472481D01*
X109626Y472552D01*
X109661Y472621D01*
X109699Y472688D01*
X109740Y472754D01*
X109785Y472817D01*
X109833Y472878D01*
X109883Y472937D01*
X109937Y472993D01*
X109993Y473047D01*
X110052Y473097D01*
X110113Y473145D01*
X110176Y473190D01*
X110242Y473231D01*
X110309Y473269D01*
X110378Y473304D01*
X110449Y473336D01*
X110522Y473364D01*
X110595Y473388D01*
X110670Y473409D01*
X110746Y473426D01*
X110822Y473439D01*
X110899Y473448D01*
X110976Y473454D01*
X111054Y473456D01*
X113425Y473456D01*
X116789Y473456D02*
X116789Y466344D01*
X120740Y466344D02*
X116789Y473456D01*
X120740Y473456D02*
X120740Y466344D01*
X124104Y466344D02*
X124104Y473456D01*
X126080Y473456D01*
X126166Y473454D01*
X126252Y473448D01*
X126338Y473439D01*
X126423Y473426D01*
X126508Y473409D01*
X126591Y473389D01*
X126674Y473365D01*
X126756Y473337D01*
X126836Y473306D01*
X126915Y473271D01*
X126992Y473233D01*
X127068Y473191D01*
X127142Y473147D01*
X127213Y473099D01*
X127283Y473048D01*
X127350Y472994D01*
X127415Y472937D01*
X127477Y472877D01*
X127537Y472815D01*
X127594Y472750D01*
X127648Y472683D01*
X127699Y472613D01*
X127747Y472542D01*
X127791Y472468D01*
X127833Y472392D01*
X127871Y472315D01*
X127906Y472236D01*
X127937Y472156D01*
X127965Y472074D01*
X127989Y471991D01*
X128009Y471908D01*
X128026Y471823D01*
X128039Y471738D01*
X128048Y471652D01*
X128054Y471566D01*
X128056Y471480D01*
X128055Y471480D02*
X128055Y468320D01*
X128056Y468320D02*
X128054Y468234D01*
X128048Y468148D01*
X128039Y468062D01*
X128026Y467977D01*
X128009Y467892D01*
X127989Y467809D01*
X127965Y467726D01*
X127937Y467644D01*
X127906Y467564D01*
X127871Y467485D01*
X127833Y467408D01*
X127791Y467332D01*
X127747Y467258D01*
X127699Y467187D01*
X127648Y467117D01*
X127594Y467050D01*
X127537Y466985D01*
X127477Y466923D01*
X127415Y466863D01*
X127350Y466806D01*
X127283Y466752D01*
X127213Y466701D01*
X127142Y466653D01*
X127068Y466609D01*
X126992Y466567D01*
X126915Y466529D01*
X126836Y466494D01*
X126756Y466463D01*
X126674Y466435D01*
X126591Y466411D01*
X126508Y466391D01*
X126423Y466374D01*
X126338Y466361D01*
X126252Y466352D01*
X126166Y466346D01*
X126080Y466344D01*
X124104Y466344D01*
X111845Y491744D02*
X109474Y498856D01*
X114215Y498856D02*
X111845Y491744D01*
X118289Y491744D02*
X119870Y491744D01*
X118289Y491744D02*
X118211Y491746D01*
X118134Y491752D01*
X118057Y491761D01*
X117981Y491774D01*
X117905Y491791D01*
X117830Y491812D01*
X117757Y491836D01*
X117684Y491864D01*
X117613Y491896D01*
X117544Y491931D01*
X117477Y491969D01*
X117411Y492010D01*
X117348Y492055D01*
X117287Y492103D01*
X117228Y492153D01*
X117172Y492207D01*
X117118Y492263D01*
X117068Y492322D01*
X117020Y492383D01*
X116975Y492446D01*
X116934Y492512D01*
X116896Y492579D01*
X116861Y492648D01*
X116829Y492719D01*
X116801Y492792D01*
X116777Y492865D01*
X116756Y492940D01*
X116739Y493016D01*
X116726Y493092D01*
X116717Y493169D01*
X116711Y493246D01*
X116709Y493324D01*
X116709Y497276D01*
X116711Y497354D01*
X116717Y497431D01*
X116726Y497508D01*
X116739Y497584D01*
X116756Y497660D01*
X116777Y497735D01*
X116801Y497808D01*
X116829Y497881D01*
X116861Y497952D01*
X116896Y498021D01*
X116934Y498088D01*
X116975Y498154D01*
X117020Y498217D01*
X117068Y498278D01*
X117118Y498337D01*
X117172Y498393D01*
X117228Y498447D01*
X117287Y498497D01*
X117348Y498545D01*
X117411Y498590D01*
X117477Y498631D01*
X117544Y498669D01*
X117613Y498704D01*
X117684Y498736D01*
X117757Y498764D01*
X117830Y498788D01*
X117905Y498809D01*
X117981Y498826D01*
X118057Y498839D01*
X118134Y498848D01*
X118211Y498854D01*
X118289Y498856D01*
X119870Y498856D01*
X124004Y491744D02*
X125585Y491744D01*
X124004Y491744D02*
X123926Y491746D01*
X123849Y491752D01*
X123772Y491761D01*
X123696Y491774D01*
X123620Y491791D01*
X123545Y491812D01*
X123472Y491836D01*
X123399Y491864D01*
X123328Y491896D01*
X123259Y491931D01*
X123192Y491969D01*
X123126Y492010D01*
X123063Y492055D01*
X123002Y492103D01*
X122943Y492153D01*
X122887Y492207D01*
X122833Y492263D01*
X122783Y492322D01*
X122735Y492383D01*
X122690Y492446D01*
X122649Y492512D01*
X122611Y492579D01*
X122576Y492648D01*
X122544Y492719D01*
X122516Y492792D01*
X122492Y492865D01*
X122471Y492940D01*
X122454Y493016D01*
X122441Y493092D01*
X122432Y493169D01*
X122426Y493246D01*
X122424Y493324D01*
X122424Y497276D01*
X122426Y497354D01*
X122432Y497431D01*
X122441Y497508D01*
X122454Y497584D01*
X122471Y497660D01*
X122492Y497735D01*
X122516Y497808D01*
X122544Y497881D01*
X122576Y497952D01*
X122611Y498021D01*
X122649Y498088D01*
X122690Y498154D01*
X122735Y498217D01*
X122783Y498278D01*
X122833Y498337D01*
X122887Y498393D01*
X122943Y498447D01*
X123002Y498497D01*
X123063Y498545D01*
X123126Y498590D01*
X123192Y498631D01*
X123259Y498669D01*
X123328Y498704D01*
X123399Y498736D01*
X123472Y498764D01*
X123545Y498788D01*
X123620Y498809D01*
X123696Y498826D01*
X123772Y498839D01*
X123849Y498848D01*
X123926Y498854D01*
X124004Y498856D01*
X125585Y498856D01*
X111845Y517144D02*
X111923Y517146D01*
X112000Y517152D01*
X112077Y517161D01*
X112153Y517174D01*
X112229Y517191D01*
X112304Y517212D01*
X112377Y517236D01*
X112450Y517264D01*
X112521Y517296D01*
X112590Y517331D01*
X112657Y517369D01*
X112723Y517410D01*
X112786Y517455D01*
X112847Y517503D01*
X112906Y517553D01*
X112962Y517607D01*
X113016Y517663D01*
X113066Y517722D01*
X113114Y517783D01*
X113159Y517846D01*
X113200Y517912D01*
X113238Y517979D01*
X113273Y518048D01*
X113305Y518119D01*
X113333Y518192D01*
X113357Y518265D01*
X113378Y518340D01*
X113395Y518416D01*
X113408Y518492D01*
X113417Y518569D01*
X113423Y518646D01*
X113425Y518724D01*
X111845Y517144D02*
X111730Y517146D01*
X111616Y517152D01*
X111502Y517162D01*
X111388Y517175D01*
X111275Y517193D01*
X111162Y517215D01*
X111050Y517240D01*
X110940Y517269D01*
X110830Y517302D01*
X110721Y517339D01*
X110614Y517379D01*
X110508Y517423D01*
X110404Y517471D01*
X110301Y517522D01*
X110201Y517577D01*
X110102Y517635D01*
X110005Y517697D01*
X109911Y517761D01*
X109818Y517829D01*
X109728Y517901D01*
X109641Y517975D01*
X109556Y518052D01*
X109474Y518132D01*
X109672Y522676D02*
X109674Y522754D01*
X109680Y522831D01*
X109689Y522908D01*
X109702Y522984D01*
X109719Y523060D01*
X109740Y523135D01*
X109764Y523208D01*
X109792Y523281D01*
X109824Y523352D01*
X109859Y523421D01*
X109897Y523488D01*
X109938Y523554D01*
X109983Y523617D01*
X110031Y523678D01*
X110081Y523737D01*
X110135Y523793D01*
X110191Y523847D01*
X110250Y523897D01*
X110311Y523945D01*
X110374Y523990D01*
X110440Y524031D01*
X110507Y524069D01*
X110576Y524104D01*
X110647Y524136D01*
X110720Y524164D01*
X110793Y524188D01*
X110868Y524209D01*
X110944Y524226D01*
X111020Y524239D01*
X111097Y524248D01*
X111175Y524254D01*
X111252Y524256D01*
X111358Y524254D01*
X111464Y524248D01*
X111569Y524239D01*
X111674Y524226D01*
X111779Y524209D01*
X111883Y524188D01*
X111986Y524164D01*
X112088Y524136D01*
X112189Y524104D01*
X112289Y524069D01*
X112387Y524030D01*
X112485Y523987D01*
X112580Y523942D01*
X112674Y523893D01*
X112766Y523840D01*
X112856Y523784D01*
X112944Y523725D01*
X113030Y523663D01*
X110462Y521293D02*
X110395Y521335D01*
X110330Y521380D01*
X110267Y521429D01*
X110206Y521480D01*
X110149Y521535D01*
X110094Y521592D01*
X110041Y521652D01*
X109992Y521714D01*
X109946Y521779D01*
X109904Y521845D01*
X109864Y521914D01*
X109828Y521985D01*
X109796Y522058D01*
X109767Y522132D01*
X109742Y522207D01*
X109721Y522283D01*
X109703Y522361D01*
X109690Y522439D01*
X109680Y522518D01*
X109674Y522597D01*
X109672Y522676D01*
X112635Y520107D02*
X112702Y520065D01*
X112767Y520020D01*
X112830Y519971D01*
X112891Y519920D01*
X112948Y519865D01*
X113003Y519808D01*
X113056Y519748D01*
X113105Y519686D01*
X113151Y519621D01*
X113193Y519555D01*
X113233Y519486D01*
X113269Y519415D01*
X113301Y519342D01*
X113330Y519268D01*
X113355Y519193D01*
X113376Y519117D01*
X113394Y519039D01*
X113407Y518961D01*
X113417Y518882D01*
X113423Y518803D01*
X113425Y518724D01*
X112635Y520107D02*
X110462Y521293D01*
X117666Y517144D02*
X119246Y517144D01*
X117666Y517144D02*
X117588Y517146D01*
X117511Y517152D01*
X117434Y517161D01*
X117358Y517174D01*
X117282Y517191D01*
X117207Y517212D01*
X117134Y517236D01*
X117061Y517264D01*
X116990Y517296D01*
X116921Y517331D01*
X116854Y517369D01*
X116788Y517410D01*
X116725Y517455D01*
X116664Y517503D01*
X116605Y517553D01*
X116549Y517607D01*
X116495Y517663D01*
X116445Y517722D01*
X116397Y517783D01*
X116352Y517846D01*
X116311Y517912D01*
X116273Y517979D01*
X116238Y518048D01*
X116206Y518119D01*
X116178Y518192D01*
X116154Y518265D01*
X116133Y518340D01*
X116116Y518416D01*
X116103Y518492D01*
X116094Y518569D01*
X116088Y518646D01*
X116086Y518724D01*
X116085Y518724D02*
X116085Y522676D01*
X116086Y522676D02*
X116088Y522754D01*
X116094Y522831D01*
X116103Y522908D01*
X116116Y522984D01*
X116133Y523060D01*
X116154Y523135D01*
X116178Y523208D01*
X116206Y523281D01*
X116238Y523352D01*
X116273Y523421D01*
X116311Y523488D01*
X116352Y523554D01*
X116397Y523617D01*
X116445Y523678D01*
X116495Y523737D01*
X116549Y523793D01*
X116605Y523847D01*
X116664Y523897D01*
X116725Y523945D01*
X116788Y523990D01*
X116854Y524031D01*
X116921Y524069D01*
X116990Y524104D01*
X117061Y524136D01*
X117134Y524164D01*
X117207Y524188D01*
X117282Y524209D01*
X117358Y524226D01*
X117434Y524239D01*
X117511Y524248D01*
X117588Y524254D01*
X117666Y524256D01*
X119246Y524256D01*
X122059Y524256D02*
X122059Y517144D01*
X125220Y517144D01*
X111845Y542544D02*
X111923Y542546D01*
X112000Y542552D01*
X112077Y542561D01*
X112153Y542574D01*
X112229Y542591D01*
X112304Y542612D01*
X112377Y542636D01*
X112450Y542664D01*
X112521Y542696D01*
X112590Y542731D01*
X112657Y542769D01*
X112723Y542810D01*
X112786Y542855D01*
X112847Y542903D01*
X112906Y542953D01*
X112962Y543007D01*
X113016Y543063D01*
X113066Y543122D01*
X113114Y543183D01*
X113159Y543246D01*
X113200Y543312D01*
X113238Y543379D01*
X113273Y543448D01*
X113305Y543519D01*
X113333Y543592D01*
X113357Y543665D01*
X113378Y543740D01*
X113395Y543816D01*
X113408Y543892D01*
X113417Y543969D01*
X113423Y544046D01*
X113425Y544124D01*
X111845Y542544D02*
X111730Y542546D01*
X111616Y542552D01*
X111502Y542562D01*
X111388Y542575D01*
X111275Y542593D01*
X111162Y542615D01*
X111050Y542640D01*
X110940Y542669D01*
X110830Y542702D01*
X110721Y542739D01*
X110614Y542779D01*
X110508Y542823D01*
X110404Y542871D01*
X110301Y542922D01*
X110201Y542977D01*
X110102Y543035D01*
X110005Y543097D01*
X109911Y543161D01*
X109818Y543229D01*
X109728Y543301D01*
X109641Y543375D01*
X109556Y543452D01*
X109474Y543532D01*
X109672Y548076D02*
X109674Y548154D01*
X109680Y548231D01*
X109689Y548308D01*
X109702Y548384D01*
X109719Y548460D01*
X109740Y548535D01*
X109764Y548608D01*
X109792Y548681D01*
X109824Y548752D01*
X109859Y548821D01*
X109897Y548888D01*
X109938Y548954D01*
X109983Y549017D01*
X110031Y549078D01*
X110081Y549137D01*
X110135Y549193D01*
X110191Y549247D01*
X110250Y549297D01*
X110311Y549345D01*
X110374Y549390D01*
X110440Y549431D01*
X110507Y549469D01*
X110576Y549504D01*
X110647Y549536D01*
X110720Y549564D01*
X110793Y549588D01*
X110868Y549609D01*
X110944Y549626D01*
X111020Y549639D01*
X111097Y549648D01*
X111175Y549654D01*
X111252Y549656D01*
X111358Y549654D01*
X111464Y549648D01*
X111569Y549639D01*
X111674Y549626D01*
X111779Y549609D01*
X111883Y549588D01*
X111986Y549564D01*
X112088Y549536D01*
X112189Y549504D01*
X112289Y549469D01*
X112387Y549430D01*
X112485Y549387D01*
X112580Y549342D01*
X112674Y549293D01*
X112766Y549240D01*
X112856Y549184D01*
X112944Y549125D01*
X113030Y549063D01*
X110462Y546693D02*
X110395Y546735D01*
X110330Y546780D01*
X110267Y546829D01*
X110206Y546880D01*
X110149Y546935D01*
X110094Y546992D01*
X110041Y547052D01*
X109992Y547114D01*
X109946Y547179D01*
X109904Y547245D01*
X109864Y547314D01*
X109828Y547385D01*
X109796Y547458D01*
X109767Y547532D01*
X109742Y547607D01*
X109721Y547683D01*
X109703Y547761D01*
X109690Y547839D01*
X109680Y547918D01*
X109674Y547997D01*
X109672Y548076D01*
X112635Y545507D02*
X112702Y545465D01*
X112767Y545420D01*
X112830Y545371D01*
X112891Y545320D01*
X112948Y545265D01*
X113003Y545208D01*
X113056Y545148D01*
X113105Y545086D01*
X113151Y545021D01*
X113193Y544955D01*
X113233Y544886D01*
X113269Y544815D01*
X113301Y544742D01*
X113330Y544668D01*
X113355Y544593D01*
X113376Y544517D01*
X113394Y544439D01*
X113407Y544361D01*
X113417Y544282D01*
X113423Y544203D01*
X113425Y544124D01*
X112635Y545507D02*
X110462Y546693D01*
X116332Y549656D02*
X116332Y542544D01*
X116332Y549656D02*
X118308Y549656D01*
X118394Y549654D01*
X118480Y549648D01*
X118566Y549639D01*
X118651Y549626D01*
X118736Y549609D01*
X118819Y549589D01*
X118902Y549565D01*
X118984Y549537D01*
X119064Y549506D01*
X119143Y549471D01*
X119220Y549433D01*
X119296Y549391D01*
X119370Y549347D01*
X119441Y549299D01*
X119511Y549248D01*
X119578Y549194D01*
X119643Y549137D01*
X119705Y549077D01*
X119765Y549015D01*
X119822Y548950D01*
X119876Y548883D01*
X119927Y548813D01*
X119975Y548742D01*
X120019Y548668D01*
X120061Y548592D01*
X120099Y548515D01*
X120134Y548436D01*
X120165Y548356D01*
X120193Y548274D01*
X120217Y548191D01*
X120237Y548108D01*
X120254Y548023D01*
X120267Y547938D01*
X120276Y547852D01*
X120282Y547766D01*
X120284Y547680D01*
X120283Y547680D02*
X120283Y544520D01*
X120284Y544520D02*
X120282Y544434D01*
X120276Y544348D01*
X120267Y544262D01*
X120254Y544177D01*
X120237Y544092D01*
X120217Y544009D01*
X120193Y543926D01*
X120165Y543844D01*
X120134Y543764D01*
X120099Y543685D01*
X120061Y543608D01*
X120019Y543532D01*
X119975Y543458D01*
X119927Y543387D01*
X119876Y543317D01*
X119822Y543250D01*
X119765Y543185D01*
X119705Y543123D01*
X119643Y543063D01*
X119578Y543006D01*
X119511Y542952D01*
X119441Y542901D01*
X119370Y542853D01*
X119296Y542809D01*
X119220Y542767D01*
X119143Y542729D01*
X119064Y542694D01*
X118984Y542663D01*
X118902Y542635D01*
X118819Y542611D01*
X118736Y542591D01*
X118651Y542574D01*
X118566Y542561D01*
X118480Y542552D01*
X118394Y542546D01*
X118308Y542544D01*
X116332Y542544D01*
X123023Y542544D02*
X125394Y549656D01*
X127765Y542544D01*
X127172Y544322D02*
X123616Y544322D01*
D14*
X239698Y584708D02*
X239698Y596392D01*
X242944Y596392D01*
X243057Y596390D01*
X243170Y596384D01*
X243283Y596374D01*
X243396Y596360D01*
X243508Y596343D01*
X243619Y596321D01*
X243729Y596296D01*
X243839Y596266D01*
X243947Y596233D01*
X244054Y596196D01*
X244160Y596156D01*
X244264Y596111D01*
X244367Y596063D01*
X244468Y596012D01*
X244567Y595957D01*
X244664Y595899D01*
X244759Y595837D01*
X244852Y595772D01*
X244942Y595704D01*
X245030Y595633D01*
X245116Y595558D01*
X245199Y595481D01*
X245279Y595401D01*
X245356Y595318D01*
X245431Y595232D01*
X245502Y595144D01*
X245570Y595054D01*
X245635Y594961D01*
X245697Y594866D01*
X245755Y594769D01*
X245810Y594670D01*
X245861Y594569D01*
X245909Y594466D01*
X245954Y594362D01*
X245994Y594256D01*
X246031Y594149D01*
X246064Y594041D01*
X246094Y593931D01*
X246119Y593821D01*
X246141Y593710D01*
X246158Y593598D01*
X246172Y593485D01*
X246182Y593372D01*
X246188Y593259D01*
X246190Y593146D01*
X246190Y587954D01*
X246188Y587841D01*
X246182Y587728D01*
X246172Y587615D01*
X246158Y587502D01*
X246141Y587390D01*
X246119Y587279D01*
X246094Y587169D01*
X246064Y587059D01*
X246031Y586951D01*
X245994Y586844D01*
X245954Y586738D01*
X245909Y586634D01*
X245861Y586531D01*
X245810Y586430D01*
X245755Y586331D01*
X245697Y586234D01*
X245635Y586139D01*
X245570Y586046D01*
X245502Y585956D01*
X245431Y585868D01*
X245356Y585782D01*
X245279Y585699D01*
X245199Y585619D01*
X245116Y585542D01*
X245030Y585467D01*
X244942Y585396D01*
X244852Y585328D01*
X244759Y585263D01*
X244664Y585201D01*
X244567Y585143D01*
X244468Y585088D01*
X244367Y585037D01*
X244264Y584989D01*
X244160Y584944D01*
X244054Y584904D01*
X243947Y584867D01*
X243839Y584834D01*
X243729Y584804D01*
X243619Y584779D01*
X243508Y584757D01*
X243396Y584740D01*
X243283Y584726D01*
X243170Y584716D01*
X243057Y584710D01*
X242944Y584708D01*
X239698Y584708D01*
X252469Y584708D02*
X252469Y596392D01*
X251171Y584708D02*
X253767Y584708D01*
X253767Y596392D02*
X251171Y596392D01*
X261881Y584708D02*
X261980Y584710D01*
X262080Y584716D01*
X262179Y584725D01*
X262277Y584738D01*
X262375Y584755D01*
X262473Y584776D01*
X262569Y584801D01*
X262664Y584829D01*
X262758Y584861D01*
X262851Y584896D01*
X262943Y584935D01*
X263033Y584978D01*
X263121Y585023D01*
X263208Y585073D01*
X263292Y585125D01*
X263375Y585181D01*
X263455Y585239D01*
X263533Y585301D01*
X263608Y585366D01*
X263681Y585434D01*
X263751Y585504D01*
X263819Y585577D01*
X263884Y585652D01*
X263946Y585730D01*
X264004Y585810D01*
X264060Y585893D01*
X264112Y585977D01*
X264162Y586064D01*
X264207Y586152D01*
X264250Y586242D01*
X264289Y586334D01*
X264324Y586427D01*
X264356Y586521D01*
X264384Y586616D01*
X264409Y586712D01*
X264430Y586810D01*
X264447Y586908D01*
X264460Y587006D01*
X264469Y587105D01*
X264475Y587205D01*
X264477Y587304D01*
X261881Y584708D02*
X261737Y584710D01*
X261592Y584716D01*
X261448Y584725D01*
X261305Y584738D01*
X261161Y584755D01*
X261018Y584776D01*
X260876Y584801D01*
X260735Y584829D01*
X260594Y584861D01*
X260454Y584897D01*
X260315Y584936D01*
X260177Y584979D01*
X260041Y585026D01*
X259905Y585076D01*
X259771Y585130D01*
X259639Y585187D01*
X259508Y585248D01*
X259379Y585312D01*
X259251Y585380D01*
X259125Y585450D01*
X259001Y585525D01*
X258880Y585602D01*
X258760Y585683D01*
X258642Y585766D01*
X258527Y585853D01*
X258414Y585943D01*
X258303Y586036D01*
X258195Y586131D01*
X258089Y586230D01*
X257986Y586331D01*
X258311Y593796D02*
X258313Y593895D01*
X258319Y593995D01*
X258328Y594094D01*
X258341Y594192D01*
X258358Y594290D01*
X258379Y594388D01*
X258404Y594484D01*
X258432Y594579D01*
X258464Y594673D01*
X258499Y594766D01*
X258538Y594858D01*
X258581Y594948D01*
X258626Y595036D01*
X258676Y595123D01*
X258728Y595207D01*
X258784Y595290D01*
X258842Y595370D01*
X258904Y595448D01*
X258969Y595523D01*
X259037Y595596D01*
X259107Y595666D01*
X259180Y595734D01*
X259255Y595799D01*
X259333Y595861D01*
X259413Y595919D01*
X259496Y595975D01*
X259580Y596027D01*
X259667Y596077D01*
X259755Y596122D01*
X259845Y596165D01*
X259937Y596204D01*
X260030Y596239D01*
X260124Y596271D01*
X260219Y596299D01*
X260316Y596324D01*
X260413Y596345D01*
X260511Y596362D01*
X260609Y596375D01*
X260708Y596384D01*
X260808Y596390D01*
X260907Y596392D01*
X261043Y596390D01*
X261179Y596384D01*
X261315Y596375D01*
X261451Y596362D01*
X261586Y596344D01*
X261720Y596324D01*
X261854Y596299D01*
X261988Y596271D01*
X262120Y596238D01*
X262251Y596203D01*
X262382Y596163D01*
X262511Y596120D01*
X262639Y596074D01*
X262765Y596023D01*
X262891Y595970D01*
X263014Y595912D01*
X263136Y595852D01*
X263256Y595788D01*
X263375Y595720D01*
X263491Y595650D01*
X263605Y595576D01*
X263718Y595499D01*
X263828Y595418D01*
X259609Y591524D02*
X259523Y591577D01*
X259439Y591634D01*
X259357Y591693D01*
X259277Y591756D01*
X259200Y591822D01*
X259125Y591890D01*
X259053Y591962D01*
X258984Y592036D01*
X258918Y592113D01*
X258855Y592192D01*
X258795Y592274D01*
X258738Y592358D01*
X258684Y592444D01*
X258634Y592532D01*
X258587Y592622D01*
X258543Y592713D01*
X258504Y592807D01*
X258467Y592901D01*
X258435Y592997D01*
X258406Y593095D01*
X258381Y593193D01*
X258360Y593292D01*
X258342Y593392D01*
X258329Y593492D01*
X258319Y593593D01*
X258313Y593695D01*
X258311Y593796D01*
X263180Y589576D02*
X263266Y589523D01*
X263350Y589466D01*
X263432Y589407D01*
X263512Y589344D01*
X263589Y589278D01*
X263664Y589210D01*
X263736Y589138D01*
X263805Y589064D01*
X263871Y588987D01*
X263934Y588908D01*
X263994Y588826D01*
X264051Y588742D01*
X264105Y588656D01*
X264155Y588568D01*
X264202Y588478D01*
X264246Y588387D01*
X264285Y588293D01*
X264322Y588199D01*
X264354Y588103D01*
X264383Y588005D01*
X264408Y587907D01*
X264429Y587808D01*
X264447Y587708D01*
X264460Y587608D01*
X264470Y587507D01*
X264476Y587405D01*
X264478Y587304D01*
X263179Y589576D02*
X259609Y591524D01*
X269586Y596392D02*
X269586Y584708D01*
X269586Y596392D02*
X272831Y596392D01*
X272944Y596390D01*
X273057Y596384D01*
X273170Y596374D01*
X273283Y596360D01*
X273395Y596343D01*
X273506Y596321D01*
X273616Y596296D01*
X273726Y596266D01*
X273834Y596233D01*
X273941Y596196D01*
X274047Y596156D01*
X274151Y596111D01*
X274254Y596063D01*
X274355Y596012D01*
X274454Y595957D01*
X274551Y595899D01*
X274646Y595837D01*
X274739Y595772D01*
X274829Y595704D01*
X274917Y595633D01*
X275003Y595558D01*
X275086Y595481D01*
X275166Y595401D01*
X275243Y595318D01*
X275318Y595232D01*
X275389Y595144D01*
X275457Y595054D01*
X275522Y594961D01*
X275584Y594866D01*
X275642Y594769D01*
X275697Y594670D01*
X275748Y594569D01*
X275796Y594466D01*
X275841Y594362D01*
X275881Y594256D01*
X275918Y594149D01*
X275951Y594041D01*
X275981Y593931D01*
X276006Y593821D01*
X276028Y593710D01*
X276045Y593598D01*
X276059Y593485D01*
X276069Y593372D01*
X276075Y593259D01*
X276077Y593146D01*
X276075Y593033D01*
X276069Y592920D01*
X276059Y592807D01*
X276045Y592694D01*
X276028Y592582D01*
X276006Y592471D01*
X275981Y592361D01*
X275951Y592251D01*
X275918Y592143D01*
X275881Y592036D01*
X275841Y591930D01*
X275796Y591826D01*
X275748Y591723D01*
X275697Y591622D01*
X275642Y591523D01*
X275584Y591426D01*
X275522Y591331D01*
X275457Y591238D01*
X275389Y591148D01*
X275318Y591060D01*
X275243Y590974D01*
X275166Y590891D01*
X275086Y590811D01*
X275003Y590734D01*
X274917Y590659D01*
X274829Y590588D01*
X274739Y590520D01*
X274646Y590455D01*
X274551Y590393D01*
X274454Y590335D01*
X274355Y590280D01*
X274254Y590229D01*
X274151Y590181D01*
X274047Y590136D01*
X273941Y590096D01*
X273834Y590059D01*
X273726Y590026D01*
X273616Y589996D01*
X273506Y589971D01*
X273395Y589949D01*
X273283Y589932D01*
X273170Y589918D01*
X273057Y589908D01*
X272944Y589902D01*
X272831Y589900D01*
X272831Y589901D02*
X269586Y589901D01*
X280869Y584708D02*
X280869Y596392D01*
X280869Y584708D02*
X286062Y584708D01*
X289722Y584708D02*
X293617Y596392D01*
X297512Y584708D01*
X296538Y587629D02*
X290696Y587629D01*
X301152Y596392D02*
X305047Y590875D01*
X308942Y596392D01*
X305047Y590875D02*
X305047Y584708D01*
D16*
X325600Y385600D02*
X385600Y385600D01*
X385600Y325600D02*
X325600Y325600D01*
X325600Y345600D02*
X325600Y365600D01*
X385600Y365600D02*
X385600Y345600D01*
D17*
X401600Y335600D03*
D18*
X401602Y335538D01*
X401608Y335477D01*
X401617Y335416D01*
X401630Y335356D01*
X401647Y335297D01*
X401668Y335239D01*
X401692Y335182D01*
X401719Y335127D01*
X401750Y335074D01*
X401784Y335022D01*
X401821Y334973D01*
X401861Y334926D01*
X401904Y334882D01*
X401949Y334841D01*
X401997Y334802D01*
X402048Y334766D01*
X402100Y334734D01*
X402154Y334705D01*
X402210Y334679D01*
X402268Y334657D01*
X402326Y334638D01*
X402386Y334623D01*
X402447Y334612D01*
X402508Y334604D01*
X402569Y334600D01*
X402631Y334600D01*
X402692Y334604D01*
X402753Y334612D01*
X402814Y334623D01*
X402874Y334638D01*
X402932Y334657D01*
X402990Y334679D01*
X403046Y334705D01*
X403100Y334734D01*
X403152Y334766D01*
X403203Y334802D01*
X403251Y334841D01*
X403296Y334882D01*
X403339Y334926D01*
X403379Y334973D01*
X403416Y335022D01*
X403450Y335074D01*
X403481Y335127D01*
X403508Y335182D01*
X403532Y335239D01*
X403553Y335297D01*
X403570Y335356D01*
X403583Y335416D01*
X403592Y335477D01*
X403598Y335538D01*
X403600Y335600D01*
D17*
X403600Y335600D03*
D18*
X403598Y335662D01*
X403592Y335723D01*
X403583Y335784D01*
X403570Y335844D01*
X403553Y335903D01*
X403532Y335961D01*
X403508Y336018D01*
X403481Y336073D01*
X403450Y336126D01*
X403416Y336178D01*
X403379Y336227D01*
X403339Y336274D01*
X403296Y336318D01*
X403251Y336359D01*
X403203Y336398D01*
X403152Y336434D01*
X403100Y336466D01*
X403046Y336495D01*
X402990Y336521D01*
X402932Y336543D01*
X402874Y336562D01*
X402814Y336577D01*
X402753Y336588D01*
X402692Y336596D01*
X402631Y336600D01*
X402569Y336600D01*
X402508Y336596D01*
X402447Y336588D01*
X402386Y336577D01*
X402326Y336562D01*
X402268Y336543D01*
X402210Y336521D01*
X402154Y336495D01*
X402100Y336466D01*
X402048Y336434D01*
X401997Y336398D01*
X401949Y336359D01*
X401904Y336318D01*
X401861Y336274D01*
X401821Y336227D01*
X401784Y336178D01*
X401750Y336126D01*
X401719Y336073D01*
X401692Y336018D01*
X401668Y335961D01*
X401647Y335903D01*
X401630Y335844D01*
X401617Y335784D01*
X401608Y335723D01*
X401602Y335662D01*
X401600Y335600D01*
D14*
X348714Y403804D02*
X348714Y412242D01*
X348713Y403804D02*
X348715Y403691D01*
X348721Y403578D01*
X348731Y403465D01*
X348745Y403352D01*
X348762Y403240D01*
X348784Y403129D01*
X348809Y403019D01*
X348839Y402909D01*
X348872Y402801D01*
X348909Y402694D01*
X348949Y402588D01*
X348994Y402484D01*
X349042Y402381D01*
X349093Y402280D01*
X349148Y402181D01*
X349206Y402084D01*
X349268Y401989D01*
X349333Y401896D01*
X349401Y401806D01*
X349472Y401718D01*
X349547Y401632D01*
X349624Y401549D01*
X349704Y401469D01*
X349787Y401392D01*
X349873Y401317D01*
X349961Y401246D01*
X350051Y401178D01*
X350144Y401113D01*
X350239Y401051D01*
X350336Y400993D01*
X350435Y400938D01*
X350536Y400887D01*
X350639Y400839D01*
X350743Y400794D01*
X350849Y400754D01*
X350956Y400717D01*
X351064Y400684D01*
X351174Y400654D01*
X351284Y400629D01*
X351395Y400607D01*
X351507Y400590D01*
X351620Y400576D01*
X351733Y400566D01*
X351846Y400560D01*
X351959Y400558D01*
X352072Y400560D01*
X352185Y400566D01*
X352298Y400576D01*
X352411Y400590D01*
X352523Y400607D01*
X352634Y400629D01*
X352744Y400654D01*
X352854Y400684D01*
X352962Y400717D01*
X353069Y400754D01*
X353175Y400794D01*
X353279Y400839D01*
X353382Y400887D01*
X353483Y400938D01*
X353582Y400993D01*
X353679Y401051D01*
X353774Y401113D01*
X353867Y401178D01*
X353957Y401246D01*
X354045Y401317D01*
X354131Y401392D01*
X354214Y401469D01*
X354294Y401549D01*
X354371Y401632D01*
X354446Y401718D01*
X354517Y401806D01*
X354585Y401896D01*
X354650Y401989D01*
X354712Y402084D01*
X354770Y402181D01*
X354825Y402280D01*
X354876Y402381D01*
X354924Y402484D01*
X354969Y402588D01*
X355009Y402694D01*
X355046Y402801D01*
X355079Y402909D01*
X355109Y403019D01*
X355134Y403129D01*
X355156Y403240D01*
X355173Y403352D01*
X355187Y403465D01*
X355197Y403578D01*
X355203Y403691D01*
X355205Y403804D01*
X355205Y412242D01*
X361075Y412242D02*
X361075Y400558D01*
X361075Y412242D02*
X364321Y412242D01*
X364434Y412240D01*
X364547Y412234D01*
X364660Y412224D01*
X364773Y412210D01*
X364885Y412193D01*
X364996Y412171D01*
X365106Y412146D01*
X365216Y412116D01*
X365324Y412083D01*
X365431Y412046D01*
X365537Y412006D01*
X365641Y411961D01*
X365744Y411913D01*
X365845Y411862D01*
X365944Y411807D01*
X366041Y411749D01*
X366136Y411687D01*
X366229Y411622D01*
X366319Y411554D01*
X366407Y411483D01*
X366493Y411408D01*
X366576Y411331D01*
X366656Y411251D01*
X366733Y411168D01*
X366808Y411082D01*
X366879Y410994D01*
X366947Y410904D01*
X367012Y410811D01*
X367074Y410716D01*
X367132Y410619D01*
X367187Y410520D01*
X367238Y410419D01*
X367286Y410316D01*
X367331Y410212D01*
X367371Y410106D01*
X367408Y409999D01*
X367441Y409891D01*
X367471Y409781D01*
X367496Y409671D01*
X367518Y409560D01*
X367535Y409448D01*
X367549Y409335D01*
X367559Y409222D01*
X367565Y409109D01*
X367567Y408996D01*
X367565Y408883D01*
X367559Y408770D01*
X367549Y408657D01*
X367535Y408544D01*
X367518Y408432D01*
X367496Y408321D01*
X367471Y408211D01*
X367441Y408101D01*
X367408Y407993D01*
X367371Y407886D01*
X367331Y407780D01*
X367286Y407676D01*
X367238Y407573D01*
X367187Y407472D01*
X367132Y407373D01*
X367074Y407276D01*
X367012Y407181D01*
X366947Y407088D01*
X366879Y406998D01*
X366808Y406910D01*
X366733Y406824D01*
X366656Y406741D01*
X366576Y406661D01*
X366493Y406584D01*
X366407Y406509D01*
X366319Y406438D01*
X366229Y406370D01*
X366136Y406305D01*
X366041Y406243D01*
X365944Y406185D01*
X365845Y406130D01*
X365744Y406079D01*
X365641Y406031D01*
X365537Y405986D01*
X365431Y405946D01*
X365324Y405909D01*
X365216Y405876D01*
X365106Y405846D01*
X364996Y405821D01*
X364885Y405799D01*
X364773Y405782D01*
X364660Y405768D01*
X364547Y405758D01*
X364434Y405752D01*
X364321Y405750D01*
X364321Y405751D02*
X361075Y405751D01*
M02*
