G04 EAGLE Gerber RS-274X export*
G75*
%MOMM*%
%FSLAX34Y34*%
%LPD*%
%INSilkscreen Top*%
%IPPOS*%
%AMOC8*
5,1,8,0,0,1.08239X$1,22.5*%
G01*
%ADD10C,0.508000*%
%ADD11C,0.152400*%
%ADD12C,0.050800*%
%ADD13C,0.127000*%
%ADD14C,0.100000*%
%ADD15C,0.200000*%
%ADD16C,0.200000*%
%ADD17C,0.203200*%
%ADD18C,0.101600*%


D10*
X289010Y269300D03*
D11*
X307400Y273800D02*
X307400Y276800D01*
X310400Y276800D01*
X375400Y276800D02*
X378400Y276800D01*
X378400Y273800D01*
X378400Y205800D02*
X375400Y205800D01*
X378400Y205800D02*
X378400Y208800D01*
X307400Y208800D02*
X307400Y205800D01*
X310400Y205800D01*
D12*
X287874Y297971D02*
X287874Y303559D01*
X287253Y297971D02*
X288495Y297971D01*
X288495Y303559D02*
X287253Y303559D01*
X291936Y297971D02*
X293178Y297971D01*
X291936Y297971D02*
X291866Y297973D01*
X291797Y297979D01*
X291728Y297989D01*
X291660Y298002D01*
X291592Y298020D01*
X291526Y298041D01*
X291461Y298066D01*
X291397Y298094D01*
X291335Y298126D01*
X291275Y298161D01*
X291217Y298200D01*
X291162Y298242D01*
X291108Y298287D01*
X291058Y298335D01*
X291010Y298385D01*
X290965Y298439D01*
X290923Y298494D01*
X290884Y298552D01*
X290849Y298612D01*
X290817Y298674D01*
X290789Y298738D01*
X290764Y298803D01*
X290743Y298869D01*
X290725Y298937D01*
X290712Y299005D01*
X290702Y299074D01*
X290696Y299143D01*
X290694Y299213D01*
X290694Y302317D01*
X290696Y302387D01*
X290702Y302456D01*
X290712Y302525D01*
X290725Y302593D01*
X290743Y302661D01*
X290764Y302727D01*
X290789Y302792D01*
X290817Y302856D01*
X290849Y302918D01*
X290884Y302978D01*
X290923Y303036D01*
X290965Y303091D01*
X291010Y303145D01*
X291058Y303195D01*
X291108Y303243D01*
X291162Y303288D01*
X291217Y303330D01*
X291275Y303369D01*
X291335Y303404D01*
X291397Y303436D01*
X291461Y303464D01*
X291526Y303489D01*
X291592Y303510D01*
X291660Y303528D01*
X291728Y303541D01*
X291797Y303551D01*
X291866Y303557D01*
X291936Y303559D01*
X293178Y303559D01*
X295283Y302317D02*
X296835Y303559D01*
X296835Y297971D01*
X295283Y297971D02*
X298387Y297971D01*
D13*
X453900Y226300D02*
X462400Y226300D01*
X453900Y226300D02*
X453900Y228800D01*
X477400Y226300D02*
X485900Y226300D01*
X485900Y228800D01*
X485900Y256300D02*
X477400Y256300D01*
X485900Y256300D02*
X485900Y253800D01*
X462400Y256300D02*
X453900Y256300D01*
X453900Y253800D01*
D10*
X452120Y259080D03*
D13*
X465017Y262255D02*
X465017Y267081D01*
X464481Y262255D02*
X465554Y262255D01*
X465554Y267081D02*
X464481Y267081D01*
X469110Y262255D02*
X470182Y262255D01*
X469110Y262255D02*
X469045Y262257D01*
X468981Y262263D01*
X468917Y262273D01*
X468853Y262286D01*
X468791Y262304D01*
X468730Y262325D01*
X468670Y262349D01*
X468612Y262378D01*
X468555Y262410D01*
X468501Y262445D01*
X468449Y262483D01*
X468399Y262525D01*
X468352Y262569D01*
X468308Y262616D01*
X468266Y262666D01*
X468228Y262718D01*
X468193Y262772D01*
X468161Y262829D01*
X468132Y262887D01*
X468108Y262947D01*
X468087Y263008D01*
X468069Y263070D01*
X468056Y263134D01*
X468046Y263198D01*
X468040Y263262D01*
X468038Y263327D01*
X468037Y263327D02*
X468037Y266009D01*
X468038Y266009D02*
X468040Y266074D01*
X468046Y266138D01*
X468056Y266202D01*
X468069Y266266D01*
X468087Y266328D01*
X468108Y266389D01*
X468132Y266449D01*
X468161Y266507D01*
X468193Y266564D01*
X468228Y266618D01*
X468266Y266670D01*
X468308Y266720D01*
X468352Y266767D01*
X468399Y266811D01*
X468449Y266853D01*
X468501Y266891D01*
X468555Y266926D01*
X468612Y266958D01*
X468670Y266987D01*
X468730Y267011D01*
X468791Y267032D01*
X468853Y267050D01*
X468917Y267063D01*
X468981Y267073D01*
X469045Y267079D01*
X469110Y267081D01*
X470182Y267081D01*
X474112Y267081D02*
X474180Y267079D01*
X474247Y267073D01*
X474314Y267064D01*
X474381Y267051D01*
X474446Y267034D01*
X474511Y267013D01*
X474574Y266989D01*
X474636Y266961D01*
X474696Y266930D01*
X474754Y266896D01*
X474810Y266858D01*
X474865Y266818D01*
X474916Y266774D01*
X474965Y266727D01*
X475012Y266678D01*
X475056Y266627D01*
X475096Y266572D01*
X475134Y266516D01*
X475168Y266458D01*
X475199Y266398D01*
X475227Y266336D01*
X475251Y266273D01*
X475272Y266208D01*
X475289Y266143D01*
X475302Y266076D01*
X475311Y266009D01*
X475317Y265942D01*
X475319Y265874D01*
X474112Y267081D02*
X474034Y267079D01*
X473956Y267073D01*
X473879Y267063D01*
X473802Y267050D01*
X473726Y267032D01*
X473651Y267011D01*
X473577Y266986D01*
X473505Y266957D01*
X473434Y266925D01*
X473365Y266889D01*
X473297Y266850D01*
X473232Y266807D01*
X473169Y266761D01*
X473108Y266712D01*
X473050Y266660D01*
X472995Y266605D01*
X472942Y266548D01*
X472893Y266488D01*
X472846Y266425D01*
X472803Y266361D01*
X472763Y266294D01*
X472726Y266225D01*
X472693Y266154D01*
X472663Y266082D01*
X472637Y266009D01*
X474917Y264936D02*
X474966Y264985D01*
X475013Y265037D01*
X475056Y265092D01*
X475097Y265149D01*
X475135Y265208D01*
X475169Y265269D01*
X475200Y265332D01*
X475228Y265396D01*
X475252Y265462D01*
X475272Y265528D01*
X475289Y265596D01*
X475302Y265665D01*
X475311Y265734D01*
X475317Y265804D01*
X475319Y265874D01*
X474917Y264936D02*
X472638Y262255D01*
X475319Y262255D01*
D12*
X231338Y266954D02*
X230096Y266954D01*
X230026Y266956D01*
X229957Y266962D01*
X229888Y266972D01*
X229820Y266985D01*
X229752Y267003D01*
X229686Y267024D01*
X229621Y267049D01*
X229557Y267077D01*
X229495Y267109D01*
X229435Y267144D01*
X229377Y267183D01*
X229322Y267225D01*
X229268Y267270D01*
X229218Y267318D01*
X229170Y267368D01*
X229125Y267422D01*
X229083Y267477D01*
X229044Y267535D01*
X229009Y267595D01*
X228977Y267657D01*
X228949Y267721D01*
X228924Y267786D01*
X228903Y267852D01*
X228885Y267920D01*
X228872Y267988D01*
X228862Y268057D01*
X228856Y268126D01*
X228854Y268196D01*
X228854Y271300D01*
X228856Y271370D01*
X228862Y271439D01*
X228872Y271508D01*
X228885Y271576D01*
X228903Y271644D01*
X228924Y271710D01*
X228949Y271775D01*
X228977Y271839D01*
X229009Y271901D01*
X229044Y271961D01*
X229083Y272019D01*
X229125Y272074D01*
X229170Y272128D01*
X229218Y272178D01*
X229268Y272226D01*
X229322Y272271D01*
X229377Y272313D01*
X229435Y272352D01*
X229495Y272387D01*
X229557Y272419D01*
X229621Y272447D01*
X229686Y272472D01*
X229752Y272493D01*
X229820Y272511D01*
X229888Y272524D01*
X229957Y272534D01*
X230026Y272540D01*
X230096Y272542D01*
X231338Y272542D01*
X233442Y271300D02*
X234994Y272542D01*
X234994Y266954D01*
X233442Y266954D02*
X236547Y266954D01*
X180538Y266954D02*
X179296Y266954D01*
X179226Y266956D01*
X179157Y266962D01*
X179088Y266972D01*
X179020Y266985D01*
X178952Y267003D01*
X178886Y267024D01*
X178821Y267049D01*
X178757Y267077D01*
X178695Y267109D01*
X178635Y267144D01*
X178577Y267183D01*
X178522Y267225D01*
X178468Y267270D01*
X178418Y267318D01*
X178370Y267368D01*
X178325Y267422D01*
X178283Y267477D01*
X178244Y267535D01*
X178209Y267595D01*
X178177Y267657D01*
X178149Y267721D01*
X178124Y267786D01*
X178103Y267852D01*
X178085Y267920D01*
X178072Y267988D01*
X178062Y268057D01*
X178056Y268126D01*
X178054Y268196D01*
X178054Y271300D01*
X178056Y271370D01*
X178062Y271439D01*
X178072Y271508D01*
X178085Y271576D01*
X178103Y271644D01*
X178124Y271710D01*
X178149Y271775D01*
X178177Y271839D01*
X178209Y271901D01*
X178244Y271961D01*
X178283Y272019D01*
X178325Y272074D01*
X178370Y272128D01*
X178418Y272178D01*
X178468Y272226D01*
X178522Y272271D01*
X178577Y272313D01*
X178635Y272352D01*
X178695Y272387D01*
X178757Y272419D01*
X178821Y272447D01*
X178886Y272472D01*
X178952Y272493D01*
X179020Y272511D01*
X179088Y272524D01*
X179157Y272534D01*
X179226Y272540D01*
X179296Y272542D01*
X180538Y272542D01*
X184350Y272542D02*
X184423Y272540D01*
X184496Y272534D01*
X184569Y272525D01*
X184640Y272511D01*
X184712Y272494D01*
X184782Y272474D01*
X184851Y272449D01*
X184918Y272421D01*
X184984Y272390D01*
X185049Y272355D01*
X185111Y272317D01*
X185171Y272275D01*
X185229Y272231D01*
X185285Y272183D01*
X185338Y272133D01*
X185388Y272080D01*
X185436Y272024D01*
X185480Y271966D01*
X185522Y271906D01*
X185560Y271844D01*
X185595Y271779D01*
X185626Y271713D01*
X185654Y271646D01*
X185679Y271577D01*
X185699Y271507D01*
X185716Y271435D01*
X185730Y271364D01*
X185739Y271291D01*
X185745Y271218D01*
X185747Y271145D01*
X184350Y272542D02*
X184266Y272540D01*
X184183Y272534D01*
X184100Y272525D01*
X184018Y272511D01*
X183936Y272494D01*
X183855Y272472D01*
X183775Y272447D01*
X183697Y272419D01*
X183619Y272387D01*
X183544Y272351D01*
X183470Y272312D01*
X183398Y272269D01*
X183328Y272223D01*
X183261Y272174D01*
X183195Y272121D01*
X183133Y272066D01*
X183073Y272008D01*
X183015Y271947D01*
X182961Y271884D01*
X182909Y271818D01*
X182861Y271750D01*
X182816Y271679D01*
X182774Y271607D01*
X182736Y271532D01*
X182701Y271456D01*
X182670Y271379D01*
X182642Y271300D01*
X185280Y270059D02*
X185334Y270112D01*
X185385Y270169D01*
X185433Y270228D01*
X185478Y270289D01*
X185519Y270352D01*
X185558Y270418D01*
X185593Y270485D01*
X185625Y270554D01*
X185653Y270625D01*
X185677Y270696D01*
X185698Y270769D01*
X185715Y270843D01*
X185729Y270918D01*
X185738Y270993D01*
X185744Y271069D01*
X185746Y271145D01*
X185281Y270058D02*
X182642Y266954D01*
X185747Y266954D01*
X484096Y190754D02*
X485338Y190754D01*
X484096Y190754D02*
X484026Y190756D01*
X483957Y190762D01*
X483888Y190772D01*
X483820Y190785D01*
X483752Y190803D01*
X483686Y190824D01*
X483621Y190849D01*
X483557Y190877D01*
X483495Y190909D01*
X483435Y190944D01*
X483377Y190983D01*
X483322Y191025D01*
X483268Y191070D01*
X483218Y191118D01*
X483170Y191168D01*
X483125Y191222D01*
X483083Y191277D01*
X483044Y191335D01*
X483009Y191395D01*
X482977Y191457D01*
X482949Y191521D01*
X482924Y191586D01*
X482903Y191652D01*
X482885Y191720D01*
X482872Y191788D01*
X482862Y191857D01*
X482856Y191926D01*
X482854Y191996D01*
X482854Y195100D01*
X482856Y195170D01*
X482862Y195239D01*
X482872Y195308D01*
X482885Y195376D01*
X482903Y195444D01*
X482924Y195510D01*
X482949Y195575D01*
X482977Y195639D01*
X483009Y195701D01*
X483044Y195761D01*
X483083Y195819D01*
X483125Y195874D01*
X483170Y195928D01*
X483218Y195978D01*
X483268Y196026D01*
X483322Y196071D01*
X483377Y196113D01*
X483435Y196152D01*
X483495Y196187D01*
X483557Y196219D01*
X483621Y196247D01*
X483686Y196272D01*
X483752Y196293D01*
X483820Y196311D01*
X483888Y196324D01*
X483957Y196334D01*
X484026Y196340D01*
X484096Y196342D01*
X485338Y196342D01*
X488684Y196342D02*
X487442Y191996D01*
X490547Y191996D01*
X489615Y193238D02*
X489615Y190754D01*
X129738Y266954D02*
X128496Y266954D01*
X128426Y266956D01*
X128357Y266962D01*
X128288Y266972D01*
X128220Y266985D01*
X128152Y267003D01*
X128086Y267024D01*
X128021Y267049D01*
X127957Y267077D01*
X127895Y267109D01*
X127835Y267144D01*
X127777Y267183D01*
X127722Y267225D01*
X127668Y267270D01*
X127618Y267318D01*
X127570Y267368D01*
X127525Y267422D01*
X127483Y267477D01*
X127444Y267535D01*
X127409Y267595D01*
X127377Y267657D01*
X127349Y267721D01*
X127324Y267786D01*
X127303Y267852D01*
X127285Y267920D01*
X127272Y267988D01*
X127262Y268057D01*
X127256Y268126D01*
X127254Y268196D01*
X127254Y271300D01*
X127256Y271370D01*
X127262Y271439D01*
X127272Y271508D01*
X127285Y271576D01*
X127303Y271644D01*
X127324Y271710D01*
X127349Y271775D01*
X127377Y271839D01*
X127409Y271901D01*
X127444Y271961D01*
X127483Y272019D01*
X127525Y272074D01*
X127570Y272128D01*
X127618Y272178D01*
X127668Y272226D01*
X127722Y272271D01*
X127777Y272313D01*
X127835Y272352D01*
X127895Y272387D01*
X127957Y272419D01*
X128021Y272447D01*
X128086Y272472D01*
X128152Y272493D01*
X128220Y272511D01*
X128288Y272524D01*
X128357Y272534D01*
X128426Y272540D01*
X128496Y272542D01*
X129738Y272542D01*
X131842Y270058D02*
X133705Y270058D01*
X133705Y270059D02*
X133775Y270057D01*
X133844Y270051D01*
X133913Y270041D01*
X133981Y270028D01*
X134049Y270010D01*
X134115Y269989D01*
X134180Y269964D01*
X134244Y269936D01*
X134306Y269904D01*
X134366Y269869D01*
X134424Y269830D01*
X134479Y269788D01*
X134533Y269743D01*
X134583Y269695D01*
X134631Y269645D01*
X134676Y269591D01*
X134718Y269536D01*
X134757Y269478D01*
X134792Y269418D01*
X134824Y269356D01*
X134852Y269292D01*
X134877Y269227D01*
X134898Y269161D01*
X134916Y269093D01*
X134929Y269025D01*
X134939Y268956D01*
X134945Y268887D01*
X134947Y268817D01*
X134947Y268506D01*
X134946Y268506D02*
X134944Y268429D01*
X134938Y268351D01*
X134929Y268275D01*
X134915Y268198D01*
X134898Y268123D01*
X134877Y268049D01*
X134852Y267975D01*
X134824Y267903D01*
X134792Y267833D01*
X134757Y267764D01*
X134718Y267697D01*
X134676Y267632D01*
X134631Y267569D01*
X134583Y267508D01*
X134532Y267450D01*
X134478Y267395D01*
X134421Y267342D01*
X134362Y267293D01*
X134300Y267246D01*
X134236Y267202D01*
X134170Y267162D01*
X134102Y267125D01*
X134032Y267091D01*
X133961Y267061D01*
X133888Y267035D01*
X133814Y267012D01*
X133739Y266993D01*
X133664Y266978D01*
X133587Y266966D01*
X133510Y266958D01*
X133433Y266954D01*
X133355Y266954D01*
X133278Y266958D01*
X133201Y266966D01*
X133124Y266978D01*
X133049Y266993D01*
X132974Y267012D01*
X132900Y267035D01*
X132827Y267061D01*
X132756Y267091D01*
X132686Y267125D01*
X132618Y267162D01*
X132552Y267202D01*
X132488Y267246D01*
X132426Y267293D01*
X132367Y267342D01*
X132310Y267395D01*
X132256Y267450D01*
X132205Y267508D01*
X132157Y267569D01*
X132112Y267632D01*
X132070Y267697D01*
X132031Y267764D01*
X131996Y267833D01*
X131964Y267903D01*
X131936Y267975D01*
X131911Y268049D01*
X131890Y268123D01*
X131873Y268198D01*
X131859Y268275D01*
X131850Y268351D01*
X131844Y268429D01*
X131842Y268506D01*
X131842Y270058D01*
X131844Y270156D01*
X131850Y270253D01*
X131859Y270350D01*
X131873Y270447D01*
X131890Y270543D01*
X131911Y270638D01*
X131935Y270732D01*
X131964Y270826D01*
X131996Y270918D01*
X132031Y271009D01*
X132070Y271098D01*
X132113Y271186D01*
X132159Y271272D01*
X132208Y271356D01*
X132261Y271438D01*
X132316Y271518D01*
X132375Y271596D01*
X132437Y271671D01*
X132502Y271744D01*
X132570Y271814D01*
X132640Y271882D01*
X132713Y271947D01*
X132788Y272009D01*
X132866Y272068D01*
X132946Y272123D01*
X133028Y272176D01*
X133112Y272225D01*
X133198Y272271D01*
X133286Y272314D01*
X133375Y272353D01*
X133466Y272388D01*
X133558Y272420D01*
X133652Y272449D01*
X133746Y272473D01*
X133841Y272494D01*
X133937Y272511D01*
X134034Y272525D01*
X134131Y272534D01*
X134228Y272540D01*
X134326Y272542D01*
D14*
X452600Y385600D02*
X512600Y385600D01*
X512600Y325600D02*
X452600Y325600D01*
X452600Y345600D02*
X452600Y365600D01*
X512600Y365600D02*
X512600Y345600D01*
D15*
X528600Y335600D03*
D16*
X528602Y335538D01*
X528608Y335477D01*
X528617Y335416D01*
X528630Y335356D01*
X528647Y335297D01*
X528668Y335239D01*
X528692Y335182D01*
X528719Y335127D01*
X528750Y335074D01*
X528784Y335022D01*
X528821Y334973D01*
X528861Y334926D01*
X528904Y334882D01*
X528949Y334841D01*
X528997Y334802D01*
X529048Y334766D01*
X529100Y334734D01*
X529154Y334705D01*
X529210Y334679D01*
X529268Y334657D01*
X529326Y334638D01*
X529386Y334623D01*
X529447Y334612D01*
X529508Y334604D01*
X529569Y334600D01*
X529631Y334600D01*
X529692Y334604D01*
X529753Y334612D01*
X529814Y334623D01*
X529874Y334638D01*
X529932Y334657D01*
X529990Y334679D01*
X530046Y334705D01*
X530100Y334734D01*
X530152Y334766D01*
X530203Y334802D01*
X530251Y334841D01*
X530296Y334882D01*
X530339Y334926D01*
X530379Y334973D01*
X530416Y335022D01*
X530450Y335074D01*
X530481Y335127D01*
X530508Y335182D01*
X530532Y335239D01*
X530553Y335297D01*
X530570Y335356D01*
X530583Y335416D01*
X530592Y335477D01*
X530598Y335538D01*
X530600Y335600D01*
D15*
X530600Y335600D03*
D16*
X530598Y335662D01*
X530592Y335723D01*
X530583Y335784D01*
X530570Y335844D01*
X530553Y335903D01*
X530532Y335961D01*
X530508Y336018D01*
X530481Y336073D01*
X530450Y336126D01*
X530416Y336178D01*
X530379Y336227D01*
X530339Y336274D01*
X530296Y336318D01*
X530251Y336359D01*
X530203Y336398D01*
X530152Y336434D01*
X530100Y336466D01*
X530046Y336495D01*
X529990Y336521D01*
X529932Y336543D01*
X529874Y336562D01*
X529814Y336577D01*
X529753Y336588D01*
X529692Y336596D01*
X529631Y336600D01*
X529569Y336600D01*
X529508Y336596D01*
X529447Y336588D01*
X529386Y336577D01*
X529326Y336562D01*
X529268Y336543D01*
X529210Y336521D01*
X529154Y336495D01*
X529100Y336466D01*
X529048Y336434D01*
X528997Y336398D01*
X528949Y336359D01*
X528904Y336318D01*
X528861Y336274D01*
X528821Y336227D01*
X528784Y336178D01*
X528750Y336126D01*
X528719Y336073D01*
X528692Y336018D01*
X528668Y335961D01*
X528647Y335903D01*
X528630Y335844D01*
X528617Y335784D01*
X528608Y335723D01*
X528602Y335662D01*
X528600Y335600D01*
D12*
X441424Y401066D02*
X441424Y406654D01*
X442976Y406654D01*
X443052Y406652D01*
X443128Y406647D01*
X443204Y406637D01*
X443279Y406624D01*
X443353Y406607D01*
X443427Y406587D01*
X443499Y406563D01*
X443570Y406536D01*
X443640Y406505D01*
X443708Y406471D01*
X443774Y406433D01*
X443838Y406392D01*
X443901Y406349D01*
X443961Y406302D01*
X444018Y406252D01*
X444073Y406199D01*
X444126Y406144D01*
X444176Y406087D01*
X444223Y406027D01*
X444266Y405964D01*
X444307Y405900D01*
X444345Y405834D01*
X444379Y405766D01*
X444410Y405696D01*
X444437Y405625D01*
X444461Y405552D01*
X444481Y405479D01*
X444498Y405405D01*
X444511Y405330D01*
X444521Y405254D01*
X444526Y405178D01*
X444528Y405102D01*
X444528Y402618D01*
X444526Y402539D01*
X444520Y402461D01*
X444510Y402383D01*
X444496Y402306D01*
X444478Y402229D01*
X444457Y402153D01*
X444431Y402079D01*
X444402Y402006D01*
X444369Y401935D01*
X444333Y401865D01*
X444293Y401797D01*
X444250Y401731D01*
X444203Y401668D01*
X444154Y401607D01*
X444101Y401549D01*
X444045Y401493D01*
X443987Y401440D01*
X443926Y401391D01*
X443863Y401344D01*
X443797Y401301D01*
X443729Y401261D01*
X443660Y401225D01*
X443588Y401192D01*
X443515Y401163D01*
X443441Y401137D01*
X443365Y401116D01*
X443288Y401098D01*
X443211Y401084D01*
X443133Y401074D01*
X443055Y401068D01*
X442976Y401066D01*
X441424Y401066D01*
X447093Y402618D02*
X447093Y405102D01*
X447095Y405179D01*
X447101Y405257D01*
X447110Y405333D01*
X447124Y405410D01*
X447141Y405485D01*
X447162Y405559D01*
X447187Y405633D01*
X447215Y405705D01*
X447247Y405775D01*
X447282Y405844D01*
X447321Y405911D01*
X447363Y405976D01*
X447408Y406039D01*
X447456Y406100D01*
X447507Y406158D01*
X447561Y406213D01*
X447618Y406266D01*
X447677Y406315D01*
X447739Y406362D01*
X447803Y406406D01*
X447869Y406446D01*
X447937Y406483D01*
X448007Y406517D01*
X448078Y406547D01*
X448151Y406573D01*
X448225Y406596D01*
X448300Y406615D01*
X448375Y406630D01*
X448452Y406642D01*
X448529Y406650D01*
X448606Y406654D01*
X448684Y406654D01*
X448761Y406650D01*
X448838Y406642D01*
X448915Y406630D01*
X448990Y406615D01*
X449065Y406596D01*
X449139Y406573D01*
X449212Y406547D01*
X449283Y406517D01*
X449353Y406483D01*
X449421Y406446D01*
X449487Y406406D01*
X449551Y406362D01*
X449613Y406315D01*
X449672Y406266D01*
X449729Y406213D01*
X449783Y406158D01*
X449834Y406100D01*
X449882Y406039D01*
X449927Y405976D01*
X449969Y405911D01*
X450008Y405844D01*
X450043Y405775D01*
X450075Y405705D01*
X450103Y405633D01*
X450128Y405559D01*
X450149Y405485D01*
X450166Y405410D01*
X450180Y405333D01*
X450189Y405257D01*
X450195Y405179D01*
X450197Y405102D01*
X450198Y405102D02*
X450198Y402618D01*
X450197Y402618D02*
X450195Y402541D01*
X450189Y402463D01*
X450180Y402387D01*
X450166Y402310D01*
X450149Y402235D01*
X450128Y402161D01*
X450103Y402087D01*
X450075Y402015D01*
X450043Y401945D01*
X450008Y401876D01*
X449969Y401809D01*
X449927Y401744D01*
X449882Y401681D01*
X449834Y401620D01*
X449783Y401562D01*
X449729Y401507D01*
X449672Y401454D01*
X449613Y401405D01*
X449551Y401358D01*
X449487Y401314D01*
X449421Y401274D01*
X449353Y401237D01*
X449283Y401203D01*
X449212Y401173D01*
X449139Y401147D01*
X449065Y401124D01*
X448990Y401105D01*
X448915Y401090D01*
X448838Y401078D01*
X448761Y401070D01*
X448684Y401066D01*
X448606Y401066D01*
X448529Y401070D01*
X448452Y401078D01*
X448375Y401090D01*
X448300Y401105D01*
X448225Y401124D01*
X448151Y401147D01*
X448078Y401173D01*
X448007Y401203D01*
X447937Y401237D01*
X447869Y401274D01*
X447803Y401314D01*
X447739Y401358D01*
X447677Y401405D01*
X447618Y401454D01*
X447561Y401507D01*
X447507Y401562D01*
X447456Y401620D01*
X447408Y401681D01*
X447363Y401744D01*
X447321Y401809D01*
X447282Y401876D01*
X447247Y401945D01*
X447215Y402015D01*
X447187Y402087D01*
X447162Y402161D01*
X447141Y402235D01*
X447124Y402310D01*
X447110Y402387D01*
X447101Y402463D01*
X447095Y402541D01*
X447093Y402618D01*
X452380Y406654D02*
X453621Y401066D01*
X454863Y404791D01*
X456105Y401066D01*
X457347Y406654D01*
X459712Y406654D02*
X459712Y401066D01*
X462816Y401066D02*
X459712Y406654D01*
X462816Y406654D02*
X462816Y401066D01*
D17*
X527800Y98700D02*
X527800Y53700D01*
X485300Y53700D01*
X462800Y53700D01*
X462800Y76200D01*
X462800Y98700D01*
X527800Y98700D01*
X485300Y76200D02*
X462800Y76200D01*
X485300Y76200D02*
X485300Y53700D01*
D18*
X454792Y57272D02*
X449712Y57272D01*
X454792Y56708D02*
X454792Y57837D01*
X449712Y57837D02*
X449712Y56708D01*
X454792Y61761D02*
X454790Y61827D01*
X454784Y61892D01*
X454775Y61957D01*
X454762Y62021D01*
X454745Y62085D01*
X454724Y62147D01*
X454700Y62208D01*
X454672Y62268D01*
X454641Y62326D01*
X454606Y62381D01*
X454569Y62435D01*
X454528Y62487D01*
X454484Y62536D01*
X454438Y62582D01*
X454389Y62626D01*
X454337Y62667D01*
X454283Y62704D01*
X454228Y62739D01*
X454170Y62770D01*
X454110Y62798D01*
X454049Y62822D01*
X453987Y62843D01*
X453923Y62860D01*
X453859Y62873D01*
X453794Y62882D01*
X453729Y62888D01*
X453663Y62890D01*
X454792Y61761D02*
X454790Y61667D01*
X454785Y61573D01*
X454775Y61479D01*
X454762Y61386D01*
X454746Y61293D01*
X454725Y61201D01*
X454702Y61110D01*
X454674Y61020D01*
X454643Y60931D01*
X454609Y60844D01*
X454571Y60758D01*
X454529Y60673D01*
X454485Y60590D01*
X454437Y60509D01*
X454386Y60430D01*
X454332Y60353D01*
X454275Y60278D01*
X454215Y60205D01*
X454152Y60135D01*
X454086Y60068D01*
X450841Y60209D02*
X450775Y60211D01*
X450710Y60217D01*
X450645Y60226D01*
X450581Y60239D01*
X450517Y60256D01*
X450455Y60277D01*
X450394Y60301D01*
X450334Y60329D01*
X450277Y60360D01*
X450221Y60395D01*
X450167Y60432D01*
X450115Y60473D01*
X450066Y60517D01*
X450020Y60563D01*
X449976Y60612D01*
X449935Y60664D01*
X449898Y60718D01*
X449863Y60774D01*
X449832Y60831D01*
X449804Y60891D01*
X449780Y60952D01*
X449759Y61014D01*
X449742Y61078D01*
X449729Y61142D01*
X449720Y61207D01*
X449714Y61272D01*
X449712Y61338D01*
X449714Y61429D01*
X449720Y61519D01*
X449730Y61610D01*
X449743Y61700D01*
X449761Y61789D01*
X449782Y61877D01*
X449807Y61964D01*
X449835Y62050D01*
X449868Y62135D01*
X449904Y62219D01*
X449943Y62300D01*
X449986Y62380D01*
X450033Y62458D01*
X450082Y62534D01*
X450135Y62608D01*
X451829Y60773D02*
X451794Y60717D01*
X451756Y60663D01*
X451714Y60611D01*
X451670Y60562D01*
X451623Y60516D01*
X451573Y60472D01*
X451521Y60431D01*
X451467Y60394D01*
X451410Y60359D01*
X451352Y60328D01*
X451292Y60300D01*
X451230Y60276D01*
X451167Y60255D01*
X451103Y60238D01*
X451039Y60225D01*
X450973Y60216D01*
X450907Y60210D01*
X450841Y60208D01*
X452675Y62325D02*
X452710Y62381D01*
X452748Y62435D01*
X452790Y62487D01*
X452834Y62536D01*
X452881Y62582D01*
X452931Y62626D01*
X452983Y62667D01*
X453037Y62704D01*
X453094Y62739D01*
X453152Y62770D01*
X453212Y62798D01*
X453274Y62822D01*
X453337Y62843D01*
X453401Y62860D01*
X453466Y62873D01*
X453531Y62882D01*
X453597Y62888D01*
X453663Y62890D01*
X452675Y62325D02*
X451829Y60773D01*
X449712Y65679D02*
X454792Y65679D01*
X449712Y65679D02*
X449712Y67090D01*
X449714Y67164D01*
X449720Y67237D01*
X449729Y67311D01*
X449743Y67383D01*
X449760Y67455D01*
X449781Y67526D01*
X449806Y67596D01*
X449834Y67664D01*
X449866Y67731D01*
X449901Y67796D01*
X449940Y67858D01*
X449981Y67919D01*
X450026Y67978D01*
X450074Y68034D01*
X450125Y68088D01*
X450179Y68139D01*
X450235Y68187D01*
X450294Y68232D01*
X450355Y68273D01*
X450418Y68312D01*
X450482Y68347D01*
X450549Y68379D01*
X450617Y68407D01*
X450687Y68432D01*
X450758Y68453D01*
X450830Y68470D01*
X450902Y68484D01*
X450976Y68493D01*
X451049Y68499D01*
X451123Y68501D01*
X451197Y68499D01*
X451270Y68493D01*
X451344Y68484D01*
X451416Y68470D01*
X451488Y68453D01*
X451559Y68432D01*
X451629Y68407D01*
X451697Y68379D01*
X451764Y68347D01*
X451829Y68312D01*
X451891Y68273D01*
X451952Y68232D01*
X452011Y68187D01*
X452067Y68139D01*
X452121Y68088D01*
X452172Y68034D01*
X452220Y67978D01*
X452265Y67919D01*
X452306Y67858D01*
X452345Y67796D01*
X452380Y67731D01*
X452412Y67664D01*
X452440Y67596D01*
X452465Y67526D01*
X452486Y67455D01*
X452503Y67383D01*
X452517Y67311D01*
X452526Y67237D01*
X452532Y67164D01*
X452534Y67090D01*
X452534Y65679D01*
X455356Y70591D02*
X455356Y72849D01*
X454792Y75429D02*
X449712Y75429D01*
X451970Y75429D02*
X451970Y78252D01*
X449712Y78252D02*
X454792Y78252D01*
X454792Y81298D02*
X454792Y83556D01*
X454792Y81298D02*
X449712Y81298D01*
X449712Y83556D01*
X451970Y82992D02*
X451970Y81298D01*
X454792Y85571D02*
X449712Y87265D01*
X454792Y88958D01*
X453522Y88535D02*
X453522Y85995D01*
X454792Y91523D02*
X449712Y91523D01*
X449712Y92934D01*
X449714Y93008D01*
X449720Y93081D01*
X449729Y93155D01*
X449743Y93227D01*
X449760Y93299D01*
X449781Y93370D01*
X449806Y93440D01*
X449834Y93508D01*
X449866Y93575D01*
X449901Y93640D01*
X449940Y93702D01*
X449981Y93763D01*
X450026Y93822D01*
X450074Y93878D01*
X450125Y93932D01*
X450179Y93983D01*
X450235Y94031D01*
X450294Y94076D01*
X450355Y94117D01*
X450418Y94156D01*
X450482Y94191D01*
X450549Y94223D01*
X450617Y94251D01*
X450687Y94276D01*
X450758Y94297D01*
X450830Y94314D01*
X450902Y94328D01*
X450976Y94337D01*
X451049Y94343D01*
X451123Y94345D01*
X453381Y94345D01*
X453455Y94343D01*
X453528Y94337D01*
X453602Y94328D01*
X453674Y94314D01*
X453746Y94297D01*
X453817Y94276D01*
X453887Y94251D01*
X453955Y94223D01*
X454022Y94191D01*
X454087Y94156D01*
X454149Y94117D01*
X454210Y94076D01*
X454269Y94031D01*
X454325Y93983D01*
X454379Y93932D01*
X454430Y93878D01*
X454478Y93822D01*
X454523Y93763D01*
X454564Y93702D01*
X454603Y93639D01*
X454638Y93575D01*
X454670Y93508D01*
X454698Y93440D01*
X454723Y93370D01*
X454744Y93299D01*
X454761Y93227D01*
X454775Y93155D01*
X454784Y93081D01*
X454790Y93008D01*
X454792Y92934D01*
X454792Y91523D01*
X454792Y97392D02*
X454792Y99649D01*
X454792Y97392D02*
X449712Y97392D01*
X449712Y99649D01*
X451970Y99085D02*
X451970Y97392D01*
X449712Y102184D02*
X454792Y102184D01*
X449712Y102184D02*
X449712Y103595D01*
X449714Y103669D01*
X449720Y103742D01*
X449729Y103816D01*
X449743Y103888D01*
X449760Y103960D01*
X449781Y104031D01*
X449806Y104101D01*
X449834Y104169D01*
X449866Y104236D01*
X449901Y104301D01*
X449940Y104363D01*
X449981Y104424D01*
X450026Y104483D01*
X450074Y104539D01*
X450125Y104593D01*
X450179Y104644D01*
X450235Y104692D01*
X450294Y104737D01*
X450355Y104778D01*
X450418Y104817D01*
X450482Y104852D01*
X450549Y104884D01*
X450617Y104912D01*
X450687Y104937D01*
X450758Y104958D01*
X450830Y104975D01*
X450902Y104989D01*
X450976Y104998D01*
X451049Y105004D01*
X451123Y105006D01*
X451197Y105004D01*
X451270Y104998D01*
X451344Y104989D01*
X451416Y104975D01*
X451488Y104958D01*
X451559Y104937D01*
X451629Y104912D01*
X451697Y104884D01*
X451764Y104852D01*
X451829Y104817D01*
X451891Y104778D01*
X451952Y104737D01*
X452011Y104692D01*
X452067Y104644D01*
X452121Y104593D01*
X452172Y104539D01*
X452220Y104483D01*
X452265Y104424D01*
X452306Y104363D01*
X452345Y104301D01*
X452380Y104236D01*
X452412Y104169D01*
X452440Y104101D01*
X452465Y104031D01*
X452486Y103960D01*
X452503Y103888D01*
X452517Y103816D01*
X452526Y103742D01*
X452532Y103669D01*
X452534Y103595D01*
X452534Y102184D01*
X452534Y103878D02*
X454792Y105006D01*
D14*
X258600Y385600D02*
X198600Y385600D01*
X198600Y325600D02*
X258600Y325600D01*
X198600Y345600D02*
X198600Y365600D01*
X258600Y365600D02*
X258600Y345600D01*
D15*
X274600Y335600D03*
D16*
X274602Y335538D01*
X274608Y335477D01*
X274617Y335416D01*
X274630Y335356D01*
X274647Y335297D01*
X274668Y335239D01*
X274692Y335182D01*
X274719Y335127D01*
X274750Y335074D01*
X274784Y335022D01*
X274821Y334973D01*
X274861Y334926D01*
X274904Y334882D01*
X274949Y334841D01*
X274997Y334802D01*
X275048Y334766D01*
X275100Y334734D01*
X275154Y334705D01*
X275210Y334679D01*
X275268Y334657D01*
X275326Y334638D01*
X275386Y334623D01*
X275447Y334612D01*
X275508Y334604D01*
X275569Y334600D01*
X275631Y334600D01*
X275692Y334604D01*
X275753Y334612D01*
X275814Y334623D01*
X275874Y334638D01*
X275932Y334657D01*
X275990Y334679D01*
X276046Y334705D01*
X276100Y334734D01*
X276152Y334766D01*
X276203Y334802D01*
X276251Y334841D01*
X276296Y334882D01*
X276339Y334926D01*
X276379Y334973D01*
X276416Y335022D01*
X276450Y335074D01*
X276481Y335127D01*
X276508Y335182D01*
X276532Y335239D01*
X276553Y335297D01*
X276570Y335356D01*
X276583Y335416D01*
X276592Y335477D01*
X276598Y335538D01*
X276600Y335600D01*
D15*
X276600Y335600D03*
D16*
X276598Y335662D01*
X276592Y335723D01*
X276583Y335784D01*
X276570Y335844D01*
X276553Y335903D01*
X276532Y335961D01*
X276508Y336018D01*
X276481Y336073D01*
X276450Y336126D01*
X276416Y336178D01*
X276379Y336227D01*
X276339Y336274D01*
X276296Y336318D01*
X276251Y336359D01*
X276203Y336398D01*
X276152Y336434D01*
X276100Y336466D01*
X276046Y336495D01*
X275990Y336521D01*
X275932Y336543D01*
X275874Y336562D01*
X275814Y336577D01*
X275753Y336588D01*
X275692Y336596D01*
X275631Y336600D01*
X275569Y336600D01*
X275508Y336596D01*
X275447Y336588D01*
X275386Y336577D01*
X275326Y336562D01*
X275268Y336543D01*
X275210Y336521D01*
X275154Y336495D01*
X275100Y336466D01*
X275048Y336434D01*
X274997Y336398D01*
X274949Y336359D01*
X274904Y336318D01*
X274861Y336274D01*
X274821Y336227D01*
X274784Y336178D01*
X274750Y336126D01*
X274719Y336073D01*
X274692Y336018D01*
X274668Y335961D01*
X274647Y335903D01*
X274630Y335844D01*
X274617Y335784D01*
X274608Y335723D01*
X274602Y335662D01*
X274600Y335600D01*
D12*
X185460Y403606D02*
X185460Y409194D01*
X187323Y406090D01*
X189185Y409194D01*
X189185Y403606D01*
X192000Y403606D02*
X194483Y403606D01*
X192000Y403606D02*
X192000Y409194D01*
X194483Y409194D01*
X193862Y406710D02*
X192000Y406710D01*
X196743Y409194D02*
X196743Y403606D01*
X199848Y403606D02*
X196743Y409194D01*
X199848Y409194D02*
X199848Y403606D01*
X202595Y405158D02*
X202595Y409194D01*
X202596Y405158D02*
X202598Y405081D01*
X202604Y405003D01*
X202613Y404927D01*
X202627Y404850D01*
X202644Y404775D01*
X202665Y404701D01*
X202690Y404627D01*
X202718Y404555D01*
X202750Y404485D01*
X202785Y404416D01*
X202824Y404349D01*
X202866Y404284D01*
X202911Y404221D01*
X202959Y404160D01*
X203010Y404102D01*
X203064Y404047D01*
X203121Y403994D01*
X203180Y403945D01*
X203242Y403898D01*
X203306Y403854D01*
X203372Y403814D01*
X203440Y403777D01*
X203510Y403743D01*
X203581Y403713D01*
X203654Y403687D01*
X203728Y403664D01*
X203803Y403645D01*
X203878Y403630D01*
X203955Y403618D01*
X204032Y403610D01*
X204109Y403606D01*
X204187Y403606D01*
X204264Y403610D01*
X204341Y403618D01*
X204418Y403630D01*
X204493Y403645D01*
X204568Y403664D01*
X204642Y403687D01*
X204715Y403713D01*
X204786Y403743D01*
X204856Y403777D01*
X204924Y403814D01*
X204990Y403854D01*
X205054Y403898D01*
X205116Y403945D01*
X205175Y403994D01*
X205232Y404047D01*
X205286Y404102D01*
X205337Y404160D01*
X205385Y404221D01*
X205430Y404284D01*
X205472Y404349D01*
X205511Y404416D01*
X205546Y404485D01*
X205578Y404555D01*
X205606Y404627D01*
X205631Y404701D01*
X205652Y404775D01*
X205669Y404850D01*
X205683Y404927D01*
X205692Y405003D01*
X205698Y405081D01*
X205700Y405158D01*
X205700Y409194D01*
X492841Y157226D02*
X492841Y151638D01*
X492841Y157226D02*
X494394Y157226D01*
X494471Y157224D01*
X494549Y157218D01*
X494625Y157209D01*
X494702Y157195D01*
X494777Y157178D01*
X494851Y157157D01*
X494925Y157132D01*
X494997Y157104D01*
X495067Y157072D01*
X495136Y157037D01*
X495203Y156998D01*
X495268Y156956D01*
X495331Y156911D01*
X495392Y156863D01*
X495450Y156812D01*
X495505Y156758D01*
X495558Y156701D01*
X495607Y156642D01*
X495654Y156580D01*
X495698Y156516D01*
X495738Y156450D01*
X495775Y156382D01*
X495809Y156312D01*
X495839Y156241D01*
X495865Y156168D01*
X495888Y156094D01*
X495907Y156019D01*
X495922Y155944D01*
X495934Y155867D01*
X495942Y155790D01*
X495946Y155713D01*
X495946Y155635D01*
X495942Y155558D01*
X495934Y155481D01*
X495922Y155404D01*
X495907Y155329D01*
X495888Y155254D01*
X495865Y155180D01*
X495839Y155107D01*
X495809Y155036D01*
X495775Y154966D01*
X495738Y154898D01*
X495698Y154832D01*
X495654Y154768D01*
X495607Y154706D01*
X495558Y154647D01*
X495505Y154590D01*
X495450Y154536D01*
X495392Y154485D01*
X495331Y154437D01*
X495268Y154392D01*
X495203Y154350D01*
X495136Y154311D01*
X495067Y154276D01*
X494997Y154244D01*
X494925Y154216D01*
X494851Y154191D01*
X494777Y154170D01*
X494702Y154153D01*
X494625Y154139D01*
X494549Y154130D01*
X494471Y154124D01*
X494394Y154122D01*
X492841Y154122D01*
X494704Y154122D02*
X495946Y151638D01*
X498292Y155984D02*
X499844Y157226D01*
X499844Y151638D01*
X498292Y151638D02*
X501396Y151638D01*
D14*
X131600Y385600D02*
X71600Y385600D01*
X71600Y325600D02*
X131600Y325600D01*
X71600Y345600D02*
X71600Y365600D01*
X131600Y365600D02*
X131600Y345600D01*
D15*
X147600Y335600D03*
D16*
X147602Y335538D01*
X147608Y335477D01*
X147617Y335416D01*
X147630Y335356D01*
X147647Y335297D01*
X147668Y335239D01*
X147692Y335182D01*
X147719Y335127D01*
X147750Y335074D01*
X147784Y335022D01*
X147821Y334973D01*
X147861Y334926D01*
X147904Y334882D01*
X147949Y334841D01*
X147997Y334802D01*
X148048Y334766D01*
X148100Y334734D01*
X148154Y334705D01*
X148210Y334679D01*
X148268Y334657D01*
X148326Y334638D01*
X148386Y334623D01*
X148447Y334612D01*
X148508Y334604D01*
X148569Y334600D01*
X148631Y334600D01*
X148692Y334604D01*
X148753Y334612D01*
X148814Y334623D01*
X148874Y334638D01*
X148932Y334657D01*
X148990Y334679D01*
X149046Y334705D01*
X149100Y334734D01*
X149152Y334766D01*
X149203Y334802D01*
X149251Y334841D01*
X149296Y334882D01*
X149339Y334926D01*
X149379Y334973D01*
X149416Y335022D01*
X149450Y335074D01*
X149481Y335127D01*
X149508Y335182D01*
X149532Y335239D01*
X149553Y335297D01*
X149570Y335356D01*
X149583Y335416D01*
X149592Y335477D01*
X149598Y335538D01*
X149600Y335600D01*
D15*
X149600Y335600D03*
D16*
X149598Y335662D01*
X149592Y335723D01*
X149583Y335784D01*
X149570Y335844D01*
X149553Y335903D01*
X149532Y335961D01*
X149508Y336018D01*
X149481Y336073D01*
X149450Y336126D01*
X149416Y336178D01*
X149379Y336227D01*
X149339Y336274D01*
X149296Y336318D01*
X149251Y336359D01*
X149203Y336398D01*
X149152Y336434D01*
X149100Y336466D01*
X149046Y336495D01*
X148990Y336521D01*
X148932Y336543D01*
X148874Y336562D01*
X148814Y336577D01*
X148753Y336588D01*
X148692Y336596D01*
X148631Y336600D01*
X148569Y336600D01*
X148508Y336596D01*
X148447Y336588D01*
X148386Y336577D01*
X148326Y336562D01*
X148268Y336543D01*
X148210Y336521D01*
X148154Y336495D01*
X148100Y336466D01*
X148048Y336434D01*
X147997Y336398D01*
X147949Y336359D01*
X147904Y336318D01*
X147861Y336274D01*
X147821Y336227D01*
X147784Y336178D01*
X147750Y336126D01*
X147719Y336073D01*
X147692Y336018D01*
X147668Y335961D01*
X147647Y335903D01*
X147630Y335844D01*
X147617Y335784D01*
X147608Y335723D01*
X147602Y335662D01*
X147600Y335600D01*
D12*
X60229Y406146D02*
X60229Y411734D01*
X61781Y411734D01*
X61858Y411732D01*
X61936Y411726D01*
X62012Y411717D01*
X62089Y411703D01*
X62164Y411686D01*
X62238Y411665D01*
X62312Y411640D01*
X62384Y411612D01*
X62454Y411580D01*
X62523Y411545D01*
X62590Y411506D01*
X62655Y411464D01*
X62718Y411419D01*
X62779Y411371D01*
X62837Y411320D01*
X62892Y411266D01*
X62945Y411209D01*
X62994Y411150D01*
X63041Y411088D01*
X63085Y411024D01*
X63125Y410958D01*
X63162Y410890D01*
X63196Y410820D01*
X63226Y410749D01*
X63252Y410676D01*
X63275Y410602D01*
X63294Y410527D01*
X63309Y410452D01*
X63321Y410375D01*
X63329Y410298D01*
X63333Y410221D01*
X63333Y410143D01*
X63329Y410066D01*
X63321Y409989D01*
X63309Y409912D01*
X63294Y409837D01*
X63275Y409762D01*
X63252Y409688D01*
X63226Y409615D01*
X63196Y409544D01*
X63162Y409474D01*
X63125Y409406D01*
X63085Y409340D01*
X63041Y409276D01*
X62994Y409214D01*
X62945Y409155D01*
X62892Y409098D01*
X62837Y409044D01*
X62779Y408993D01*
X62718Y408945D01*
X62655Y408900D01*
X62590Y408858D01*
X62523Y408819D01*
X62454Y408784D01*
X62384Y408752D01*
X62312Y408724D01*
X62238Y408699D01*
X62164Y408678D01*
X62089Y408661D01*
X62012Y408647D01*
X61936Y408638D01*
X61858Y408632D01*
X61781Y408630D01*
X60229Y408630D01*
X62091Y408630D02*
X63333Y406146D01*
X65873Y406146D02*
X68356Y406146D01*
X65873Y406146D02*
X65873Y411734D01*
X68356Y411734D01*
X67736Y409250D02*
X65873Y409250D01*
X72114Y406146D02*
X72184Y406148D01*
X72253Y406154D01*
X72322Y406164D01*
X72390Y406177D01*
X72458Y406195D01*
X72524Y406216D01*
X72589Y406241D01*
X72653Y406269D01*
X72715Y406301D01*
X72775Y406336D01*
X72833Y406375D01*
X72888Y406417D01*
X72942Y406462D01*
X72992Y406510D01*
X73040Y406560D01*
X73085Y406614D01*
X73127Y406669D01*
X73166Y406727D01*
X73201Y406787D01*
X73233Y406849D01*
X73261Y406913D01*
X73286Y406978D01*
X73307Y407044D01*
X73325Y407112D01*
X73338Y407180D01*
X73348Y407249D01*
X73354Y407318D01*
X73356Y407388D01*
X72114Y406146D02*
X72015Y406148D01*
X71917Y406153D01*
X71819Y406163D01*
X71721Y406176D01*
X71624Y406192D01*
X71527Y406212D01*
X71432Y406236D01*
X71337Y406264D01*
X71243Y406295D01*
X71151Y406329D01*
X71060Y406367D01*
X70970Y406408D01*
X70882Y406453D01*
X70796Y406501D01*
X70712Y406552D01*
X70630Y406606D01*
X70549Y406664D01*
X70471Y406724D01*
X70396Y406787D01*
X70322Y406853D01*
X70252Y406922D01*
X70406Y410492D02*
X70408Y410562D01*
X70414Y410631D01*
X70424Y410700D01*
X70437Y410768D01*
X70455Y410836D01*
X70476Y410902D01*
X70501Y410967D01*
X70529Y411031D01*
X70561Y411093D01*
X70596Y411153D01*
X70635Y411211D01*
X70677Y411266D01*
X70722Y411320D01*
X70770Y411370D01*
X70820Y411418D01*
X70874Y411463D01*
X70929Y411505D01*
X70987Y411544D01*
X71047Y411579D01*
X71109Y411611D01*
X71173Y411639D01*
X71238Y411664D01*
X71304Y411685D01*
X71372Y411703D01*
X71440Y411716D01*
X71509Y411726D01*
X71578Y411732D01*
X71648Y411734D01*
X71742Y411732D01*
X71835Y411726D01*
X71928Y411717D01*
X72021Y411704D01*
X72113Y411687D01*
X72204Y411667D01*
X72295Y411642D01*
X72384Y411615D01*
X72472Y411583D01*
X72559Y411548D01*
X72645Y411510D01*
X72728Y411468D01*
X72810Y411423D01*
X72891Y411375D01*
X72969Y411323D01*
X73045Y411268D01*
X71027Y409406D02*
X70968Y409442D01*
X70912Y409482D01*
X70858Y409525D01*
X70806Y409570D01*
X70757Y409619D01*
X70711Y409670D01*
X70668Y409723D01*
X70627Y409779D01*
X70590Y409837D01*
X70555Y409897D01*
X70525Y409958D01*
X70497Y410021D01*
X70473Y410086D01*
X70453Y410152D01*
X70436Y410219D01*
X70423Y410286D01*
X70414Y410354D01*
X70408Y410423D01*
X70406Y410492D01*
X72734Y408474D02*
X72793Y408438D01*
X72849Y408398D01*
X72903Y408355D01*
X72955Y408310D01*
X73004Y408261D01*
X73050Y408210D01*
X73093Y408157D01*
X73134Y408101D01*
X73171Y408043D01*
X73206Y407983D01*
X73236Y407922D01*
X73264Y407859D01*
X73288Y407794D01*
X73308Y407728D01*
X73325Y407661D01*
X73338Y407594D01*
X73347Y407526D01*
X73353Y407457D01*
X73355Y407388D01*
X72734Y408474D02*
X71027Y409406D01*
X75748Y406146D02*
X78232Y406146D01*
X75748Y406146D02*
X75748Y411734D01*
X78232Y411734D01*
X77611Y409250D02*
X75748Y409250D01*
X81496Y411734D02*
X81496Y406146D01*
X79943Y411734D02*
X83048Y411734D01*
X84826Y405525D02*
X87309Y405525D01*
X91133Y406146D02*
X91203Y406148D01*
X91272Y406154D01*
X91341Y406164D01*
X91409Y406177D01*
X91477Y406195D01*
X91543Y406216D01*
X91608Y406241D01*
X91672Y406269D01*
X91734Y406301D01*
X91794Y406336D01*
X91852Y406375D01*
X91907Y406417D01*
X91961Y406462D01*
X92011Y406510D01*
X92059Y406560D01*
X92104Y406614D01*
X92146Y406669D01*
X92185Y406727D01*
X92220Y406787D01*
X92252Y406849D01*
X92280Y406913D01*
X92305Y406978D01*
X92326Y407044D01*
X92344Y407112D01*
X92357Y407180D01*
X92367Y407249D01*
X92373Y407318D01*
X92375Y407388D01*
X91133Y406146D02*
X91034Y406148D01*
X90936Y406153D01*
X90838Y406163D01*
X90740Y406176D01*
X90643Y406192D01*
X90546Y406212D01*
X90451Y406236D01*
X90356Y406264D01*
X90262Y406295D01*
X90170Y406329D01*
X90079Y406367D01*
X89989Y406408D01*
X89901Y406453D01*
X89815Y406501D01*
X89731Y406552D01*
X89649Y406606D01*
X89568Y406664D01*
X89490Y406724D01*
X89415Y406787D01*
X89341Y406853D01*
X89271Y406922D01*
X89425Y410492D02*
X89427Y410562D01*
X89433Y410631D01*
X89443Y410700D01*
X89456Y410768D01*
X89474Y410836D01*
X89495Y410902D01*
X89520Y410967D01*
X89548Y411031D01*
X89580Y411093D01*
X89615Y411153D01*
X89654Y411211D01*
X89696Y411266D01*
X89741Y411320D01*
X89789Y411370D01*
X89839Y411418D01*
X89893Y411463D01*
X89948Y411505D01*
X90006Y411544D01*
X90066Y411579D01*
X90128Y411611D01*
X90192Y411639D01*
X90257Y411664D01*
X90323Y411685D01*
X90391Y411703D01*
X90459Y411716D01*
X90528Y411726D01*
X90597Y411732D01*
X90667Y411734D01*
X90761Y411732D01*
X90854Y411726D01*
X90947Y411717D01*
X91040Y411704D01*
X91132Y411687D01*
X91223Y411667D01*
X91314Y411642D01*
X91403Y411615D01*
X91491Y411583D01*
X91578Y411548D01*
X91664Y411510D01*
X91747Y411468D01*
X91829Y411423D01*
X91910Y411375D01*
X91988Y411323D01*
X92064Y411268D01*
X90047Y409406D02*
X89988Y409442D01*
X89932Y409482D01*
X89878Y409525D01*
X89826Y409570D01*
X89777Y409619D01*
X89731Y409670D01*
X89688Y409723D01*
X89647Y409779D01*
X89610Y409837D01*
X89575Y409897D01*
X89545Y409958D01*
X89517Y410021D01*
X89493Y410086D01*
X89473Y410152D01*
X89456Y410219D01*
X89443Y410286D01*
X89434Y410354D01*
X89428Y410423D01*
X89426Y410492D01*
X91754Y408474D02*
X91813Y408438D01*
X91869Y408398D01*
X91923Y408355D01*
X91975Y408310D01*
X92024Y408261D01*
X92070Y408210D01*
X92113Y408157D01*
X92154Y408101D01*
X92191Y408043D01*
X92226Y407983D01*
X92256Y407922D01*
X92284Y407859D01*
X92308Y407794D01*
X92328Y407728D01*
X92345Y407661D01*
X92358Y407594D01*
X92367Y407526D01*
X92373Y407457D01*
X92375Y407388D01*
X91754Y408474D02*
X90046Y409406D01*
X95760Y411734D02*
X95760Y406146D01*
X94208Y411734D02*
X97312Y411734D01*
X99523Y406146D02*
X102006Y406146D01*
X99523Y406146D02*
X99523Y411734D01*
X102006Y411734D01*
X101385Y409250D02*
X99523Y409250D01*
X104349Y411734D02*
X104349Y406146D01*
X104349Y411734D02*
X105902Y411734D01*
X105979Y411732D01*
X106057Y411726D01*
X106133Y411717D01*
X106210Y411703D01*
X106285Y411686D01*
X106359Y411665D01*
X106433Y411640D01*
X106505Y411612D01*
X106575Y411580D01*
X106644Y411545D01*
X106711Y411506D01*
X106776Y411464D01*
X106839Y411419D01*
X106900Y411371D01*
X106958Y411320D01*
X107013Y411266D01*
X107066Y411209D01*
X107115Y411150D01*
X107162Y411088D01*
X107206Y411024D01*
X107246Y410958D01*
X107283Y410890D01*
X107317Y410820D01*
X107347Y410749D01*
X107373Y410676D01*
X107396Y410602D01*
X107415Y410527D01*
X107430Y410452D01*
X107442Y410375D01*
X107450Y410298D01*
X107454Y410221D01*
X107454Y410143D01*
X107450Y410066D01*
X107442Y409989D01*
X107430Y409912D01*
X107415Y409837D01*
X107396Y409762D01*
X107373Y409688D01*
X107347Y409615D01*
X107317Y409544D01*
X107283Y409474D01*
X107246Y409406D01*
X107206Y409340D01*
X107162Y409276D01*
X107115Y409214D01*
X107066Y409155D01*
X107013Y409098D01*
X106958Y409044D01*
X106900Y408993D01*
X106839Y408945D01*
X106776Y408900D01*
X106711Y408858D01*
X106644Y408819D01*
X106575Y408784D01*
X106505Y408752D01*
X106433Y408724D01*
X106359Y408699D01*
X106285Y408678D01*
X106210Y408661D01*
X106133Y408647D01*
X106057Y408638D01*
X105979Y408632D01*
X105902Y408630D01*
X104349Y408630D01*
X111250Y406146D02*
X111320Y406148D01*
X111389Y406154D01*
X111458Y406164D01*
X111526Y406177D01*
X111594Y406195D01*
X111660Y406216D01*
X111725Y406241D01*
X111789Y406269D01*
X111851Y406301D01*
X111911Y406336D01*
X111969Y406375D01*
X112024Y406417D01*
X112078Y406462D01*
X112128Y406510D01*
X112176Y406560D01*
X112221Y406614D01*
X112263Y406669D01*
X112302Y406727D01*
X112337Y406787D01*
X112369Y406849D01*
X112397Y406913D01*
X112422Y406978D01*
X112443Y407044D01*
X112461Y407112D01*
X112474Y407180D01*
X112484Y407249D01*
X112490Y407318D01*
X112492Y407388D01*
X111250Y406146D02*
X111151Y406148D01*
X111053Y406153D01*
X110955Y406163D01*
X110857Y406176D01*
X110760Y406192D01*
X110663Y406212D01*
X110568Y406236D01*
X110473Y406264D01*
X110379Y406295D01*
X110287Y406329D01*
X110196Y406367D01*
X110106Y406408D01*
X110018Y406453D01*
X109932Y406501D01*
X109848Y406552D01*
X109766Y406606D01*
X109685Y406664D01*
X109607Y406724D01*
X109532Y406787D01*
X109458Y406853D01*
X109388Y406922D01*
X109542Y410492D02*
X109544Y410562D01*
X109550Y410631D01*
X109560Y410700D01*
X109573Y410768D01*
X109591Y410836D01*
X109612Y410902D01*
X109637Y410967D01*
X109665Y411031D01*
X109697Y411093D01*
X109732Y411153D01*
X109771Y411211D01*
X109813Y411266D01*
X109858Y411320D01*
X109906Y411370D01*
X109956Y411418D01*
X110010Y411463D01*
X110065Y411505D01*
X110123Y411544D01*
X110183Y411579D01*
X110245Y411611D01*
X110309Y411639D01*
X110374Y411664D01*
X110440Y411685D01*
X110508Y411703D01*
X110576Y411716D01*
X110645Y411726D01*
X110714Y411732D01*
X110784Y411734D01*
X110878Y411732D01*
X110971Y411726D01*
X111064Y411717D01*
X111157Y411704D01*
X111249Y411687D01*
X111340Y411667D01*
X111431Y411642D01*
X111520Y411615D01*
X111608Y411583D01*
X111695Y411548D01*
X111781Y411510D01*
X111864Y411468D01*
X111946Y411423D01*
X112027Y411375D01*
X112105Y411323D01*
X112181Y411268D01*
X110163Y409406D02*
X110104Y409442D01*
X110048Y409482D01*
X109994Y409525D01*
X109942Y409570D01*
X109893Y409619D01*
X109847Y409670D01*
X109804Y409723D01*
X109763Y409779D01*
X109726Y409837D01*
X109691Y409897D01*
X109661Y409958D01*
X109633Y410021D01*
X109609Y410086D01*
X109589Y410152D01*
X109572Y410219D01*
X109559Y410286D01*
X109550Y410354D01*
X109544Y410423D01*
X109542Y410492D01*
X111870Y408474D02*
X111929Y408438D01*
X111985Y408398D01*
X112039Y408355D01*
X112091Y408310D01*
X112140Y408261D01*
X112186Y408210D01*
X112229Y408157D01*
X112270Y408101D01*
X112307Y408043D01*
X112342Y407983D01*
X112372Y407922D01*
X112400Y407859D01*
X112424Y407794D01*
X112444Y407728D01*
X112461Y407661D01*
X112474Y407594D01*
X112483Y407526D01*
X112489Y407457D01*
X112491Y407388D01*
X111870Y408474D02*
X110163Y409406D01*
D14*
X338300Y106200D02*
X398300Y106200D01*
X398300Y46200D02*
X338300Y46200D01*
X338300Y66200D02*
X338300Y86200D01*
X398300Y86200D02*
X398300Y66200D01*
D15*
X414300Y56200D03*
D16*
X414302Y56138D01*
X414308Y56077D01*
X414317Y56016D01*
X414330Y55956D01*
X414347Y55897D01*
X414368Y55839D01*
X414392Y55782D01*
X414419Y55727D01*
X414450Y55674D01*
X414484Y55622D01*
X414521Y55573D01*
X414561Y55526D01*
X414604Y55482D01*
X414649Y55441D01*
X414697Y55402D01*
X414748Y55366D01*
X414800Y55334D01*
X414854Y55305D01*
X414910Y55279D01*
X414968Y55257D01*
X415026Y55238D01*
X415086Y55223D01*
X415147Y55212D01*
X415208Y55204D01*
X415269Y55200D01*
X415331Y55200D01*
X415392Y55204D01*
X415453Y55212D01*
X415514Y55223D01*
X415574Y55238D01*
X415632Y55257D01*
X415690Y55279D01*
X415746Y55305D01*
X415800Y55334D01*
X415852Y55366D01*
X415903Y55402D01*
X415951Y55441D01*
X415996Y55482D01*
X416039Y55526D01*
X416079Y55573D01*
X416116Y55622D01*
X416150Y55674D01*
X416181Y55727D01*
X416208Y55782D01*
X416232Y55839D01*
X416253Y55897D01*
X416270Y55956D01*
X416283Y56016D01*
X416292Y56077D01*
X416298Y56138D01*
X416300Y56200D01*
D15*
X416300Y56200D03*
D16*
X416298Y56262D01*
X416292Y56323D01*
X416283Y56384D01*
X416270Y56444D01*
X416253Y56503D01*
X416232Y56561D01*
X416208Y56618D01*
X416181Y56673D01*
X416150Y56726D01*
X416116Y56778D01*
X416079Y56827D01*
X416039Y56874D01*
X415996Y56918D01*
X415951Y56959D01*
X415903Y56998D01*
X415852Y57034D01*
X415800Y57066D01*
X415746Y57095D01*
X415690Y57121D01*
X415632Y57143D01*
X415574Y57162D01*
X415514Y57177D01*
X415453Y57188D01*
X415392Y57196D01*
X415331Y57200D01*
X415269Y57200D01*
X415208Y57196D01*
X415147Y57188D01*
X415086Y57177D01*
X415026Y57162D01*
X414968Y57143D01*
X414910Y57121D01*
X414854Y57095D01*
X414800Y57066D01*
X414748Y57034D01*
X414697Y56998D01*
X414649Y56959D01*
X414604Y56918D01*
X414561Y56874D01*
X414521Y56827D01*
X414484Y56778D01*
X414450Y56726D01*
X414419Y56673D01*
X414392Y56618D01*
X414368Y56561D01*
X414347Y56503D01*
X414330Y56444D01*
X414317Y56384D01*
X414308Y56323D01*
X414302Y56262D01*
X414300Y56200D01*
D12*
X356890Y73406D02*
X356890Y78994D01*
X358443Y78994D01*
X358520Y78992D01*
X358598Y78986D01*
X358674Y78977D01*
X358751Y78963D01*
X358826Y78946D01*
X358900Y78925D01*
X358974Y78900D01*
X359046Y78872D01*
X359116Y78840D01*
X359185Y78805D01*
X359252Y78766D01*
X359317Y78724D01*
X359380Y78679D01*
X359441Y78631D01*
X359499Y78580D01*
X359554Y78526D01*
X359607Y78469D01*
X359656Y78410D01*
X359703Y78348D01*
X359747Y78284D01*
X359787Y78218D01*
X359824Y78150D01*
X359858Y78080D01*
X359888Y78009D01*
X359914Y77936D01*
X359937Y77862D01*
X359956Y77787D01*
X359971Y77712D01*
X359983Y77635D01*
X359991Y77558D01*
X359995Y77481D01*
X359995Y77403D01*
X359991Y77326D01*
X359983Y77249D01*
X359971Y77172D01*
X359956Y77097D01*
X359937Y77022D01*
X359914Y76948D01*
X359888Y76875D01*
X359858Y76804D01*
X359824Y76734D01*
X359787Y76666D01*
X359747Y76600D01*
X359703Y76536D01*
X359656Y76474D01*
X359607Y76415D01*
X359554Y76358D01*
X359499Y76304D01*
X359441Y76253D01*
X359380Y76205D01*
X359317Y76160D01*
X359252Y76118D01*
X359185Y76079D01*
X359116Y76044D01*
X359046Y76012D01*
X358974Y75984D01*
X358900Y75959D01*
X358826Y75938D01*
X358751Y75921D01*
X358674Y75907D01*
X358598Y75898D01*
X358520Y75892D01*
X358443Y75890D01*
X356890Y75890D01*
X358753Y75890D02*
X359995Y73406D01*
X362535Y73406D02*
X365018Y73406D01*
X362535Y73406D02*
X362535Y78994D01*
X365018Y78994D01*
X364397Y76510D02*
X362535Y76510D01*
X368775Y73406D02*
X368845Y73408D01*
X368914Y73414D01*
X368983Y73424D01*
X369051Y73437D01*
X369119Y73455D01*
X369185Y73476D01*
X369250Y73501D01*
X369314Y73529D01*
X369376Y73561D01*
X369436Y73596D01*
X369494Y73635D01*
X369549Y73677D01*
X369603Y73722D01*
X369653Y73770D01*
X369701Y73820D01*
X369746Y73874D01*
X369788Y73929D01*
X369827Y73987D01*
X369862Y74047D01*
X369894Y74109D01*
X369922Y74173D01*
X369947Y74238D01*
X369968Y74304D01*
X369986Y74372D01*
X369999Y74440D01*
X370009Y74509D01*
X370015Y74578D01*
X370017Y74648D01*
X368775Y73406D02*
X368676Y73408D01*
X368578Y73413D01*
X368480Y73423D01*
X368382Y73436D01*
X368285Y73452D01*
X368188Y73472D01*
X368093Y73496D01*
X367998Y73524D01*
X367904Y73555D01*
X367812Y73589D01*
X367721Y73627D01*
X367631Y73668D01*
X367543Y73713D01*
X367457Y73761D01*
X367373Y73812D01*
X367291Y73866D01*
X367210Y73924D01*
X367132Y73984D01*
X367057Y74047D01*
X366983Y74113D01*
X366913Y74182D01*
X367068Y77752D02*
X367070Y77822D01*
X367076Y77891D01*
X367086Y77960D01*
X367099Y78028D01*
X367117Y78096D01*
X367138Y78162D01*
X367163Y78227D01*
X367191Y78291D01*
X367223Y78353D01*
X367258Y78413D01*
X367297Y78471D01*
X367339Y78526D01*
X367384Y78580D01*
X367432Y78630D01*
X367482Y78678D01*
X367536Y78723D01*
X367591Y78765D01*
X367649Y78804D01*
X367709Y78839D01*
X367771Y78871D01*
X367835Y78899D01*
X367900Y78924D01*
X367966Y78945D01*
X368034Y78963D01*
X368102Y78976D01*
X368171Y78986D01*
X368240Y78992D01*
X368310Y78994D01*
X368404Y78992D01*
X368497Y78986D01*
X368590Y78977D01*
X368683Y78964D01*
X368775Y78947D01*
X368866Y78927D01*
X368957Y78902D01*
X369046Y78875D01*
X369134Y78843D01*
X369221Y78808D01*
X369307Y78770D01*
X369390Y78728D01*
X369472Y78683D01*
X369553Y78635D01*
X369631Y78583D01*
X369707Y78528D01*
X367689Y76666D02*
X367630Y76702D01*
X367574Y76742D01*
X367520Y76785D01*
X367468Y76830D01*
X367419Y76879D01*
X367373Y76930D01*
X367330Y76983D01*
X367289Y77039D01*
X367252Y77097D01*
X367217Y77157D01*
X367187Y77218D01*
X367159Y77281D01*
X367135Y77346D01*
X367115Y77412D01*
X367098Y77479D01*
X367085Y77546D01*
X367076Y77614D01*
X367070Y77683D01*
X367068Y77752D01*
X369396Y75734D02*
X369455Y75698D01*
X369511Y75658D01*
X369565Y75615D01*
X369617Y75570D01*
X369666Y75521D01*
X369712Y75470D01*
X369755Y75417D01*
X369796Y75361D01*
X369833Y75303D01*
X369868Y75243D01*
X369898Y75182D01*
X369926Y75119D01*
X369950Y75054D01*
X369970Y74988D01*
X369987Y74921D01*
X370000Y74854D01*
X370009Y74786D01*
X370015Y74717D01*
X370017Y74648D01*
X369396Y75734D02*
X367689Y76666D01*
X372410Y73406D02*
X374894Y73406D01*
X372410Y73406D02*
X372410Y78994D01*
X374894Y78994D01*
X374273Y76510D02*
X372410Y76510D01*
X378157Y78994D02*
X378157Y73406D01*
X376605Y78994D02*
X379710Y78994D01*
D13*
X464820Y568960D02*
X83820Y568960D01*
X464820Y568960D02*
X464820Y447040D01*
X83820Y447040D01*
X83820Y568960D01*
X134620Y565150D02*
X433070Y565150D01*
X433070Y450850D01*
X134620Y450850D01*
X134620Y565150D01*
X153670Y543560D02*
X378460Y543560D01*
X378460Y487680D01*
X153670Y487680D01*
X153670Y543560D01*
D12*
X113425Y470295D02*
X112240Y470295D01*
X113425Y470295D02*
X113425Y466344D01*
X111054Y466344D01*
X110976Y466346D01*
X110899Y466352D01*
X110822Y466361D01*
X110746Y466374D01*
X110670Y466391D01*
X110595Y466412D01*
X110522Y466436D01*
X110449Y466464D01*
X110378Y466496D01*
X110309Y466531D01*
X110242Y466569D01*
X110176Y466610D01*
X110113Y466655D01*
X110052Y466703D01*
X109993Y466753D01*
X109937Y466807D01*
X109883Y466863D01*
X109833Y466922D01*
X109785Y466983D01*
X109740Y467046D01*
X109699Y467112D01*
X109661Y467179D01*
X109626Y467248D01*
X109594Y467319D01*
X109566Y467392D01*
X109542Y467465D01*
X109521Y467540D01*
X109504Y467616D01*
X109491Y467692D01*
X109482Y467769D01*
X109476Y467846D01*
X109474Y467924D01*
X109474Y471876D01*
X109476Y471954D01*
X109482Y472031D01*
X109491Y472108D01*
X109504Y472184D01*
X109521Y472260D01*
X109542Y472335D01*
X109566Y472408D01*
X109594Y472481D01*
X109626Y472552D01*
X109661Y472621D01*
X109699Y472688D01*
X109740Y472754D01*
X109785Y472817D01*
X109833Y472878D01*
X109883Y472937D01*
X109937Y472993D01*
X109993Y473047D01*
X110052Y473097D01*
X110113Y473145D01*
X110176Y473190D01*
X110242Y473231D01*
X110309Y473269D01*
X110378Y473304D01*
X110449Y473336D01*
X110522Y473364D01*
X110595Y473388D01*
X110670Y473409D01*
X110746Y473426D01*
X110822Y473439D01*
X110899Y473448D01*
X110976Y473454D01*
X111054Y473456D01*
X113425Y473456D01*
X116789Y473456D02*
X116789Y466344D01*
X120740Y466344D02*
X116789Y473456D01*
X120740Y473456D02*
X120740Y466344D01*
X124104Y466344D02*
X124104Y473456D01*
X126080Y473456D01*
X126166Y473454D01*
X126252Y473448D01*
X126338Y473439D01*
X126423Y473426D01*
X126508Y473409D01*
X126591Y473389D01*
X126674Y473365D01*
X126756Y473337D01*
X126836Y473306D01*
X126915Y473271D01*
X126992Y473233D01*
X127068Y473191D01*
X127142Y473147D01*
X127213Y473099D01*
X127283Y473048D01*
X127350Y472994D01*
X127415Y472937D01*
X127477Y472877D01*
X127537Y472815D01*
X127594Y472750D01*
X127648Y472683D01*
X127699Y472613D01*
X127747Y472542D01*
X127791Y472468D01*
X127833Y472392D01*
X127871Y472315D01*
X127906Y472236D01*
X127937Y472156D01*
X127965Y472074D01*
X127989Y471991D01*
X128009Y471908D01*
X128026Y471823D01*
X128039Y471738D01*
X128048Y471652D01*
X128054Y471566D01*
X128056Y471480D01*
X128055Y471480D02*
X128055Y468320D01*
X128056Y468320D02*
X128054Y468234D01*
X128048Y468148D01*
X128039Y468062D01*
X128026Y467977D01*
X128009Y467892D01*
X127989Y467809D01*
X127965Y467726D01*
X127937Y467644D01*
X127906Y467564D01*
X127871Y467485D01*
X127833Y467408D01*
X127791Y467332D01*
X127747Y467258D01*
X127699Y467187D01*
X127648Y467117D01*
X127594Y467050D01*
X127537Y466985D01*
X127477Y466923D01*
X127415Y466863D01*
X127350Y466806D01*
X127283Y466752D01*
X127213Y466701D01*
X127142Y466653D01*
X127068Y466609D01*
X126992Y466567D01*
X126915Y466529D01*
X126836Y466494D01*
X126756Y466463D01*
X126674Y466435D01*
X126591Y466411D01*
X126508Y466391D01*
X126423Y466374D01*
X126338Y466361D01*
X126252Y466352D01*
X126166Y466346D01*
X126080Y466344D01*
X124104Y466344D01*
X111845Y491744D02*
X109474Y498856D01*
X114215Y498856D02*
X111845Y491744D01*
X118289Y491744D02*
X119870Y491744D01*
X118289Y491744D02*
X118211Y491746D01*
X118134Y491752D01*
X118057Y491761D01*
X117981Y491774D01*
X117905Y491791D01*
X117830Y491812D01*
X117757Y491836D01*
X117684Y491864D01*
X117613Y491896D01*
X117544Y491931D01*
X117477Y491969D01*
X117411Y492010D01*
X117348Y492055D01*
X117287Y492103D01*
X117228Y492153D01*
X117172Y492207D01*
X117118Y492263D01*
X117068Y492322D01*
X117020Y492383D01*
X116975Y492446D01*
X116934Y492512D01*
X116896Y492579D01*
X116861Y492648D01*
X116829Y492719D01*
X116801Y492792D01*
X116777Y492865D01*
X116756Y492940D01*
X116739Y493016D01*
X116726Y493092D01*
X116717Y493169D01*
X116711Y493246D01*
X116709Y493324D01*
X116709Y497276D01*
X116711Y497354D01*
X116717Y497431D01*
X116726Y497508D01*
X116739Y497584D01*
X116756Y497660D01*
X116777Y497735D01*
X116801Y497808D01*
X116829Y497881D01*
X116861Y497952D01*
X116896Y498021D01*
X116934Y498088D01*
X116975Y498154D01*
X117020Y498217D01*
X117068Y498278D01*
X117118Y498337D01*
X117172Y498393D01*
X117228Y498447D01*
X117287Y498497D01*
X117348Y498545D01*
X117411Y498590D01*
X117477Y498631D01*
X117544Y498669D01*
X117613Y498704D01*
X117684Y498736D01*
X117757Y498764D01*
X117830Y498788D01*
X117905Y498809D01*
X117981Y498826D01*
X118057Y498839D01*
X118134Y498848D01*
X118211Y498854D01*
X118289Y498856D01*
X119870Y498856D01*
X124004Y491744D02*
X125585Y491744D01*
X124004Y491744D02*
X123926Y491746D01*
X123849Y491752D01*
X123772Y491761D01*
X123696Y491774D01*
X123620Y491791D01*
X123545Y491812D01*
X123472Y491836D01*
X123399Y491864D01*
X123328Y491896D01*
X123259Y491931D01*
X123192Y491969D01*
X123126Y492010D01*
X123063Y492055D01*
X123002Y492103D01*
X122943Y492153D01*
X122887Y492207D01*
X122833Y492263D01*
X122783Y492322D01*
X122735Y492383D01*
X122690Y492446D01*
X122649Y492512D01*
X122611Y492579D01*
X122576Y492648D01*
X122544Y492719D01*
X122516Y492792D01*
X122492Y492865D01*
X122471Y492940D01*
X122454Y493016D01*
X122441Y493092D01*
X122432Y493169D01*
X122426Y493246D01*
X122424Y493324D01*
X122424Y497276D01*
X122426Y497354D01*
X122432Y497431D01*
X122441Y497508D01*
X122454Y497584D01*
X122471Y497660D01*
X122492Y497735D01*
X122516Y497808D01*
X122544Y497881D01*
X122576Y497952D01*
X122611Y498021D01*
X122649Y498088D01*
X122690Y498154D01*
X122735Y498217D01*
X122783Y498278D01*
X122833Y498337D01*
X122887Y498393D01*
X122943Y498447D01*
X123002Y498497D01*
X123063Y498545D01*
X123126Y498590D01*
X123192Y498631D01*
X123259Y498669D01*
X123328Y498704D01*
X123399Y498736D01*
X123472Y498764D01*
X123545Y498788D01*
X123620Y498809D01*
X123696Y498826D01*
X123772Y498839D01*
X123849Y498848D01*
X123926Y498854D01*
X124004Y498856D01*
X125585Y498856D01*
X111845Y517144D02*
X111923Y517146D01*
X112000Y517152D01*
X112077Y517161D01*
X112153Y517174D01*
X112229Y517191D01*
X112304Y517212D01*
X112377Y517236D01*
X112450Y517264D01*
X112521Y517296D01*
X112590Y517331D01*
X112657Y517369D01*
X112723Y517410D01*
X112786Y517455D01*
X112847Y517503D01*
X112906Y517553D01*
X112962Y517607D01*
X113016Y517663D01*
X113066Y517722D01*
X113114Y517783D01*
X113159Y517846D01*
X113200Y517912D01*
X113238Y517979D01*
X113273Y518048D01*
X113305Y518119D01*
X113333Y518192D01*
X113357Y518265D01*
X113378Y518340D01*
X113395Y518416D01*
X113408Y518492D01*
X113417Y518569D01*
X113423Y518646D01*
X113425Y518724D01*
X111845Y517144D02*
X111730Y517146D01*
X111616Y517152D01*
X111502Y517162D01*
X111388Y517175D01*
X111275Y517193D01*
X111162Y517215D01*
X111050Y517240D01*
X110940Y517269D01*
X110830Y517302D01*
X110721Y517339D01*
X110614Y517379D01*
X110508Y517423D01*
X110404Y517471D01*
X110301Y517522D01*
X110201Y517577D01*
X110102Y517635D01*
X110005Y517697D01*
X109911Y517761D01*
X109818Y517829D01*
X109728Y517901D01*
X109641Y517975D01*
X109556Y518052D01*
X109474Y518132D01*
X109672Y522676D02*
X109674Y522754D01*
X109680Y522831D01*
X109689Y522908D01*
X109702Y522984D01*
X109719Y523060D01*
X109740Y523135D01*
X109764Y523208D01*
X109792Y523281D01*
X109824Y523352D01*
X109859Y523421D01*
X109897Y523488D01*
X109938Y523554D01*
X109983Y523617D01*
X110031Y523678D01*
X110081Y523737D01*
X110135Y523793D01*
X110191Y523847D01*
X110250Y523897D01*
X110311Y523945D01*
X110374Y523990D01*
X110440Y524031D01*
X110507Y524069D01*
X110576Y524104D01*
X110647Y524136D01*
X110720Y524164D01*
X110793Y524188D01*
X110868Y524209D01*
X110944Y524226D01*
X111020Y524239D01*
X111097Y524248D01*
X111175Y524254D01*
X111252Y524256D01*
X111358Y524254D01*
X111464Y524248D01*
X111569Y524239D01*
X111674Y524226D01*
X111779Y524209D01*
X111883Y524188D01*
X111986Y524164D01*
X112088Y524136D01*
X112189Y524104D01*
X112289Y524069D01*
X112387Y524030D01*
X112485Y523987D01*
X112580Y523942D01*
X112674Y523893D01*
X112766Y523840D01*
X112856Y523784D01*
X112944Y523725D01*
X113030Y523663D01*
X110462Y521293D02*
X110395Y521335D01*
X110330Y521380D01*
X110267Y521429D01*
X110206Y521480D01*
X110149Y521535D01*
X110094Y521592D01*
X110041Y521652D01*
X109992Y521714D01*
X109946Y521779D01*
X109904Y521845D01*
X109864Y521914D01*
X109828Y521985D01*
X109796Y522058D01*
X109767Y522132D01*
X109742Y522207D01*
X109721Y522283D01*
X109703Y522361D01*
X109690Y522439D01*
X109680Y522518D01*
X109674Y522597D01*
X109672Y522676D01*
X112635Y520107D02*
X112702Y520065D01*
X112767Y520020D01*
X112830Y519971D01*
X112891Y519920D01*
X112948Y519865D01*
X113003Y519808D01*
X113056Y519748D01*
X113105Y519686D01*
X113151Y519621D01*
X113193Y519555D01*
X113233Y519486D01*
X113269Y519415D01*
X113301Y519342D01*
X113330Y519268D01*
X113355Y519193D01*
X113376Y519117D01*
X113394Y519039D01*
X113407Y518961D01*
X113417Y518882D01*
X113423Y518803D01*
X113425Y518724D01*
X112635Y520107D02*
X110462Y521293D01*
X117666Y517144D02*
X119246Y517144D01*
X117666Y517144D02*
X117588Y517146D01*
X117511Y517152D01*
X117434Y517161D01*
X117358Y517174D01*
X117282Y517191D01*
X117207Y517212D01*
X117134Y517236D01*
X117061Y517264D01*
X116990Y517296D01*
X116921Y517331D01*
X116854Y517369D01*
X116788Y517410D01*
X116725Y517455D01*
X116664Y517503D01*
X116605Y517553D01*
X116549Y517607D01*
X116495Y517663D01*
X116445Y517722D01*
X116397Y517783D01*
X116352Y517846D01*
X116311Y517912D01*
X116273Y517979D01*
X116238Y518048D01*
X116206Y518119D01*
X116178Y518192D01*
X116154Y518265D01*
X116133Y518340D01*
X116116Y518416D01*
X116103Y518492D01*
X116094Y518569D01*
X116088Y518646D01*
X116086Y518724D01*
X116085Y518724D02*
X116085Y522676D01*
X116086Y522676D02*
X116088Y522754D01*
X116094Y522831D01*
X116103Y522908D01*
X116116Y522984D01*
X116133Y523060D01*
X116154Y523135D01*
X116178Y523208D01*
X116206Y523281D01*
X116238Y523352D01*
X116273Y523421D01*
X116311Y523488D01*
X116352Y523554D01*
X116397Y523617D01*
X116445Y523678D01*
X116495Y523737D01*
X116549Y523793D01*
X116605Y523847D01*
X116664Y523897D01*
X116725Y523945D01*
X116788Y523990D01*
X116854Y524031D01*
X116921Y524069D01*
X116990Y524104D01*
X117061Y524136D01*
X117134Y524164D01*
X117207Y524188D01*
X117282Y524209D01*
X117358Y524226D01*
X117434Y524239D01*
X117511Y524248D01*
X117588Y524254D01*
X117666Y524256D01*
X119246Y524256D01*
X122059Y524256D02*
X122059Y517144D01*
X125220Y517144D01*
X111845Y542544D02*
X111923Y542546D01*
X112000Y542552D01*
X112077Y542561D01*
X112153Y542574D01*
X112229Y542591D01*
X112304Y542612D01*
X112377Y542636D01*
X112450Y542664D01*
X112521Y542696D01*
X112590Y542731D01*
X112657Y542769D01*
X112723Y542810D01*
X112786Y542855D01*
X112847Y542903D01*
X112906Y542953D01*
X112962Y543007D01*
X113016Y543063D01*
X113066Y543122D01*
X113114Y543183D01*
X113159Y543246D01*
X113200Y543312D01*
X113238Y543379D01*
X113273Y543448D01*
X113305Y543519D01*
X113333Y543592D01*
X113357Y543665D01*
X113378Y543740D01*
X113395Y543816D01*
X113408Y543892D01*
X113417Y543969D01*
X113423Y544046D01*
X113425Y544124D01*
X111845Y542544D02*
X111730Y542546D01*
X111616Y542552D01*
X111502Y542562D01*
X111388Y542575D01*
X111275Y542593D01*
X111162Y542615D01*
X111050Y542640D01*
X110940Y542669D01*
X110830Y542702D01*
X110721Y542739D01*
X110614Y542779D01*
X110508Y542823D01*
X110404Y542871D01*
X110301Y542922D01*
X110201Y542977D01*
X110102Y543035D01*
X110005Y543097D01*
X109911Y543161D01*
X109818Y543229D01*
X109728Y543301D01*
X109641Y543375D01*
X109556Y543452D01*
X109474Y543532D01*
X109672Y548076D02*
X109674Y548154D01*
X109680Y548231D01*
X109689Y548308D01*
X109702Y548384D01*
X109719Y548460D01*
X109740Y548535D01*
X109764Y548608D01*
X109792Y548681D01*
X109824Y548752D01*
X109859Y548821D01*
X109897Y548888D01*
X109938Y548954D01*
X109983Y549017D01*
X110031Y549078D01*
X110081Y549137D01*
X110135Y549193D01*
X110191Y549247D01*
X110250Y549297D01*
X110311Y549345D01*
X110374Y549390D01*
X110440Y549431D01*
X110507Y549469D01*
X110576Y549504D01*
X110647Y549536D01*
X110720Y549564D01*
X110793Y549588D01*
X110868Y549609D01*
X110944Y549626D01*
X111020Y549639D01*
X111097Y549648D01*
X111175Y549654D01*
X111252Y549656D01*
X111358Y549654D01*
X111464Y549648D01*
X111569Y549639D01*
X111674Y549626D01*
X111779Y549609D01*
X111883Y549588D01*
X111986Y549564D01*
X112088Y549536D01*
X112189Y549504D01*
X112289Y549469D01*
X112387Y549430D01*
X112485Y549387D01*
X112580Y549342D01*
X112674Y549293D01*
X112766Y549240D01*
X112856Y549184D01*
X112944Y549125D01*
X113030Y549063D01*
X110462Y546693D02*
X110395Y546735D01*
X110330Y546780D01*
X110267Y546829D01*
X110206Y546880D01*
X110149Y546935D01*
X110094Y546992D01*
X110041Y547052D01*
X109992Y547114D01*
X109946Y547179D01*
X109904Y547245D01*
X109864Y547314D01*
X109828Y547385D01*
X109796Y547458D01*
X109767Y547532D01*
X109742Y547607D01*
X109721Y547683D01*
X109703Y547761D01*
X109690Y547839D01*
X109680Y547918D01*
X109674Y547997D01*
X109672Y548076D01*
X112635Y545507D02*
X112702Y545465D01*
X112767Y545420D01*
X112830Y545371D01*
X112891Y545320D01*
X112948Y545265D01*
X113003Y545208D01*
X113056Y545148D01*
X113105Y545086D01*
X113151Y545021D01*
X113193Y544955D01*
X113233Y544886D01*
X113269Y544815D01*
X113301Y544742D01*
X113330Y544668D01*
X113355Y544593D01*
X113376Y544517D01*
X113394Y544439D01*
X113407Y544361D01*
X113417Y544282D01*
X113423Y544203D01*
X113425Y544124D01*
X112635Y545507D02*
X110462Y546693D01*
X116332Y549656D02*
X116332Y542544D01*
X116332Y549656D02*
X118308Y549656D01*
X118394Y549654D01*
X118480Y549648D01*
X118566Y549639D01*
X118651Y549626D01*
X118736Y549609D01*
X118819Y549589D01*
X118902Y549565D01*
X118984Y549537D01*
X119064Y549506D01*
X119143Y549471D01*
X119220Y549433D01*
X119296Y549391D01*
X119370Y549347D01*
X119441Y549299D01*
X119511Y549248D01*
X119578Y549194D01*
X119643Y549137D01*
X119705Y549077D01*
X119765Y549015D01*
X119822Y548950D01*
X119876Y548883D01*
X119927Y548813D01*
X119975Y548742D01*
X120019Y548668D01*
X120061Y548592D01*
X120099Y548515D01*
X120134Y548436D01*
X120165Y548356D01*
X120193Y548274D01*
X120217Y548191D01*
X120237Y548108D01*
X120254Y548023D01*
X120267Y547938D01*
X120276Y547852D01*
X120282Y547766D01*
X120284Y547680D01*
X120283Y547680D02*
X120283Y544520D01*
X120284Y544520D02*
X120282Y544434D01*
X120276Y544348D01*
X120267Y544262D01*
X120254Y544177D01*
X120237Y544092D01*
X120217Y544009D01*
X120193Y543926D01*
X120165Y543844D01*
X120134Y543764D01*
X120099Y543685D01*
X120061Y543608D01*
X120019Y543532D01*
X119975Y543458D01*
X119927Y543387D01*
X119876Y543317D01*
X119822Y543250D01*
X119765Y543185D01*
X119705Y543123D01*
X119643Y543063D01*
X119578Y543006D01*
X119511Y542952D01*
X119441Y542901D01*
X119370Y542853D01*
X119296Y542809D01*
X119220Y542767D01*
X119143Y542729D01*
X119064Y542694D01*
X118984Y542663D01*
X118902Y542635D01*
X118819Y542611D01*
X118736Y542591D01*
X118651Y542574D01*
X118566Y542561D01*
X118480Y542552D01*
X118394Y542546D01*
X118308Y542544D01*
X116332Y542544D01*
X123023Y542544D02*
X125394Y549656D01*
X127765Y542544D01*
X127172Y544322D02*
X123616Y544322D01*
X257708Y584454D02*
X257708Y590042D01*
X259260Y590042D01*
X259336Y590040D01*
X259412Y590035D01*
X259488Y590025D01*
X259563Y590012D01*
X259637Y589995D01*
X259711Y589975D01*
X259783Y589951D01*
X259854Y589924D01*
X259924Y589893D01*
X259992Y589859D01*
X260058Y589821D01*
X260122Y589780D01*
X260185Y589737D01*
X260245Y589690D01*
X260302Y589640D01*
X260357Y589587D01*
X260410Y589532D01*
X260460Y589475D01*
X260507Y589415D01*
X260550Y589352D01*
X260591Y589288D01*
X260629Y589222D01*
X260663Y589154D01*
X260694Y589084D01*
X260721Y589013D01*
X260745Y588940D01*
X260765Y588867D01*
X260782Y588793D01*
X260795Y588718D01*
X260805Y588642D01*
X260810Y588566D01*
X260812Y588490D01*
X260812Y586006D01*
X260810Y585927D01*
X260804Y585849D01*
X260794Y585771D01*
X260780Y585694D01*
X260762Y585617D01*
X260741Y585541D01*
X260715Y585467D01*
X260686Y585394D01*
X260653Y585323D01*
X260617Y585253D01*
X260577Y585185D01*
X260534Y585119D01*
X260487Y585056D01*
X260438Y584995D01*
X260385Y584937D01*
X260329Y584881D01*
X260271Y584828D01*
X260210Y584779D01*
X260147Y584732D01*
X260081Y584689D01*
X260013Y584649D01*
X259944Y584613D01*
X259872Y584580D01*
X259799Y584551D01*
X259725Y584525D01*
X259649Y584504D01*
X259572Y584486D01*
X259495Y584472D01*
X259417Y584462D01*
X259339Y584456D01*
X259260Y584454D01*
X257708Y584454D01*
X263832Y584454D02*
X263832Y590042D01*
X263211Y584454D02*
X264453Y584454D01*
X264453Y590042D02*
X263211Y590042D01*
X268349Y584454D02*
X268419Y584456D01*
X268488Y584462D01*
X268557Y584472D01*
X268625Y584485D01*
X268693Y584503D01*
X268759Y584524D01*
X268824Y584549D01*
X268888Y584577D01*
X268950Y584609D01*
X269010Y584644D01*
X269068Y584683D01*
X269123Y584725D01*
X269177Y584770D01*
X269227Y584818D01*
X269275Y584868D01*
X269320Y584922D01*
X269362Y584977D01*
X269401Y585035D01*
X269436Y585095D01*
X269468Y585157D01*
X269496Y585221D01*
X269521Y585286D01*
X269542Y585352D01*
X269560Y585420D01*
X269573Y585488D01*
X269583Y585557D01*
X269589Y585626D01*
X269591Y585696D01*
X268349Y584454D02*
X268250Y584456D01*
X268152Y584461D01*
X268054Y584471D01*
X267956Y584484D01*
X267859Y584500D01*
X267762Y584520D01*
X267667Y584544D01*
X267572Y584572D01*
X267478Y584603D01*
X267386Y584637D01*
X267295Y584675D01*
X267205Y584716D01*
X267117Y584761D01*
X267031Y584809D01*
X266947Y584860D01*
X266865Y584914D01*
X266784Y584972D01*
X266706Y585032D01*
X266631Y585095D01*
X266557Y585161D01*
X266487Y585230D01*
X266641Y588800D02*
X266643Y588870D01*
X266649Y588939D01*
X266659Y589008D01*
X266672Y589076D01*
X266690Y589144D01*
X266711Y589210D01*
X266736Y589275D01*
X266764Y589339D01*
X266796Y589401D01*
X266831Y589461D01*
X266870Y589519D01*
X266912Y589574D01*
X266957Y589628D01*
X267005Y589678D01*
X267055Y589726D01*
X267109Y589771D01*
X267164Y589813D01*
X267222Y589852D01*
X267282Y589887D01*
X267344Y589919D01*
X267408Y589947D01*
X267473Y589972D01*
X267539Y589993D01*
X267607Y590011D01*
X267675Y590024D01*
X267744Y590034D01*
X267813Y590040D01*
X267883Y590042D01*
X267977Y590040D01*
X268070Y590034D01*
X268163Y590025D01*
X268256Y590012D01*
X268348Y589995D01*
X268439Y589975D01*
X268530Y589950D01*
X268619Y589923D01*
X268707Y589891D01*
X268794Y589856D01*
X268880Y589818D01*
X268963Y589776D01*
X269045Y589731D01*
X269126Y589683D01*
X269204Y589631D01*
X269280Y589576D01*
X267263Y587714D02*
X267204Y587750D01*
X267148Y587790D01*
X267094Y587833D01*
X267042Y587878D01*
X266993Y587927D01*
X266947Y587978D01*
X266904Y588031D01*
X266863Y588087D01*
X266826Y588145D01*
X266791Y588205D01*
X266761Y588266D01*
X266733Y588329D01*
X266709Y588394D01*
X266689Y588460D01*
X266672Y588527D01*
X266659Y588594D01*
X266650Y588662D01*
X266644Y588731D01*
X266642Y588800D01*
X268969Y586782D02*
X269028Y586746D01*
X269084Y586706D01*
X269138Y586663D01*
X269190Y586618D01*
X269239Y586569D01*
X269285Y586518D01*
X269328Y586465D01*
X269369Y586409D01*
X269406Y586351D01*
X269441Y586291D01*
X269471Y586230D01*
X269499Y586167D01*
X269523Y586102D01*
X269543Y586036D01*
X269560Y585969D01*
X269573Y585902D01*
X269582Y585834D01*
X269588Y585765D01*
X269590Y585696D01*
X268970Y586782D02*
X267262Y587714D01*
X272056Y590042D02*
X272056Y584454D01*
X272056Y590042D02*
X273608Y590042D01*
X273685Y590040D01*
X273763Y590034D01*
X273839Y590025D01*
X273916Y590011D01*
X273991Y589994D01*
X274065Y589973D01*
X274139Y589948D01*
X274211Y589920D01*
X274281Y589888D01*
X274350Y589853D01*
X274417Y589814D01*
X274482Y589772D01*
X274545Y589727D01*
X274606Y589679D01*
X274664Y589628D01*
X274719Y589574D01*
X274772Y589517D01*
X274821Y589458D01*
X274868Y589396D01*
X274912Y589332D01*
X274952Y589266D01*
X274989Y589198D01*
X275023Y589128D01*
X275053Y589057D01*
X275079Y588984D01*
X275102Y588910D01*
X275121Y588835D01*
X275136Y588760D01*
X275148Y588683D01*
X275156Y588606D01*
X275160Y588529D01*
X275160Y588451D01*
X275156Y588374D01*
X275148Y588297D01*
X275136Y588220D01*
X275121Y588145D01*
X275102Y588070D01*
X275079Y587996D01*
X275053Y587923D01*
X275023Y587852D01*
X274989Y587782D01*
X274952Y587714D01*
X274912Y587648D01*
X274868Y587584D01*
X274821Y587522D01*
X274772Y587463D01*
X274719Y587406D01*
X274664Y587352D01*
X274606Y587301D01*
X274545Y587253D01*
X274482Y587208D01*
X274417Y587166D01*
X274350Y587127D01*
X274281Y587092D01*
X274211Y587060D01*
X274139Y587032D01*
X274065Y587007D01*
X273991Y586986D01*
X273916Y586969D01*
X273839Y586955D01*
X273763Y586946D01*
X273685Y586940D01*
X273608Y586938D01*
X272056Y586938D01*
X277470Y584454D02*
X277470Y590042D01*
X277470Y584454D02*
X279953Y584454D01*
X281720Y584454D02*
X283583Y590042D01*
X285446Y584454D01*
X284980Y585851D02*
X282186Y585851D01*
X287207Y590042D02*
X289069Y587403D01*
X290932Y590042D01*
X289069Y587403D02*
X289069Y584454D01*
D14*
X325600Y385600D02*
X385600Y385600D01*
X385600Y325600D02*
X325600Y325600D01*
X325600Y345600D02*
X325600Y365600D01*
X385600Y365600D02*
X385600Y345600D01*
D15*
X401600Y335600D03*
D16*
X401602Y335538D01*
X401608Y335477D01*
X401617Y335416D01*
X401630Y335356D01*
X401647Y335297D01*
X401668Y335239D01*
X401692Y335182D01*
X401719Y335127D01*
X401750Y335074D01*
X401784Y335022D01*
X401821Y334973D01*
X401861Y334926D01*
X401904Y334882D01*
X401949Y334841D01*
X401997Y334802D01*
X402048Y334766D01*
X402100Y334734D01*
X402154Y334705D01*
X402210Y334679D01*
X402268Y334657D01*
X402326Y334638D01*
X402386Y334623D01*
X402447Y334612D01*
X402508Y334604D01*
X402569Y334600D01*
X402631Y334600D01*
X402692Y334604D01*
X402753Y334612D01*
X402814Y334623D01*
X402874Y334638D01*
X402932Y334657D01*
X402990Y334679D01*
X403046Y334705D01*
X403100Y334734D01*
X403152Y334766D01*
X403203Y334802D01*
X403251Y334841D01*
X403296Y334882D01*
X403339Y334926D01*
X403379Y334973D01*
X403416Y335022D01*
X403450Y335074D01*
X403481Y335127D01*
X403508Y335182D01*
X403532Y335239D01*
X403553Y335297D01*
X403570Y335356D01*
X403583Y335416D01*
X403592Y335477D01*
X403598Y335538D01*
X403600Y335600D01*
D15*
X403600Y335600D03*
D16*
X403598Y335662D01*
X403592Y335723D01*
X403583Y335784D01*
X403570Y335844D01*
X403553Y335903D01*
X403532Y335961D01*
X403508Y336018D01*
X403481Y336073D01*
X403450Y336126D01*
X403416Y336178D01*
X403379Y336227D01*
X403339Y336274D01*
X403296Y336318D01*
X403251Y336359D01*
X403203Y336398D01*
X403152Y336434D01*
X403100Y336466D01*
X403046Y336495D01*
X402990Y336521D01*
X402932Y336543D01*
X402874Y336562D01*
X402814Y336577D01*
X402753Y336588D01*
X402692Y336596D01*
X402631Y336600D01*
X402569Y336600D01*
X402508Y336596D01*
X402447Y336588D01*
X402386Y336577D01*
X402326Y336562D01*
X402268Y336543D01*
X402210Y336521D01*
X402154Y336495D01*
X402100Y336466D01*
X402048Y336434D01*
X401997Y336398D01*
X401949Y336359D01*
X401904Y336318D01*
X401861Y336274D01*
X401821Y336227D01*
X401784Y336178D01*
X401750Y336126D01*
X401719Y336073D01*
X401692Y336018D01*
X401668Y335961D01*
X401647Y335903D01*
X401630Y335844D01*
X401617Y335784D01*
X401608Y335723D01*
X401602Y335662D01*
X401600Y335600D01*
D12*
X323140Y405158D02*
X323140Y409194D01*
X323140Y405158D02*
X323142Y405081D01*
X323148Y405003D01*
X323157Y404927D01*
X323171Y404850D01*
X323188Y404775D01*
X323209Y404701D01*
X323234Y404627D01*
X323262Y404555D01*
X323294Y404485D01*
X323329Y404416D01*
X323368Y404349D01*
X323410Y404284D01*
X323455Y404221D01*
X323503Y404160D01*
X323554Y404102D01*
X323608Y404047D01*
X323665Y403994D01*
X323724Y403945D01*
X323786Y403898D01*
X323850Y403854D01*
X323916Y403814D01*
X323984Y403777D01*
X324054Y403743D01*
X324125Y403713D01*
X324198Y403687D01*
X324272Y403664D01*
X324347Y403645D01*
X324422Y403630D01*
X324499Y403618D01*
X324576Y403610D01*
X324653Y403606D01*
X324731Y403606D01*
X324808Y403610D01*
X324885Y403618D01*
X324962Y403630D01*
X325037Y403645D01*
X325112Y403664D01*
X325186Y403687D01*
X325259Y403713D01*
X325330Y403743D01*
X325400Y403777D01*
X325468Y403814D01*
X325534Y403854D01*
X325598Y403898D01*
X325660Y403945D01*
X325719Y403994D01*
X325776Y404047D01*
X325830Y404102D01*
X325881Y404160D01*
X325929Y404221D01*
X325974Y404284D01*
X326016Y404349D01*
X326055Y404416D01*
X326090Y404485D01*
X326122Y404555D01*
X326150Y404627D01*
X326175Y404701D01*
X326196Y404775D01*
X326213Y404850D01*
X326227Y404927D01*
X326236Y405003D01*
X326242Y405081D01*
X326244Y405158D01*
X326245Y405158D02*
X326245Y409194D01*
X329075Y409194D02*
X329075Y403606D01*
X329075Y409194D02*
X330628Y409194D01*
X330705Y409192D01*
X330783Y409186D01*
X330859Y409177D01*
X330936Y409163D01*
X331011Y409146D01*
X331085Y409125D01*
X331159Y409100D01*
X331231Y409072D01*
X331301Y409040D01*
X331370Y409005D01*
X331437Y408966D01*
X331502Y408924D01*
X331565Y408879D01*
X331626Y408831D01*
X331684Y408780D01*
X331739Y408726D01*
X331792Y408669D01*
X331841Y408610D01*
X331888Y408548D01*
X331932Y408484D01*
X331972Y408418D01*
X332009Y408350D01*
X332043Y408280D01*
X332073Y408209D01*
X332099Y408136D01*
X332122Y408062D01*
X332141Y407987D01*
X332156Y407912D01*
X332168Y407835D01*
X332176Y407758D01*
X332180Y407681D01*
X332180Y407603D01*
X332176Y407526D01*
X332168Y407449D01*
X332156Y407372D01*
X332141Y407297D01*
X332122Y407222D01*
X332099Y407148D01*
X332073Y407075D01*
X332043Y407004D01*
X332009Y406934D01*
X331972Y406866D01*
X331932Y406800D01*
X331888Y406736D01*
X331841Y406674D01*
X331792Y406615D01*
X331739Y406558D01*
X331684Y406504D01*
X331626Y406453D01*
X331565Y406405D01*
X331502Y406360D01*
X331437Y406318D01*
X331370Y406279D01*
X331301Y406244D01*
X331231Y406212D01*
X331159Y406184D01*
X331085Y406159D01*
X331011Y406138D01*
X330936Y406121D01*
X330859Y406107D01*
X330783Y406098D01*
X330705Y406092D01*
X330628Y406090D01*
X329075Y406090D01*
M02*
