M48
;GenerationSoftware,Autodesk,EAGLE,9.6.2*%
;CreationDate,2020-11-12T19:46:15Z*%
FMAT,2
ICI,OFF
METRIC,TZ,000.000
T4C0.450
T3C0.600
T2C0.711
T1C1.000
%
G90
M71
T1
X9652Y54610
X9652Y46990
X9652Y49530
X9652Y52070
T2
X47530Y6620
X47530Y8620
X49530Y6620
X49530Y8620
X51530Y6620
X51530Y8620
T3
X11938Y19812
T4
X52578Y13462
X46736Y26924
X43434Y25146
X36830Y24384
X49784Y4572
X43180Y14986
X40386Y22098
X16510Y37592
X36830Y17780
X7874Y30480
X30988Y30480
X36830Y31242
X32512Y25908
X42418Y32766
X31496Y21590
X18796Y27686
X27940Y22860
X50038Y24638
X46621Y24384
X40920Y23648
X30988Y40132
X49784Y41148
X36322Y12954
X50546Y10922
X35306Y24384
M30
