G04 EAGLE Gerber RS-274X export*
G75*
%MOMM*%
%FSLAX34Y34*%
%LPD*%
%INSoldermask Top*%
%IPPOS*%
%AMOC8*
5,1,8,0,0,1.08239X$1,22.5*%
G01*
%ADD10R,1.701600X0.651600*%
%ADD11R,0.651600X1.701600*%
%ADD12R,1.054000X0.401600*%
%ADD13R,0.401600X0.952400*%
%ADD14R,1.401600X1.601600*%
%ADD15R,2.851600X1.101600*%
%ADD16R,1.320800X1.320800*%
%ADD17C,1.320800*%
%ADD18R,1.609600X1.609600*%
%ADD19C,1.609600*%

G36*
X-748Y586420D02*
X-748Y586420D01*
X-705Y586432D01*
X-639Y586439D01*
X1044Y586890D01*
X1085Y586909D01*
X1148Y586928D01*
X2728Y587665D01*
X2765Y587691D01*
X2824Y587720D01*
X4252Y588720D01*
X4283Y588752D01*
X4336Y588791D01*
X5569Y590024D01*
X5594Y590060D01*
X5640Y590108D01*
X6640Y591536D01*
X6658Y591577D01*
X6695Y591632D01*
X7432Y593212D01*
X7443Y593255D01*
X7470Y593316D01*
X7921Y594999D01*
X7923Y595031D01*
X7930Y595052D01*
X7930Y595067D01*
X7940Y595108D01*
X8092Y596845D01*
X8088Y596889D01*
X8092Y596955D01*
X7940Y598692D01*
X7928Y598735D01*
X7921Y598801D01*
X7470Y600484D01*
X7451Y600525D01*
X7432Y600588D01*
X6695Y602168D01*
X6669Y602205D01*
X6640Y602264D01*
X5640Y603692D01*
X5608Y603723D01*
X5569Y603776D01*
X4336Y605009D01*
X4300Y605034D01*
X4252Y605080D01*
X2824Y606080D01*
X2783Y606098D01*
X2728Y606135D01*
X1148Y606872D01*
X1105Y606883D01*
X1044Y606910D01*
X-639Y607361D01*
X-684Y607364D01*
X-748Y607380D01*
X-2485Y607532D01*
X-2529Y607528D01*
X-2595Y607532D01*
X-4332Y607380D01*
X-4375Y607368D01*
X-4441Y607361D01*
X-6124Y606910D01*
X-6165Y606891D01*
X-6228Y606872D01*
X-7808Y606135D01*
X-7845Y606109D01*
X-7904Y606080D01*
X-9332Y605080D01*
X-9363Y605048D01*
X-9416Y605009D01*
X-10649Y603776D01*
X-10674Y603740D01*
X-10720Y603692D01*
X-11720Y602264D01*
X-11738Y602223D01*
X-11775Y602168D01*
X-12512Y600588D01*
X-12523Y600545D01*
X-12550Y600484D01*
X-13001Y598801D01*
X-13004Y598756D01*
X-13020Y598692D01*
X-13172Y596955D01*
X-13168Y596911D01*
X-13172Y596845D01*
X-13020Y595108D01*
X-13008Y595065D01*
X-13004Y595031D01*
X-13004Y595015D01*
X-13002Y595010D01*
X-13001Y594999D01*
X-12550Y593316D01*
X-12531Y593275D01*
X-12512Y593212D01*
X-11775Y591632D01*
X-11749Y591595D01*
X-11720Y591536D01*
X-10720Y590108D01*
X-10688Y590077D01*
X-10649Y590024D01*
X-9416Y588791D01*
X-9380Y588766D01*
X-9332Y588720D01*
X-7904Y587720D01*
X-7863Y587702D01*
X-7808Y587665D01*
X-6228Y586928D01*
X-6185Y586917D01*
X-6124Y586890D01*
X-4441Y586439D01*
X-4396Y586436D01*
X-4332Y586420D01*
X-2595Y586268D01*
X-2551Y586272D01*
X-2485Y586268D01*
X-748Y586420D01*
G37*
G36*
X4332Y7300D02*
X4332Y7300D01*
X4375Y7312D01*
X4441Y7319D01*
X6124Y7770D01*
X6165Y7789D01*
X6228Y7808D01*
X7808Y8545D01*
X7845Y8571D01*
X7904Y8600D01*
X9332Y9600D01*
X9363Y9632D01*
X9416Y9671D01*
X10649Y10904D01*
X10674Y10940D01*
X10720Y10988D01*
X11720Y12416D01*
X11738Y12457D01*
X11775Y12512D01*
X12512Y14092D01*
X12523Y14135D01*
X12550Y14196D01*
X13001Y15879D01*
X13003Y15911D01*
X13010Y15932D01*
X13010Y15947D01*
X13020Y15988D01*
X13172Y17725D01*
X13168Y17769D01*
X13172Y17835D01*
X13020Y19572D01*
X13008Y19615D01*
X13001Y19681D01*
X12550Y21364D01*
X12531Y21405D01*
X12512Y21468D01*
X11775Y23048D01*
X11749Y23085D01*
X11720Y23144D01*
X10720Y24572D01*
X10688Y24603D01*
X10649Y24656D01*
X9416Y25889D01*
X9380Y25914D01*
X9332Y25960D01*
X7904Y26960D01*
X7863Y26978D01*
X7808Y27015D01*
X6228Y27752D01*
X6185Y27763D01*
X6124Y27790D01*
X4441Y28241D01*
X4396Y28244D01*
X4332Y28260D01*
X2595Y28412D01*
X2551Y28408D01*
X2485Y28412D01*
X748Y28260D01*
X705Y28248D01*
X639Y28241D01*
X-1044Y27790D01*
X-1085Y27771D01*
X-1148Y27752D01*
X-2728Y27015D01*
X-2765Y26989D01*
X-2824Y26960D01*
X-4252Y25960D01*
X-4283Y25928D01*
X-4336Y25889D01*
X-5569Y24656D01*
X-5594Y24620D01*
X-5640Y24572D01*
X-6640Y23144D01*
X-6658Y23103D01*
X-6695Y23048D01*
X-7432Y21468D01*
X-7443Y21425D01*
X-7470Y21364D01*
X-7921Y19681D01*
X-7924Y19636D01*
X-7940Y19572D01*
X-8092Y17835D01*
X-8088Y17791D01*
X-8092Y17725D01*
X-7940Y15988D01*
X-7928Y15945D01*
X-7924Y15911D01*
X-7924Y15895D01*
X-7922Y15890D01*
X-7921Y15879D01*
X-7470Y14196D01*
X-7451Y14155D01*
X-7432Y14092D01*
X-6695Y12512D01*
X-6669Y12475D01*
X-6640Y12416D01*
X-5640Y10988D01*
X-5608Y10957D01*
X-5569Y10904D01*
X-4336Y9671D01*
X-4300Y9646D01*
X-4252Y9600D01*
X-2824Y8600D01*
X-2783Y8582D01*
X-2728Y8545D01*
X-1148Y7808D01*
X-1105Y7797D01*
X-1044Y7770D01*
X639Y7319D01*
X684Y7316D01*
X748Y7300D01*
X2485Y7148D01*
X2529Y7152D01*
X2595Y7148D01*
X4332Y7300D01*
G37*
G36*
X560592Y7300D02*
X560592Y7300D01*
X560635Y7312D01*
X560701Y7319D01*
X562384Y7770D01*
X562425Y7789D01*
X562488Y7808D01*
X564068Y8545D01*
X564105Y8571D01*
X564164Y8600D01*
X565592Y9600D01*
X565623Y9632D01*
X565676Y9671D01*
X566909Y10904D01*
X566934Y10940D01*
X566980Y10988D01*
X567980Y12416D01*
X567998Y12457D01*
X568035Y12512D01*
X568772Y14092D01*
X568783Y14135D01*
X568810Y14196D01*
X569261Y15879D01*
X569263Y15911D01*
X569270Y15932D01*
X569270Y15947D01*
X569280Y15988D01*
X569432Y17725D01*
X569428Y17769D01*
X569432Y17835D01*
X569280Y19572D01*
X569268Y19615D01*
X569261Y19681D01*
X568810Y21364D01*
X568791Y21405D01*
X568772Y21468D01*
X568035Y23048D01*
X568009Y23085D01*
X567980Y23144D01*
X566980Y24572D01*
X566948Y24603D01*
X566909Y24656D01*
X565676Y25889D01*
X565640Y25914D01*
X565592Y25960D01*
X564164Y26960D01*
X564123Y26978D01*
X564068Y27015D01*
X562488Y27752D01*
X562445Y27763D01*
X562384Y27790D01*
X560701Y28241D01*
X560656Y28244D01*
X560592Y28260D01*
X558855Y28412D01*
X558811Y28408D01*
X558745Y28412D01*
X557008Y28260D01*
X556965Y28248D01*
X556899Y28241D01*
X555216Y27790D01*
X555175Y27771D01*
X555112Y27752D01*
X553532Y27015D01*
X553495Y26989D01*
X553436Y26960D01*
X552008Y25960D01*
X551977Y25928D01*
X551924Y25889D01*
X550691Y24656D01*
X550666Y24620D01*
X550620Y24572D01*
X549620Y23144D01*
X549602Y23103D01*
X549565Y23048D01*
X548828Y21468D01*
X548817Y21425D01*
X548790Y21364D01*
X548339Y19681D01*
X548336Y19636D01*
X548320Y19572D01*
X548168Y17835D01*
X548172Y17791D01*
X548168Y17725D01*
X548320Y15988D01*
X548332Y15945D01*
X548336Y15911D01*
X548336Y15895D01*
X548338Y15890D01*
X548339Y15879D01*
X548790Y14196D01*
X548809Y14155D01*
X548828Y14092D01*
X549565Y12512D01*
X549591Y12475D01*
X549620Y12416D01*
X550620Y10988D01*
X550652Y10957D01*
X550691Y10904D01*
X551924Y9671D01*
X551960Y9646D01*
X552008Y9600D01*
X553436Y8600D01*
X553477Y8582D01*
X553532Y8545D01*
X555112Y7808D01*
X555155Y7797D01*
X555216Y7770D01*
X556899Y7319D01*
X556944Y7316D01*
X557008Y7300D01*
X558745Y7148D01*
X558789Y7152D01*
X558855Y7148D01*
X560592Y7300D01*
G37*
D10*
X301100Y269300D03*
X301100Y261300D03*
X301100Y253300D03*
X301100Y245300D03*
X301100Y237300D03*
X301100Y229300D03*
X301100Y221300D03*
X301100Y213300D03*
D11*
X314900Y199500D03*
X322900Y199500D03*
X330900Y199500D03*
X338900Y199500D03*
X346900Y199500D03*
X354900Y199500D03*
X362900Y199500D03*
X370900Y199500D03*
D10*
X384700Y213300D03*
X384700Y221300D03*
X384700Y229300D03*
X384700Y237300D03*
X384700Y245300D03*
X384700Y253300D03*
X384700Y261300D03*
X384700Y269300D03*
D11*
X370900Y283100D03*
X362900Y283100D03*
X354900Y283100D03*
X346900Y283100D03*
X338900Y283100D03*
X330900Y283100D03*
X322900Y283100D03*
X314900Y283100D03*
D12*
X455638Y251300D03*
X455638Y246300D03*
X455638Y241300D03*
X455638Y236300D03*
X455638Y231300D03*
D13*
X464900Y227280D03*
X469900Y227280D03*
X474900Y227280D03*
D12*
X484162Y231300D03*
X484162Y236300D03*
X484162Y241300D03*
X484162Y246300D03*
X484162Y251300D03*
D13*
X474900Y255320D03*
X469900Y255320D03*
X464900Y255320D03*
D14*
X231800Y254000D03*
X250800Y254000D03*
X181000Y254000D03*
X200000Y254000D03*
X485800Y177800D03*
X504800Y177800D03*
X130200Y254000D03*
X149200Y254000D03*
D15*
X511350Y335600D03*
X453850Y335600D03*
X511350Y375600D03*
X453850Y375600D03*
D16*
X475300Y66200D03*
D17*
X475300Y86200D03*
X495300Y66200D03*
X495300Y86200D03*
X515300Y66200D03*
X515300Y86200D03*
D15*
X257350Y335600D03*
X199850Y335600D03*
X257350Y375600D03*
X199850Y375600D03*
D14*
X485800Y139700D03*
X504800Y139700D03*
D15*
X130350Y335600D03*
X72850Y335600D03*
X130350Y375600D03*
X72850Y375600D03*
X397050Y56200D03*
X339550Y56200D03*
X397050Y96200D03*
X339550Y96200D03*
D18*
X96520Y469900D03*
D19*
X96520Y495300D03*
X96520Y520700D03*
X96520Y546100D03*
D15*
X384350Y335600D03*
X326850Y335600D03*
X384350Y375600D03*
X326850Y375600D03*
M02*
