G04 EAGLE Gerber RS-274X export*
G75*
%MOMM*%
%FSLAX34Y34*%
%LPD*%
%INSolderpaste Top*%
%IPPOS*%
%AMOC8*
5,1,8,0,0,1.08239X$1,22.5*%
G01*
%ADD10R,1.600000X0.550000*%
%ADD11R,0.550000X1.600000*%
%ADD12R,0.952400X0.300000*%
%ADD13R,0.300000X0.850800*%
%ADD14R,1.300000X1.500000*%
%ADD15R,2.750000X1.000000*%


D10*
X301100Y269300D03*
X301100Y261300D03*
X301100Y253300D03*
X301100Y245300D03*
X301100Y237300D03*
X301100Y229300D03*
X301100Y221300D03*
X301100Y213300D03*
D11*
X314900Y199500D03*
X322900Y199500D03*
X330900Y199500D03*
X338900Y199500D03*
X346900Y199500D03*
X354900Y199500D03*
X362900Y199500D03*
X370900Y199500D03*
D10*
X384700Y213300D03*
X384700Y221300D03*
X384700Y229300D03*
X384700Y237300D03*
X384700Y245300D03*
X384700Y253300D03*
X384700Y261300D03*
X384700Y269300D03*
D11*
X370900Y283100D03*
X362900Y283100D03*
X354900Y283100D03*
X346900Y283100D03*
X338900Y283100D03*
X330900Y283100D03*
X322900Y283100D03*
X314900Y283100D03*
D12*
X455638Y251300D03*
X455638Y246300D03*
X455638Y241300D03*
X455638Y236300D03*
X455638Y231300D03*
D13*
X464900Y227280D03*
X469900Y227280D03*
X474900Y227280D03*
D12*
X484162Y231300D03*
X484162Y236300D03*
X484162Y241300D03*
X484162Y246300D03*
X484162Y251300D03*
D13*
X474900Y255320D03*
X469900Y255320D03*
X464900Y255320D03*
D14*
X231800Y254000D03*
X250800Y254000D03*
X181000Y254000D03*
X200000Y254000D03*
X485800Y177800D03*
X504800Y177800D03*
X130200Y254000D03*
X149200Y254000D03*
D15*
X511350Y335600D03*
X453850Y335600D03*
X511350Y375600D03*
X453850Y375600D03*
X257350Y335600D03*
X199850Y335600D03*
X257350Y375600D03*
X199850Y375600D03*
D14*
X485800Y139700D03*
X504800Y139700D03*
D15*
X130350Y335600D03*
X72850Y335600D03*
X130350Y375600D03*
X72850Y375600D03*
X397050Y56200D03*
X339550Y56200D03*
X397050Y96200D03*
X339550Y96200D03*
X384350Y335600D03*
X326850Y335600D03*
X384350Y375600D03*
X326850Y375600D03*
M02*
