G04 EAGLE Gerber RS-274X export*
G75*
%MOMM*%
%FSLAX34Y34*%
%LPD*%
%INSilkscreen Bottom*%
%IPPOS*%
%AMOC8*
5,1,8,0,0,1.08239X$1,22.5*%
G01*
%ADD10C,0.127000*%
%ADD11C,0.050800*%


D10*
X307400Y101600D02*
X292400Y101600D01*
X255900Y132600D02*
X255900Y149250D01*
X48900Y149250D01*
X48900Y132600D01*
X48900Y70600D02*
X48900Y53950D01*
X255900Y53950D01*
X255900Y70600D01*
X299900Y94100D02*
X299900Y109100D01*
X160400Y155600D02*
X145400Y155600D01*
X15400Y101600D02*
X400Y101600D01*
X7900Y94100D02*
X7900Y109100D01*
D11*
X288094Y154958D02*
X289646Y154958D01*
X288094Y154958D02*
X288017Y154956D01*
X287939Y154950D01*
X287863Y154941D01*
X287786Y154927D01*
X287711Y154910D01*
X287637Y154889D01*
X287563Y154864D01*
X287491Y154836D01*
X287421Y154804D01*
X287352Y154769D01*
X287285Y154730D01*
X287220Y154688D01*
X287157Y154643D01*
X287096Y154595D01*
X287038Y154544D01*
X286983Y154490D01*
X286930Y154433D01*
X286881Y154374D01*
X286834Y154312D01*
X286790Y154248D01*
X286750Y154182D01*
X286713Y154114D01*
X286679Y154044D01*
X286649Y153973D01*
X286623Y153900D01*
X286600Y153826D01*
X286581Y153751D01*
X286566Y153676D01*
X286554Y153599D01*
X286546Y153522D01*
X286542Y153445D01*
X286542Y153367D01*
X286546Y153290D01*
X286554Y153213D01*
X286566Y153136D01*
X286581Y153061D01*
X286600Y152986D01*
X286623Y152912D01*
X286649Y152839D01*
X286679Y152768D01*
X286713Y152698D01*
X286750Y152630D01*
X286790Y152564D01*
X286834Y152500D01*
X286881Y152438D01*
X286930Y152379D01*
X286983Y152322D01*
X287038Y152268D01*
X287096Y152217D01*
X287157Y152169D01*
X287220Y152124D01*
X287285Y152082D01*
X287352Y152043D01*
X287421Y152008D01*
X287491Y151976D01*
X287563Y151948D01*
X287637Y151923D01*
X287711Y151902D01*
X287786Y151885D01*
X287863Y151871D01*
X287939Y151862D01*
X288017Y151856D01*
X288094Y151854D01*
X289646Y151854D01*
X289646Y157442D01*
X288094Y157442D01*
X288024Y157440D01*
X287955Y157434D01*
X287886Y157424D01*
X287818Y157411D01*
X287750Y157393D01*
X287684Y157372D01*
X287619Y157347D01*
X287555Y157319D01*
X287493Y157287D01*
X287433Y157252D01*
X287375Y157213D01*
X287320Y157171D01*
X287266Y157126D01*
X287216Y157078D01*
X287168Y157028D01*
X287123Y156974D01*
X287081Y156919D01*
X287042Y156861D01*
X287007Y156801D01*
X286975Y156739D01*
X286947Y156675D01*
X286922Y156610D01*
X286901Y156544D01*
X286883Y156476D01*
X286870Y156408D01*
X286860Y156339D01*
X286854Y156270D01*
X286852Y156200D01*
X286854Y156130D01*
X286860Y156061D01*
X286870Y155992D01*
X286883Y155924D01*
X286901Y155856D01*
X286922Y155790D01*
X286947Y155725D01*
X286975Y155661D01*
X287007Y155599D01*
X287042Y155539D01*
X287081Y155481D01*
X287123Y155426D01*
X287168Y155372D01*
X287216Y155322D01*
X287266Y155274D01*
X287320Y155229D01*
X287375Y155187D01*
X287433Y155148D01*
X287493Y155113D01*
X287555Y155081D01*
X287619Y155053D01*
X287684Y155028D01*
X287750Y155007D01*
X287818Y154989D01*
X287886Y154976D01*
X287955Y154966D01*
X288024Y154960D01*
X288094Y154958D01*
X283239Y157442D02*
X283239Y151854D01*
X284791Y157442D02*
X281687Y157442D01*
X279671Y156200D02*
X278118Y157442D01*
X278118Y151854D01*
X276566Y151854D02*
X279671Y151854D01*
M02*
