G04 EAGLE Gerber RS-274X export*
G75*
%MOMM*%
%FSLAX34Y34*%
%LPD*%
%IN*%
%IPPOS*%
%AMOC8*
5,1,8,0,0,1.08239X$1,22.5*%
G01*
%ADD10C,0.254000*%


D10*
X-27940Y20320D02*
X-27843Y18106D01*
X-27554Y15909D01*
X-27075Y13746D01*
X-26408Y11633D01*
X-25560Y9586D01*
X-24537Y7620D01*
X-23346Y5751D01*
X-21998Y3993D01*
X-20501Y2360D01*
X-18867Y862D01*
X-17109Y-486D01*
X-15240Y-1677D01*
X-13275Y-2700D01*
X-11227Y-3548D01*
X-9114Y-4215D01*
X-6951Y-4694D01*
X-4754Y-4983D01*
X-2540Y-5080D01*
X558800Y-5080D01*
X561014Y-4983D01*
X563211Y-4694D01*
X565374Y-4215D01*
X567487Y-3548D01*
X569535Y-2700D01*
X571500Y-1677D01*
X573369Y-486D01*
X575127Y862D01*
X576761Y2360D01*
X578258Y3993D01*
X579606Y5751D01*
X580797Y7620D01*
X581820Y9586D01*
X582668Y11633D01*
X583335Y13746D01*
X583814Y15909D01*
X584103Y18106D01*
X584200Y20320D01*
X584200Y599440D01*
X584103Y601654D01*
X583814Y603851D01*
X583335Y606014D01*
X582668Y608127D01*
X581820Y610175D01*
X580797Y612140D01*
X579606Y614009D01*
X578258Y615767D01*
X576761Y617401D01*
X575127Y618898D01*
X573369Y620246D01*
X571500Y621437D01*
X569535Y622460D01*
X567487Y623308D01*
X565374Y623975D01*
X563211Y624454D01*
X561014Y624743D01*
X558800Y624840D01*
X-2540Y624840D01*
X-4754Y624743D01*
X-6951Y624454D01*
X-9114Y623975D01*
X-11227Y623308D01*
X-13275Y622460D01*
X-15240Y621437D01*
X-17109Y620246D01*
X-18867Y618898D01*
X-20501Y617401D01*
X-21998Y615767D01*
X-23346Y614009D01*
X-24537Y612140D01*
X-25560Y610175D01*
X-26408Y608127D01*
X-27075Y606014D01*
X-27554Y603851D01*
X-27843Y601654D01*
X-27940Y599440D01*
X-27940Y20320D01*
M02*
